{
  "materials": [
    {
      "name": "2222_alpha",
      "pbrMetallicRoughness": {
        "baseColorTexture": {
          "index": 0,
          "texCoord": 0
        },
        "baseColorFactor": [
          1.0,
          1.0,
          1.0,
          1.0
        ],
        "metallicFactor": 0.299999982,
        "roughnessFactor": 0.700000048
      },
      "alphaMode": "BLEND"
    }
  ],
  "images": [
    {
      "uri": "Y8P2MH67X940C1WY7YFWOQH02MOW6DWUK.png"
    }
  ],
  "textures": [
    {
      "name": "door_mesh02.png",
      "sampler": 0,
      "source": 0
    }
  ],
  "meshes": [
    {
      "name": "meshframe",
      "primitives": [
        {
          "material": 0,
          "mode": 4,
          "indices": 0,
          "attributes": {
            "NORMAL": 2,
            "POSITION": 1,
            "TEXCOORD_0": 3,
            "TEXCOORD_1": 4
          }
        }
      ]
    }
  ],
  "buffers": [
    {
      "byteLength": 2031,
      "uri": "CFPKYOYSMOTQYWF1V5J6KDO17EQJ7IHWK.bin"
    }
  ],
  "bufferViews": [
    {
      "buffer": 0,
      "target": 34963,
      "byteLength": 80,
      "byteOffset": 0
    },
    {
      "buffer": 0,
      "target": 34962,
      "byteLength": 228,
      "byteOffset": 132
    },
    {
      "buffer": 0,
      "target": 34962,
      "byteLength": 408,
      "byteOffset": 360
    },
    {
      "buffer": 0,
      "target": 34962,
      "byteLength": 104,
      "byteOffset": 736
    },
    {
      "buffer": 0,
      "target": 34962,
      "byteLength": 304,
      "byteOffset": 840
    }
  ],
  "accessors": [
    {
      "componentType": 5123,
      "type": "SCALAR",
      "bufferView": 0,
      "byteOffset": 0,
      "byteType": 1258,
      "count": 40
    },
    {
      "componentType": 5126,
      "type": "VEC3",
      "bufferView": 1,
      "byteOffset": 0,
      "byteType": 917,
      "count": 19,
      "min": [
        -0.793777108192444,
        0.0,
        -0.0450018346309662
      ],
      "max": [
        0.793777108192444,
        2.99499988555908,
        0.045000858604908
      ]
    },
    {
      "componentType": 5126,
      "type": "VEC3",
      "bufferView": 2,
      "byteOffset": 0,
      "byteType": 1179,
      "count": 34
    },
    {
      "componentType": 5126,
      "type": "VEC2",
      "bufferView": 3,
      "byteOffset": 0,
      "byteType": 1707,
      "count": 13
    },
    {
      "componentType": 5126,
      "type": "VEC2",
      "bufferView": 4,
      "byteOffset": 0,
      "byteType": 610,
      "count": 38
    }
  ],
  "nodes": [
    {
      "name": "RootNode",
      "translation": [
        0.0,
        0.0,
        0.0
      ],
      "rotation": [
        0.0,
        0.0,
        0.0,
        1.0
      ],
      "scale": [
        1.0,
        1.0,
        1.0
      ],
      "children": [
        1
      ]
    },
    {
      "name": "body",
      "translation": [
        0.0,
        0.0,
        4.84287738800049E-08
      ],
      "rotation": [
        -0.70710676908493,
        0.0,
        0.0,
        0.70710676908493
      ],
      "scale": [
        1.0,
        1.0,
        1.0
      ],
      "children": [
        2
      ]
    },
    {
      "name": "meshframe",
      "translation": [
        0.0,
        0.0,
        0.0
      ],
      "rotation": [
        -5.33850830208848E-08,
        0.707106828689575,
        0.707106709480286,
        -5.33850723627438E-08
      ],
      "scale": [
        1.0,
        1.0,
        0.5
      ],
      "mesh": 0
    }
  ],
  "asset": {
    "generator": "FBX2glTF",
    "version": "2.0"
  },
  "scene": 0,
  "scenes": [
    {
      "name": "Root Scene",
      "nodes": [
        0
      ]
    }
  ],
  "samplers": [
    {}
  ]
}
