{
  "materials": [
    {
      "name": "dw2Doorwhite02.bmp",
      "occlusionTexture": {
        "index": 0,
        "texCoord": 1
      },
      "pbrMetallicRoughness": {
        "baseColorTexture": {
          "index": 1,
          "texCoord": 0
        },
        "baseColorFactor": [
          1.0,
          1.0,
          1.0,
          1.0
        ],
        "metallicFactor": 0,
        "roughnessFactor": 1
      },
      "alphaMode": "OPAQUE"
    },
    {
      "name": "dwDoorwhite02.bmp",
      "occlusionTexture": {
        "index": 0,
        "texCoord": 1
      },
      "pbrMetallicRoughness": {
        "baseColorTexture": {
          "index": 2,
          "texCoord": 0
        },
        "baseColorFactor": [
          1.0,
          1.0,
          1.0,
          1.0
        ],
        "metallicFactor": 0,
        "roughnessFactor": 1
      },
      "alphaMode": "OPAQUE"
    },
    {
      "name": "dwDoorwhite01.bmp",
      "occlusionTexture": {
        "index": 3,
        "texCoord": 1
      },
      "pbrMetallicRoughness": {
        "baseColorTexture": {
          "index": 2,
          "texCoord": 0
        },
        "baseColorFactor": [
          1.0,
          1.0,
          1.0,
          1.0
        ],
        "metallicFactor": 0,
        "roughnessFactor": 1
      },
      "alphaMode": "OPAQUE"
    },
    {
      "name": "dwDoorwhite.bmp",
      "occlusionTexture": {
        "index": 4,
        "texCoord": 1
      },
      "pbrMetallicRoughness": {
        "baseColorTexture": {
          "index": 2,
          "texCoord": 0
        },
        "baseColorFactor": [
          1.0,
          1.0,
          1.0,
          1.0
        ],
        "metallicFactor": 0,
        "roughnessFactor": 1
      },
      "alphaMode": "OPAQUE"
    }
  ],
  "images": [
    {
      "uri": "OZ7CQHZKQ3JQPNTJ75ZPNY348O96QDF8C.jpg"
    },
    {
      "uri": "TFZCY146MUW7GJYNV414KTE2KD1W05H02.jpg"
    },
    {
      "uri": "G9UOC762QTZ6EOZ029N0UOEPOPJDNG876.jpg"
    },
    {
      "uri": "X92SYTNWQP3NK5T81GQ68R3D1G3U0OE1O.jpg"
    },
    {
      "uri": "TOWIMHY2PFDKD8PN0DO8UT8ZCTFJ1Y36I.jpg"
    }
  ],
  "textures": [
    {
      "name": "Doorwhite02_f_bmp.jpg",
      "sampler": 0,
      "source": 0
    },
    {
      "name": "doorwhite002.jpg",
      "sampler": 0,
      "source": 1
    },
    {
      "name": "doorwhite.jpg",
      "sampler": 0,
      "source": 2
    },
    {
      "name": "Doorwhite01_f_bmp.jpg",
      "sampler": 0,
      "source": 3
    },
    {
      "name": "Doorwhite_f_bmp.jpg",
      "sampler": 0,
      "source": 4
    }
  ],
  "meshes": [
    {
      "name": "dw2",
      "primitives": [
        {
          "material": 0,
          "mode": 4,
          "indices": 6,
          "attributes": {
            "NORMAL": 8,
            "POSITION": 7,
            "TEXCOORD_0": 9,
            "TEXCOORD_1": 10
          }
        },
        {
          "material": 1,
          "mode": 4,
          "indices": 11,
          "attributes": {
            "NORMAL": 13,
            "POSITION": 12,
            "TEXCOORD_0": 14,
            "TEXCOORD_1": 15
          }
        }
      ]
    },
    {
      "name": "dw1",
      "primitives": [
        {
          "material": 2,
          "mode": 4,
          "indices": 16,
          "attributes": {
            "COLOR_0": 19,
            "NORMAL": 18,
            "POSITION": 17,
            "TEXCOORD_0": 20,
            "TEXCOORD_1": 21
          }
        }
      ]
    },
    {
      "name": "dw",
      "primitives": [
        {
          "material": 3,
          "mode": 4,
          "indices": 22,
          "attributes": {
            "COLOR_0": 25,
            "NORMAL": 24,
            "POSITION": 23,
            "TEXCOORD_0": 26,
            "TEXCOORD_1": 27
          }
        }
      ]
    }
  ],
  "buffers": [
    {
      "byteLength": 8863,
      "uri": "DOTU57TWTF1NC41NQRUU05APNTJY12802.bin"
    }
  ],
  "bufferViews": [
    {
      "buffer": 0,
      "byteLength": 104,
      "byteOffset": 0
    },
    {
      "buffer": 0,
      "byteLength": 128,
      "byteOffset": 320
    },
    {
      "buffer": 0,
      "byteLength": 416,
      "byteOffset": 160
    },
    {
      "buffer": 0,
      "byteLength": 40,
      "byteOffset": 360
    },
    {
      "buffer": 0,
      "byteLength": 448,
      "byteOffset": 328
    },
    {
      "buffer": 0,
      "byteLength": 160,
      "byteOffset": 776
    },
    {
      "buffer": 0,
      "target": 34963,
      "byteLength": 48,
      "byteOffset": 648
    },
    {
      "buffer": 0,
      "target": 34962,
      "byteLength": 48,
      "byteOffset": 876
    },
    {
      "buffer": 0,
      "target": 34962,
      "byteLength": 264,
      "byteOffset": 708
    },
    {
      "buffer": 0,
      "target": 34962,
      "byteLength": 32,
      "byteOffset": 900
    },
    {
      "buffer": 0,
      "target": 34962,
      "byteLength": 176,
      "byteOffset": 788
    },
    {
      "buffer": 0,
      "target": 34963,
      "byteLength": 24,
      "byteOffset": 856
    },
    {
      "buffer": 0,
      "target": 34962,
      "byteLength": 456,
      "byteOffset": 880
    },
    {
      "buffer": 0,
      "target": 34962,
      "byteLength": 24,
      "byteOffset": 1336
    },
    {
      "buffer": 0,
      "target": 34962,
      "byteLength": 304,
      "byteOffset": 1360
    },
    {
      "buffer": 0,
      "target": 34962,
      "byteLength": 16,
      "byteOffset": 1664
    },
    {
      "buffer": 0,
      "target": 34963,
      "byteLength": 108,
      "byteOffset": 1680
    },
    {
      "buffer": 0,
      "target": 34962,
      "byteLength": 72,
      "byteOffset": 1968
    },
    {
      "buffer": 0,
      "target": 34962,
      "byteLength": 504,
      "byteOffset": 2040
    },
    {
      "buffer": 0,
      "target": 34962,
      "byteLength": 96,
      "byteOffset": 2616
    },
    {
      "buffer": 0,
      "target": 34962,
      "byteLength": 336,
      "byteOffset": 2712
    },
    {
      "buffer": 0,
      "target": 34962,
      "byteLength": 48,
      "byteOffset": 3048
    },
    {
      "buffer": 0,
      "target": 34963,
      "byteLength": 324,
      "byteOffset": 3096
    },
    {
      "buffer": 0,
      "target": 34962,
      "byteLength": 744,
      "byteOffset": 3600
    },
    {
      "buffer": 0,
      "target": 34962,
      "byteLength": 1176,
      "byteOffset": 4344
    },
    {
      "buffer": 0,
      "target": 34962,
      "byteLength": 992,
      "byteOffset": 5592
    },
    {
      "buffer": 0,
      "target": 34962,
      "byteLength": 784,
      "byteOffset": 6584
    },
    {
      "buffer": 0,
      "target": 34962,
      "byteLength": 496,
      "byteOffset": 7368
    }
  ],
  "accessors": [
    {
      "componentType": 5126,
      "type": "SCALAR",
      "bufferView": 0,
      "byteOffset": 0,
      "byteType": 1268,
      "count": 26,
      "min": [
        0.0
      ],
      "max": [
        0.291666656732559
      ]
    },
    {
      "componentType": 5126,
      "type": "VEC4",
      "bufferView": 1,
      "byteOffset": 0,
      "byteType": 1142,
      "count": 8
    },
    {
      "componentType": 5126,
      "type": "VEC4",
      "bufferView": 2,
      "byteOffset": 0,
      "byteType": 1710,
      "count": 26
    },
    {
      "componentType": 5126,
      "type": "SCALAR",
      "bufferView": 3,
      "byteOffset": 0,
      "byteType": 544,
      "count": 10,
      "min": [
        -0.0416663289070129
      ],
      "max": [
        0.333333700895309
      ]
    },
    {
      "componentType": 5126,
      "type": "VEC4",
      "bufferView": 4,
      "byteOffset": 0,
      "byteType": 391,
      "count": 28
    },
    {
      "componentType": 5126,
      "type": "VEC4",
      "bufferView": 5,
      "byteOffset": 0,
      "byteType": 1714,
      "count": 10
    },
    {
      "componentType": 5123,
      "type": "SCALAR",
      "bufferView": 6,
      "byteOffset": 0,
      "byteType": 988,
      "count": 24
    },
    {
      "componentType": 5126,
      "type": "VEC3",
      "bufferView": 7,
      "byteOffset": 0,
      "byteType": 1260,
      "count": 4,
      "min": [
        -1.19843757152557,
        -1.12543082237244,
        0.0750000029802322
      ],
      "max": [
        0.0,
        1.12543082237244,
        0.0750000029802322
      ]
    },
    {
      "componentType": 5126,
      "type": "VEC3",
      "bufferView": 8,
      "byteOffset": 0,
      "byteType": 1782,
      "count": 22
    },
    {
      "componentType": 5126,
      "type": "VEC2",
      "bufferView": 9,
      "byteOffset": 0,
      "byteType": 1980,
      "count": 4
    },
    {
      "componentType": 5126,
      "type": "VEC2",
      "bufferView": 10,
      "byteOffset": 0,
      "byteType": 337,
      "count": 22
    },
    {
      "componentType": 5123,
      "type": "SCALAR",
      "bufferView": 11,
      "byteOffset": 0,
      "byteType": 1401,
      "count": 12
    },
    {
      "componentType": 5126,
      "type": "VEC3",
      "bufferView": 12,
      "byteOffset": 0,
      "byteType": 1995,
      "count": 38,
      "min": [
        -1.19843757152557,
        -1.12543082237244,
        -0.0750000029802322
      ],
      "max": [
        0.0,
        1.12543082237244,
        0.0750000029802322
      ]
    },
    {
      "componentType": 5126,
      "type": "VEC3",
      "bufferView": 13,
      "byteOffset": 0,
      "byteType": 1723,
      "count": 2
    },
    {
      "componentType": 5126,
      "type": "VEC2",
      "bufferView": 14,
      "byteOffset": 0,
      "byteType": 957,
      "count": 38
    },
    {
      "componentType": 5126,
      "type": "VEC2",
      "bufferView": 15,
      "byteOffset": 0,
      "byteType": 533,
      "count": 2
    },
    {
      "componentType": 5123,
      "type": "SCALAR",
      "bufferView": 16,
      "byteOffset": 0,
      "byteType": 1130,
      "count": 54
    },
    {
      "componentType": 5126,
      "type": "VEC3",
      "bufferView": 17,
      "byteOffset": 0,
      "byteType": 1069,
      "count": 6,
      "min": [
        0.0,
        -1.12543082237244,
        -0.0750000029802322
      ],
      "max": [
        1.19843769073486,
        1.12543082237244,
        0.0749999955296516
      ]
    },
    {
      "componentType": 5126,
      "type": "VEC3",
      "bufferView": 18,
      "byteOffset": 0,
      "byteType": 408,
      "count": 42
    },
    {
      "componentType": 5126,
      "type": "VEC4",
      "bufferView": 19,
      "byteOffset": 0,
      "byteType": 1885,
      "count": 6
    },
    {
      "componentType": 5126,
      "type": "VEC2",
      "bufferView": 20,
      "byteOffset": 0,
      "byteType": 1810,
      "count": 42
    },
    {
      "componentType": 5126,
      "type": "VEC2",
      "bufferView": 21,
      "byteOffset": 0,
      "byteType": 369,
      "count": 6
    },
    {
      "componentType": 5123,
      "type": "SCALAR",
      "bufferView": 22,
      "byteOffset": 0,
      "byteType": 1876,
      "count": 162
    },
    {
      "componentType": 5126,
      "type": "VEC3",
      "bufferView": 23,
      "byteOffset": 0,
      "byteType": 1627,
      "count": 62,
      "min": [
        -1.25000011920929,
        -0.0750001966953278,
        0.0
      ],
      "max": [
        1.25000011920929,
        0.0750001966953278,
        2.34770441055298
      ]
    },
    {
      "componentType": 5126,
      "type": "VEC3",
      "bufferView": 24,
      "byteOffset": 0,
      "byteType": 1136,
      "count": 98
    },
    {
      "componentType": 5126,
      "type": "VEC4",
      "bufferView": 25,
      "byteOffset": 0,
      "byteType": 1543,
      "count": 62
    },
    {
      "componentType": 5126,
      "type": "VEC2",
      "bufferView": 26,
      "byteOffset": 0,
      "byteType": 1702,
      "count": 98
    },
    {
      "componentType": 5126,
      "type": "VEC2",
      "bufferView": 27,
      "byteOffset": 0,
      "byteType": 1763,
      "count": 62
    }
  ],
  "nodes": [
    {
      "name": "RootNode",
      "translation": [
        0.0,
        0.0,
        0.0
      ],
      "rotation": [
        0.0,
        0.0,
        0.0,
        1.0
      ],
      "scale": [
        1.0,
        1.0,
        1.0
      ],
      "children": [
        1,
        2,
        3
      ]
    },
    {
      "name": "dw2",
      "translation": [
        1.19843757152557,
        1.17775845527649,
        -7.90744536516286E-08
      ],
      "rotation": [
        8.14603424714733E-08,
        0.0,
        0.0,
        1.0
      ],
      "scale": [
        1.0,
        1.0,
        1.0
      ],
      "mesh": 0
    },
    {
      "name": "dw1",
      "translation": [
        -1.19843757152557,
        1.17815518379211,
        -7.45058059692383E-08
      ],
      "rotation": [
        8.14603424714733E-08,
        0.0,
        0.0,
        1.0
      ],
      "scale": [
        1.0,
        1.0,
        1.0
      ],
      "mesh": 1
    },
    {
      "name": "dw",
      "translation": [
        0.0,
        0.0,
        -7.82310962677002E-08
      ],
      "rotation": [
        -0.70710676908493,
        0.0,
        0.0,
        0.70710676908493
      ],
      "scale": [
        1.0,
        1.0,
        1.0
      ],
      "mesh": 2
    }
  ],
  "asset": {
    "generator": "FBX2glTF",
    "version": "2.0"
  },
  "scene": 0,
  "scenes": [
    {
      "name": "Root Scene",
      "nodes": [
        0
      ]
    }
  ],
  "samplers": [
    {}
  ],
  "animations": [
    {
      "name": "Auto_Open",
      "channels": [
        {
          "sampler": 0,
          "target": {
            "node": 1,
            "path": "rotation"
          }
        },
        {
          "sampler": 1,
          "target": {
            "node": 2,
            "path": "rotation"
          }
        }
      ],
      "samplers": [
        {
          "input": 0,
          "interpolation": "LINEAR",
          "output": 1
        },
        {
          "input": 0,
          "interpolation": "LINEAR",
          "output": 2
        }
      ]
    },
    {
      "name": "Auto_Close",
      "channels": [
        {
          "sampler": 0,
          "target": {
            "node": 1,
            "path": "rotation"
          }
        },
        {
          "sampler": 1,
          "target": {
            "node": 2,
            "path": "rotation"
          }
        }
      ],
      "samplers": [
        {
          "input": 3,
          "interpolation": "LINEAR",
          "output": 4
        },
        {
          "input": 3,
          "interpolation": "LINEAR",
          "output": 5
        }
      ]
    }
  ]
}
