{
  "materials": [
    {
      "name": "GridBig_alpha",
      "pbrMetallicRoughness": {
        "baseColorTexture": {
          "index": 0,
          "texCoord": 0
        },
        "baseColorFactor": [
          1.0,
          1.0,
          1.0,
          1.0
        ],
        "metallicFactor": 0.299999982,
        "roughnessFactor": 0.700000048
      },
      "alphaMode": "MASK",
      "alphaCutoff": 0.5
    },
    {
      "name": "GridLittle_alpha",
      "pbrMetallicRoughness": {
        "baseColorTexture": {
          "index": 1,
          "texCoord": 0
        },
        "baseColorFactor": [
          1.0,
          1.0,
          1.0,
          1.0
        ],
        "metallicFactor": 0.299999982,
        "roughnessFactor": 0.700000048
      },
      "alphaMode": "MASK",
      "alphaCutoff": 0.5
    },
    {
      "name": "Black",
      "pbrMetallicRoughness": {
        "baseColorTexture": {
          "index": 2,
          "texCoord": 0
        },
        "baseColorFactor": [
          1.0,
          1.0,
          1.0,
          1.0
        ],
        "metallicFactor": 0.299999982,
        "roughnessFactor": 0.700000048
      },
      "alphaMode": "OPAQUE"
    }
  ],
  "images": [
    {
      "uri": "WNP78QM8YNO34KEQN385E6NTZ2VYEWQ49.png"
    },
    {
      "uri": "PNQW3674F07QQ6QIOYNQJP7E7N6YQDWTZ.png"
    },
    {
      "uri": "Y7RHYWD8JCY14I3XA0IYHU0QO4K531CQH.jpg"
    }
  ],
  "textures": [
    {
      "name": "GridBig.png",
      "sampler": 0,
      "source": 0
    },
    {
      "name": "GridLittle.png",
      "sampler": 0,
      "source": 1
    },
    {
      "name": "Black.jpg",
      "sampler": 0,
      "source": 2
    }
  ],
  "meshes": [
    {
      "name": "Plane001",
      "primitives": [
        {
          "material": 0,
          "mode": 4,
          "indices": 0,
          "attributes": {
            "NORMAL": 2,
            "POSITION": 1,
            "TEXCOORD_0": 3,
            "TEXCOORD_1": 4
          }
        },
        {
          "material": 1,
          "mode": 4,
          "indices": 5,
          "attributes": {
            "NORMAL": 7,
            "POSITION": 6,
            "TEXCOORD_0": 8,
            "TEXCOORD_1": 9
          }
        }
      ]
    },
    {
      "name": "Box001",
      "primitives": [
        {
          "material": 2,
          "mode": 4,
          "indices": 10,
          "attributes": {
            "NORMAL": 12,
            "POSITION": 11,
            "TEXCOORD_0": 13,
            "TEXCOORD_1": 14
          }
        }
      ]
    }
  ],
  "buffers": [
    {
      "byteLength": 43559,
      "uri": "8KTUTVX3QUIGT6SX376Q8TS290O49J1D8.bin"
    }
  ],
  "bufferViews": [
    {
      "buffer": 0,
      "target": 34963,
      "byteLength": 80,
      "byteOffset": 0
    },
    {
      "buffer": 0,
      "target": 34962,
      "byteLength": 228,
      "byteOffset": 132
    },
    {
      "buffer": 0,
      "target": 34962,
      "byteLength": 576,
      "byteOffset": 360
    },
    {
      "buffer": 0,
      "target": 34962,
      "byteLength": 192,
      "byteOffset": 848
    },
    {
      "buffer": 0,
      "target": 34962,
      "byteLength": 320,
      "byteOffset": 840
    },
    {
      "buffer": 0,
      "target": 34963,
      "byteLength": 542,
      "byteOffset": 1066
    },
    {
      "buffer": 0,
      "target": 34962,
      "byteLength": 2376,
      "byteOffset": 1608
    },
    {
      "buffer": 0,
      "target": 34962,
      "byteLength": 2220,
      "byteOffset": 3996
    },
    {
      "buffer": 0,
      "target": 34962,
      "byteLength": 1688,
      "byteOffset": 6216
    },
    {
      "buffer": 0,
      "target": 34962,
      "byteLength": 1376,
      "byteOffset": 7912
    },
    {
      "buffer": 0,
      "target": 34963,
      "byteLength": 2862,
      "byteOffset": 9288
    },
    {
      "buffer": 0,
      "target": 34962,
      "byteLength": 8940,
      "byteOffset": 12312
    },
    {
      "buffer": 0,
      "target": 34962,
      "byteLength": 9312,
      "byteOffset": 21252
    },
    {
      "buffer": 0,
      "target": 34962,
      "byteLength": 6016,
      "byteOffset": 30456
    },
    {
      "buffer": 0,
      "target": 34962,
      "byteLength": 6120,
      "byteOffset": 36472
    }
  ],
  "accessors": [
    {
      "componentType": 5123,
      "type": "SCALAR",
      "bufferView": 0,
      "byteOffset": 0,
      "byteType": 1369,
      "count": 40
    },
    {
      "componentType": 5126,
      "type": "VEC3",
      "bufferView": 1,
      "byteOffset": 0,
      "byteType": 687,
      "count": 19,
      "min": [
        -178.409149169922,
        3.0517578125E-05,
        0.00472462736070156
      ],
      "max": [
        178.409210205078,
        118.939460754395,
        0.0147249531000853
      ]
    },
    {
      "componentType": 5126,
      "type": "VEC3",
      "bufferView": 2,
      "byteOffset": 0,
      "byteType": 211,
      "count": 48
    },
    {
      "componentType": 5126,
      "type": "VEC2",
      "bufferView": 3,
      "byteOffset": 0,
      "byteType": 1618,
      "count": 24
    },
    {
      "componentType": 5126,
      "type": "VEC2",
      "bufferView": 4,
      "byteOffset": 0,
      "byteType": 559,
      "count": 40
    },
    {
      "componentType": 5123,
      "type": "SCALAR",
      "bufferView": 5,
      "byteOffset": 0,
      "byteType": 1727,
      "count": 271
    },
    {
      "componentType": 5126,
      "type": "VEC3",
      "bufferView": 6,
      "byteOffset": 0,
      "byteType": 1416,
      "count": 198,
      "min": [
        -201.018920898438,
        0.0,
        -0.152376845479012
      ],
      "max": [
        201.018920898438,
        110.018951416016,
        0.152377232909203
      ]
    },
    {
      "componentType": 5126,
      "type": "VEC3",
      "bufferView": 7,
      "byteOffset": 0,
      "byteType": 1605,
      "count": 185
    },
    {
      "componentType": 5126,
      "type": "VEC2",
      "bufferView": 8,
      "byteOffset": 0,
      "byteType": 519,
      "count": 211
    },
    {
      "componentType": 5126,
      "type": "VEC2",
      "bufferView": 9,
      "byteOffset": 0,
      "byteType": 555,
      "count": 172
    },
    {
      "componentType": 5123,
      "type": "SCALAR",
      "bufferView": 10,
      "byteOffset": 0,
      "byteType": 952,
      "count": 1431
    },
    {
      "componentType": 5126,
      "type": "VEC3",
      "bufferView": 11,
      "byteOffset": 0,
      "byteType": 675,
      "count": 745,
      "min": [
        -4.31883478164673,
        -0.320710688829422,
        -3.72529029846191E-09
      ],
      "max": [
        4.31883525848389,
        0.320710688829422,
        2.00000095367432
      ]
    },
    {
      "componentType": 5126,
      "type": "VEC3",
      "bufferView": 12,
      "byteOffset": 0,
      "byteType": 887,
      "count": 776
    },
    {
      "componentType": 5126,
      "type": "VEC2",
      "bufferView": 13,
      "byteOffset": 0,
      "byteType": 1409,
      "count": 752
    },
    {
      "componentType": 5126,
      "type": "VEC2",
      "bufferView": 14,
      "byteOffset": 0,
      "byteType": 873,
      "count": 765
    }
  ],
  "nodes": [
    {
      "name": "RootNode",
      "translation": [
        0.0,
        0.0,
        0.0
      ],
      "rotation": [
        0.0,
        0.0,
        0.0,
        1.0
      ],
      "scale": [
        1.0,
        1.0,
        1.0
      ],
      "children": [
        1,
        2
      ]
    },
    {
      "name": "Plane001",
      "translation": [
        -3.0850594612275E-07,
        -4.76837158203125E-07,
        -0.00972459558397532
      ],
      "rotation": [
        -9.73535918546986E-08,
        0.0,
        0.0,
        1.0
      ],
      "scale": [
        0.0134788313880563,
        0.0168152991682291,
        1.0
      ],
      "mesh": 0
    },
    {
      "name": "Box001",
      "translation": [
        -7.15255737304688E-07,
        0.0,
        -0.00170475826598704
      ],
      "rotation": [
        -0.70710676908493,
        0.0,
        0.0,
        0.70710676908493
      ],
      "scale": [
        0.641586601734161,
        0.641586601734161,
        1.0
      ],
      "mesh": 1
    }
  ],
  "asset": {
    "generator": "FBX2glTF",
    "version": "2.0"
  },
  "scene": 0,
  "scenes": [
    {
      "name": "Root Scene",
      "nodes": [
        0
      ]
    }
  ],
  "samplers": [
    {}
  ]
}
