{
  "materials": [
    {
      "name": "Std_ntexture_01.jpg",
      "pbrMetallicRoughness": {
        "baseColorTexture": {
          "index": 0,
          "texCoord": 0
        },
        "baseColorFactor": [
          1.0,
          1.0,
          1.0,
          1.0
        ],
        "metallicFactor": 0.099999994,
        "roughnessFactor": 1
      },
      "alphaMode": "OPAQUE"
    }
  ],
  "images": [
    {
      "uri": "TO6WRE6NT722RQPWQGWU6PQY1PODNO727.jpg"
    }
  ],
  "textures": [
    {
      "name": "ntexture_01.jpg",
      "sampler": 0,
      "source": 0
    }
  ],
  "meshes": [
    {
      "name": "Lo-Body_01",
      "primitives": [
        {
          "material": 0,
          "mode": 4,
          "indices": 0,
          "attributes": {
            "NORMAL": 2,
            "POSITION": 1,
            "TEXCOORD_0": 3
          }
        }
      ]
    }
  ],
  "buffers": [
    {
      "byteLength": 14563,
      "uri": "O87IY34IXEUNMWTUOCOJCY888DHU6G1ZC.bin"
    }
  ],
  "bufferViews": [
    {
      "buffer": 0,
      "target": 34963,
      "byteLength": 2106,
      "byteOffset": 0
    },
    {
      "buffer": 0,
      "target": 34962,
      "byteLength": 4128,
      "byteOffset": 2256
    },
    {
      "buffer": 0,
      "target": 34962,
      "byteLength": 4488,
      "byteOffset": 6384
    },
    {
      "buffer": 0,
      "target": 34962,
      "byteLength": 2752,
      "byteOffset": 10812
    }
  ],
  "accessors": [
    {
      "componentType": 5123,
      "type": "SCALAR",
      "bufferView": 0,
      "byteOffset": 0,
      "byteType": 755,
      "count": 1053
    },
    {
      "componentType": 5126,
      "type": "VEC3",
      "bufferView": 1,
      "byteOffset": 0,
      "byteType": 579,
      "count": 344,
      "min": [
        -6.23169994354248,
        -2.11272764205933,
        0.100764751434326
      ],
      "max": [
        6.23169994354248,
        2.11272764205933,
        12.5641651153564
      ]
    },
    {
      "componentType": 5126,
      "type": "VEC3",
      "bufferView": 2,
      "byteOffset": 0,
      "byteType": 1735,
      "count": 374
    },
    {
      "componentType": 5126,
      "type": "VEC2",
      "bufferView": 3,
      "byteOffset": 0,
      "byteType": 881,
      "count": 344
    }
  ],
  "nodes": [
    {
      "name": "RootNode",
      "translation": [
        0.0,
        0.0,
        0.0
      ],
      "rotation": [
        0.0,
        0.0,
        0.0,
        1.0
      ],
      "scale": [
        1.0,
        1.0,
        1.0
      ],
      "children": [
        1
      ]
    },
    {
      "name": "body",
      "translation": [
        0.0,
        0.0,
        0.0
      ],
      "rotation": [
        -0.70710676908493,
        0.0,
        0.0,
        0.70710676908493
      ],
      "scale": [
        0.00999999977648258,
        0.00999999977648258,
        0.00999999977648258
      ],
      "children": [
        2
      ]
    },
    {
      "name": "Lo-Body_01",
      "translation": [
        0.0,
        0.0,
        0.0
      ],
      "rotation": [
        0.0,
        0.0,
        0.0,
        1.0
      ],
      "scale": [
        1.0,
        1.0,
        1.0
      ],
      "mesh": 0
    }
  ],
  "asset": {
    "generator": "FBX2glTF",
    "version": "2.0"
  },
  "scene": 0,
  "scenes": [
    {
      "name": "Root Scene",
      "nodes": [
        0
      ]
    }
  ],
  "samplers": [
    {}
  ]
}
