{
  "materials": [
    {
      "name": "Standard_17_alpha",
      "pbrMetallicRoughness": {
        "baseColorTexture": {
          "index": 0,
          "texCoord": 0
        },
        "baseColorFactor": [
          1.0,
          1.0,
          1.0,
          1.0
        ],
        "metallicFactor": 0.299999982,
        "roughnessFactor": 0.700000048
      },
      "alphaMode": "BLEND"
    },
    {
      "name": "meshhh_alpha",
      "pbrMetallicRoughness": {
        "baseColorTexture": {
          "index": 1,
          "texCoord": 0
        },
        "baseColorFactor": [
          1.0,
          1.0,
          1.0,
          1.0
        ],
        "metallicFactor": 0,
        "roughnessFactor": 1
      },
      "alphaMode": "BLEND"
    }
  ],
  "images": [
    {
      "uri": "TZ8OWD74Z08QZ71DEU12E10WQANCOQ7KP.png"
    },
    {
      "uri": "OZUYA2UO3JKDTDUUMF2VR71VD32CDTTWC.png"
    }
  ],
  "textures": [
    {
      "name": "door_mesh.png",
      "sampler": 0,
      "source": 0
    },
    {
      "name": "Jianqumen000.png",
      "sampler": 0,
      "source": 1
    }
  ],
  "meshes": [
    {
      "name": "meshframe001",
      "primitives": [
        {
          "material": 0,
          "mode": 4,
          "indices": 6,
          "attributes": {
            "NORMAL": 8,
            "POSITION": 7,
            "TEXCOORD_0": 9,
            "TEXCOORD_1": 10
          }
        }
      ]
    },
    {
      "name": "mesh",
      "primitives": [
        {
          "material": 0,
          "mode": 4,
          "indices": 11,
          "attributes": {
            "NORMAL": 13,
            "POSITION": 12,
            "TEXCOORD_0": 14,
            "TEXCOORD_1": 15
          }
        }
      ]
    },
    {
      "name": "mesh001",
      "primitives": [
        {
          "material": 0,
          "mode": 4,
          "indices": 16,
          "attributes": {
            "NORMAL": 18,
            "POSITION": 17,
            "TEXCOORD_0": 19,
            "TEXCOORD_1": 20
          }
        },
        {
          "material": 1,
          "mode": 4,
          "indices": 21,
          "attributes": {
            "NORMAL": 23,
            "POSITION": 22,
            "TEXCOORD_0": 24,
            "TEXCOORD_1": 25
          }
        }
      ]
    }
  ],
  "buffers": [
    {
      "byteLength": 8551,
      "uri": "822E768DRWUVD3YS2EYIMUP2TE26OQ00M.bin"
    }
  ],
  "bufferViews": [
    {
      "buffer": 0,
      "byteLength": 104,
      "byteOffset": 0
    },
    {
      "buffer": 0,
      "byteLength": 128,
      "byteOffset": 320
    },
    {
      "buffer": 0,
      "byteLength": 416,
      "byteOffset": 160
    },
    {
      "buffer": 0,
      "byteLength": 40,
      "byteOffset": 360
    },
    {
      "buffer": 0,
      "byteLength": 448,
      "byteOffset": 328
    },
    {
      "buffer": 0,
      "byteLength": 160,
      "byteOffset": 776
    },
    {
      "buffer": 0,
      "target": 34963,
      "byteLength": 276,
      "byteOffset": 648
    },
    {
      "buffer": 0,
      "target": 34962,
      "byteLength": 648,
      "byteOffset": 1104
    },
    {
      "buffer": 0,
      "target": 34962,
      "byteLength": 1080,
      "byteOffset": 1752
    },
    {
      "buffer": 0,
      "target": 34962,
      "byteLength": 432,
      "byteOffset": 2760
    },
    {
      "buffer": 0,
      "target": 34962,
      "byteLength": 720,
      "byteOffset": 3192
    },
    {
      "buffer": 0,
      "target": 34963,
      "byteLength": 36,
      "byteOffset": 3804
    },
    {
      "buffer": 0,
      "target": 34962,
      "byteLength": 504,
      "byteOffset": 3840
    },
    {
      "buffer": 0,
      "target": 34962,
      "byteLength": 72,
      "byteOffset": 4344
    },
    {
      "buffer": 0,
      "target": 34962,
      "byteLength": 336,
      "byteOffset": 4416
    },
    {
      "buffer": 0,
      "target": 34962,
      "byteLength": 48,
      "byteOffset": 4752
    },
    {
      "buffer": 0,
      "target": 34963,
      "byteLength": 108,
      "byteOffset": 4800
    },
    {
      "buffer": 0,
      "target": 34962,
      "byteLength": 72,
      "byteOffset": 5088
    },
    {
      "buffer": 0,
      "target": 34962,
      "byteLength": 504,
      "byteOffset": 5160
    },
    {
      "buffer": 0,
      "target": 34962,
      "byteLength": 48,
      "byteOffset": 5592
    },
    {
      "buffer": 0,
      "target": 34962,
      "byteLength": 336,
      "byteOffset": 5640
    },
    {
      "buffer": 0,
      "target": 34963,
      "byteLength": 84,
      "byteOffset": 5868
    },
    {
      "buffer": 0,
      "target": 34962,
      "byteLength": 696,
      "byteOffset": 5952
    },
    {
      "buffer": 0,
      "target": 34962,
      "byteLength": 264,
      "byteOffset": 6648
    },
    {
      "buffer": 0,
      "target": 34962,
      "byteLength": 464,
      "byteOffset": 6912
    },
    {
      "buffer": 0,
      "target": 34962,
      "byteLength": 176,
      "byteOffset": 7376
    }
  ],
  "accessors": [
    {
      "componentType": 5126,
      "type": "SCALAR",
      "bufferView": 0,
      "byteOffset": 0,
      "byteType": 1779,
      "count": 26,
      "min": [
        0.0
      ],
      "max": [
        0.291666656732559
      ]
    },
    {
      "componentType": 5126,
      "type": "VEC4",
      "bufferView": 1,
      "byteOffset": 0,
      "byteType": 662,
      "count": 8
    },
    {
      "componentType": 5126,
      "type": "VEC4",
      "bufferView": 2,
      "byteOffset": 0,
      "byteType": 1348,
      "count": 26
    },
    {
      "componentType": 5126,
      "type": "SCALAR",
      "bufferView": 3,
      "byteOffset": 0,
      "byteType": 1588,
      "count": 10,
      "min": [
        -0.0416663289070129
      ],
      "max": [
        0.333333700895309
      ]
    },
    {
      "componentType": 5126,
      "type": "VEC4",
      "bufferView": 4,
      "byteOffset": 0,
      "byteType": 561,
      "count": 28
    },
    {
      "componentType": 5126,
      "type": "VEC4",
      "bufferView": 5,
      "byteOffset": 0,
      "byteType": 900,
      "count": 10
    },
    {
      "componentType": 5123,
      "type": "SCALAR",
      "bufferView": 6,
      "byteOffset": 0,
      "byteType": 1354,
      "count": 138
    },
    {
      "componentType": 5126,
      "type": "VEC3",
      "bufferView": 7,
      "byteOffset": 0,
      "byteType": 1977,
      "count": 54,
      "min": [
        -1.19013094902039,
        -0.0225009210407734,
        0.0
      ],
      "max": [
        1.19013094902039,
        0.0225009620189667,
        2.05107831954956
      ]
    },
    {
      "componentType": 5126,
      "type": "VEC3",
      "bufferView": 8,
      "byteOffset": 0,
      "byteType": 339,
      "count": 90
    },
    {
      "componentType": 5126,
      "type": "VEC2",
      "bufferView": 9,
      "byteOffset": 0,
      "byteType": 261,
      "count": 54
    },
    {
      "componentType": 5126,
      "type": "VEC2",
      "bufferView": 10,
      "byteOffset": 0,
      "byteType": 486,
      "count": 90
    },
    {
      "componentType": 5123,
      "type": "SCALAR",
      "bufferView": 11,
      "byteOffset": 0,
      "byteType": 277,
      "count": 18
    },
    {
      "componentType": 5126,
      "type": "VEC3",
      "bufferView": 12,
      "byteOffset": 0,
      "byteType": 681,
      "count": 42,
      "min": [
        0.0,
        -0.02250075340271,
        -0.95250004529953
      ],
      "max": [
        1.14087080955505,
        0.0225006937980652,
        1.05250024795532
      ]
    },
    {
      "componentType": 5126,
      "type": "VEC3",
      "bufferView": 13,
      "byteOffset": 0,
      "byteType": 1693,
      "count": 6
    },
    {
      "componentType": 5126,
      "type": "VEC2",
      "bufferView": 14,
      "byteOffset": 0,
      "byteType": 1773,
      "count": 42
    },
    {
      "componentType": 5126,
      "type": "VEC2",
      "bufferView": 15,
      "byteOffset": 0,
      "byteType": 1701,
      "count": 6
    },
    {
      "componentType": 5123,
      "type": "SCALAR",
      "bufferView": 16,
      "byteOffset": 0,
      "byteType": 378,
      "count": 54
    },
    {
      "componentType": 5126,
      "type": "VEC3",
      "bufferView": 17,
      "byteOffset": 0,
      "byteType": 1053,
      "count": 6,
      "min": [
        -1.14087092876434,
        -0.0225008763372898,
        -1.00250005722046
      ],
      "max": [
        0.0,
        0.0225006565451622,
        1.00250005722046
      ]
    },
    {
      "componentType": 5126,
      "type": "VEC3",
      "bufferView": 18,
      "byteOffset": 0,
      "byteType": 1504,
      "count": 42
    },
    {
      "componentType": 5126,
      "type": "VEC2",
      "bufferView": 19,
      "byteOffset": 0,
      "byteType": 1545,
      "count": 6
    },
    {
      "componentType": 5126,
      "type": "VEC2",
      "bufferView": 20,
      "byteOffset": 0,
      "byteType": 1903,
      "count": 42
    },
    {
      "componentType": 5123,
      "type": "SCALAR",
      "bufferView": 21,
      "byteOffset": 0,
      "byteType": 1103,
      "count": 42
    },
    {
      "componentType": 5126,
      "type": "VEC3",
      "bufferView": 22,
      "byteOffset": 0,
      "byteType": 1345,
      "count": 58,
      "min": [
        -1.11430299282074,
        -0.032500647008419,
        -0.127696871757507
      ],
      "max": [
        -1.00837373733521,
        0.032500647008419,
        0.108526110649109
      ]
    },
    {
      "componentType": 5126,
      "type": "VEC3",
      "bufferView": 23,
      "byteOffset": 0,
      "byteType": 505,
      "count": 22
    },
    {
      "componentType": 5126,
      "type": "VEC2",
      "bufferView": 24,
      "byteOffset": 0,
      "byteType": 627,
      "count": 58
    },
    {
      "componentType": 5126,
      "type": "VEC2",
      "bufferView": 25,
      "byteOffset": 0,
      "byteType": 531,
      "count": 22
    }
  ],
  "nodes": [
    {
      "name": "RootNode",
      "translation": [
        0.0,
        0.0,
        0.0
      ],
      "rotation": [
        0.0,
        0.0,
        0.0,
        1.0
      ],
      "scale": [
        1.0,
        1.0,
        1.0
      ],
      "children": [
        1,
        2,
        3
      ]
    },
    {
      "name": "meshframe001",
      "translation": [
        0.0,
        0.0,
        -1.21071934700012E-08
      ],
      "rotation": [
        -0.70710676908493,
        0.0,
        0.0,
        0.70710676908493
      ],
      "scale": [
        1.0,
        1.0,
        1.0
      ],
      "mesh": 0
    },
    {
      "name": "mesh",
      "translation": [
        -1.14087092876434,
        0.95249992609024,
        -2.98023223876953E-07
      ],
      "rotation": [
        -0.70710676908493,
        0.0,
        0.0,
        0.70710676908493
      ],
      "scale": [
        1.0,
        1.0,
        1.0
      ],
      "mesh": 1
    },
    {
      "name": "mesh001",
      "translation": [
        1.14087104797363,
        1.00250005722046,
        -1.564621925354E-07
      ],
      "rotation": [
        -0.70710676908493,
        0.0,
        0.0,
        0.70710676908493
      ],
      "scale": [
        1.0,
        1.0,
        1.0
      ],
      "mesh": 2
    }
  ],
  "asset": {
    "generator": "FBX2glTF",
    "version": "2.0"
  },
  "scene": 0,
  "scenes": [
    {
      "name": "Root Scene",
      "nodes": [
        0
      ]
    }
  ],
  "samplers": [
    {}
  ],
  "animations": [
    {
      "name": "Auto_Open",
      "channels": [
        {
          "sampler": 0,
          "target": {
            "node": 2,
            "path": "rotation"
          }
        },
        {
          "sampler": 1,
          "target": {
            "node": 3,
            "path": "rotation"
          }
        }
      ],
      "samplers": [
        {
          "input": 0,
          "interpolation": "LINEAR",
          "output": 1
        },
        {
          "input": 0,
          "interpolation": "LINEAR",
          "output": 2
        }
      ]
    },
    {
      "name": "Auto_Close",
      "channels": [
        {
          "sampler": 0,
          "target": {
            "node": 2,
            "path": "rotation"
          }
        },
        {
          "sampler": 1,
          "target": {
            "node": 3,
            "path": "rotation"
          }
        }
      ],
      "samplers": [
        {
          "input": 3,
          "interpolation": "LINEAR",
          "output": 4
        },
        {
          "input": 3,
          "interpolation": "LINEAR",
          "output": 5
        }
      ]
    }
  ]
}
