{
  "materials": [
    {
      "name": "mesh_window01_alpha",
      "pbrMetallicRoughness": {
        "baseColorTexture": {
          "index": 0,
          "texCoord": 0
        },
        "baseColorFactor": [
          1.0,
          1.0,
          1.0,
          1.0
        ],
        "metallicFactor": 0.149999991,
        "roughnessFactor": 0.85
      },
      "alphaMode": "BLEND"
    },
    {
      "name": "windows_mesh_alpha",
      "pbrMetallicRoughness": {
        "baseColorTexture": {
          "index": 1,
          "texCoord": 0
        },
        "baseColorFactor": [
          1.0,
          1.0,
          1.0,
          1.0
        ],
        "metallicFactor": 0.299999982,
        "roughnessFactor": 0.700000048
      },
      "alphaMode": "BLEND"
    }
  ],
  "images": [
    {
      "uri": "1JCM1D1DGE07TEZK2Q7CGU6KYFZUMZTWP.png"
    },
    {
      "uri": "ADYSIT662UYUI32WPJ0NMENNMJ6CRODQD.png"
    }
  ],
  "textures": [
    {
      "name": "mesh_window01.png",
      "sampler": 0,
      "source": 0
    },
    {
      "name": "windows_mesh.png",
      "sampler": 0,
      "source": 1
    }
  ],
  "meshes": [
    {
      "name": "Box001",
      "primitives": [
        {
          "material": 0,
          "mode": 4,
          "indices": 0,
          "attributes": {
            "COLOR_0": 3,
            "NORMAL": 2,
            "POSITION": 1,
            "TEXCOORD_0": 4,
            "TEXCOORD_1": 5
          }
        },
        {
          "material": 1,
          "mode": 4,
          "indices": 6,
          "attributes": {
            "COLOR_0": 9,
            "NORMAL": 8,
            "POSITION": 7,
            "TEXCOORD_0": 10,
            "TEXCOORD_1": 11
          }
        }
      ]
    }
  ],
  "buffers": [
    {
      "byteLength": 2887,
      "uri": "J8D6YQNI5U4VMW6QM9PSIW1WO9T8G1T7T.bin"
    }
  ],
  "bufferViews": [
    {
      "buffer": 0,
      "target": 34963,
      "byteLength": 106,
      "byteOffset": 0
    },
    {
      "buffer": 0,
      "target": 34962,
      "byteLength": 72,
      "byteOffset": 288
    },
    {
      "buffer": 0,
      "target": 34962,
      "byteLength": 564,
      "byteOffset": 360
    },
    {
      "buffer": 0,
      "target": 34962,
      "byteLength": 384,
      "byteOffset": 1032
    },
    {
      "buffer": 0,
      "target": 34962,
      "byteLength": 288,
      "byteOffset": 1032
    },
    {
      "buffer": 0,
      "target": 34962,
      "byteLength": 88,
      "byteOffset": 1328
    },
    {
      "buffer": 0,
      "target": 34963,
      "byteLength": 40,
      "byteOffset": 1416
    },
    {
      "buffer": 0,
      "target": 34962,
      "byteLength": 96,
      "byteOffset": 1548
    },
    {
      "buffer": 0,
      "target": 34962,
      "byteLength": 324,
      "byteOffset": 1536
    },
    {
      "buffer": 0,
      "target": 34962,
      "byteLength": 128,
      "byteOffset": 1952
    },
    {
      "buffer": 0,
      "target": 34962,
      "byteLength": 128,
      "byteOffset": 1760
    },
    {
      "buffer": 0,
      "target": 34962,
      "byteLength": 64,
      "byteOffset": 1896
    }
  ],
  "accessors": [
    {
      "componentType": 5123,
      "type": "SCALAR",
      "bufferView": 0,
      "byteOffset": 0,
      "byteType": 1413,
      "count": 53
    },
    {
      "componentType": 5126,
      "type": "VEC3",
      "bufferView": 1,
      "byteOffset": 0,
      "byteType": 1067,
      "count": 6,
      "min": [
        -0.74999988079071,
        -0.0500000417232513,
        0.0
      ],
      "max": [
        0.75000011920929,
        0.0500000268220901,
        1.50000047683716
      ]
    },
    {
      "componentType": 5126,
      "type": "VEC3",
      "bufferView": 2,
      "byteOffset": 0,
      "byteType": 1564,
      "count": 47
    },
    {
      "componentType": 5126,
      "type": "VEC4",
      "bufferView": 3,
      "byteOffset": 0,
      "byteType": 1586,
      "count": 24
    },
    {
      "componentType": 5126,
      "type": "VEC2",
      "bufferView": 4,
      "byteOffset": 0,
      "byteType": 1554,
      "count": 36
    },
    {
      "componentType": 5126,
      "type": "VEC2",
      "bufferView": 5,
      "byteOffset": 0,
      "byteType": 895,
      "count": 11
    },
    {
      "componentType": 5123,
      "type": "SCALAR",
      "bufferView": 6,
      "byteOffset": 0,
      "byteType": 604,
      "count": 20
    },
    {
      "componentType": 5126,
      "type": "VEC3",
      "bufferView": 7,
      "byteOffset": 0,
      "byteType": 1402,
      "count": 8,
      "min": [
        -0.74999988079071,
        -0.0800000429153442,
        5.96046447753906E-08
      ],
      "max": [
        0.75000011920929,
        -0.0599998235702515,
        1.5
      ]
    },
    {
      "componentType": 5126,
      "type": "VEC3",
      "bufferView": 8,
      "byteOffset": 0,
      "byteType": 852,
      "count": 27
    },
    {
      "componentType": 5126,
      "type": "VEC4",
      "bufferView": 9,
      "byteOffset": 0,
      "byteType": 1406,
      "count": 8
    },
    {
      "componentType": 5126,
      "type": "VEC2",
      "bufferView": 10,
      "byteOffset": 0,
      "byteType": 1688,
      "count": 16
    },
    {
      "componentType": 5126,
      "type": "VEC2",
      "bufferView": 11,
      "byteOffset": 0,
      "byteType": 492,
      "count": 8
    }
  ],
  "nodes": [
    {
      "name": "RootNode",
      "translation": [
        0.0,
        0.0,
        0.0
      ],
      "rotation": [
        0.0,
        0.0,
        0.0,
        1.0
      ],
      "scale": [
        1.0,
        1.0,
        1.0
      ],
      "children": [
        1
      ]
    },
    {
      "name": "body",
      "translation": [
        0.0,
        0.0,
        0.0
      ],
      "rotation": [
        -0.70710676908493,
        0.0,
        0.0,
        0.70710676908493
      ],
      "scale": [
        1.0,
        1.0,
        1.0
      ],
      "children": [
        2
      ]
    },
    {
      "name": "Box001",
      "translation": [
        0.0,
        0.0,
        0.0
      ],
      "rotation": [
        0.0,
        0.0,
        0.0,
        1.0
      ],
      "scale": [
        1.0,
        1.0,
        1.0
      ],
      "mesh": 0
    }
  ],
  "asset": {
    "generator": "FBX2glTF",
    "version": "2.0"
  },
  "scene": 0,
  "scenes": [
    {
      "name": "Root Scene",
      "nodes": [
        0
      ]
    }
  ],
  "samplers": [
    {}
  ]
}
