{
  "materials": [
    {
      "name": "WindpwOfBangonglouXinBangonglou.bmp",
      "occlusionTexture": {
        "index": 0,
        "texCoord": 1
      },
      "pbrMetallicRoughness": {
        "baseColorTexture": {
          "index": 1,
          "texCoord": 0
        },
        "baseColorFactor": [
          1.0,
          1.0,
          1.0,
          1.0
        ],
        "metallicFactor": 0,
        "roughnessFactor": 1
      },
      "alphaMode": "OPAQUE"
    },
    {
      "name": "xa021XinBangonglou.bmp",
      "occlusionTexture": {
        "index": 0,
        "texCoord": 1
      },
      "pbrMetallicRoughness": {
        "baseColorTexture": {
          "index": 2,
          "texCoord": 0
        },
        "baseColorFactor": [
          1.0,
          1.0,
          1.0,
          1.0
        ],
        "metallicFactor": 0,
        "roughnessFactor": 1
      },
      "alphaMode": "OPAQUE"
    },
    {
      "name": "储备粮底墙XinBangonglou.bmp",
      "occlusionTexture": {
        "index": 0,
        "texCoord": 1
      },
      "pbrMetallicRoughness": {
        "baseColorTexture": {
          "index": 3,
          "texCoord": 0
        },
        "baseColorFactor": [
          1.0,
          1.0,
          1.0,
          1.0
        ],
        "metallicFactor": 0,
        "roughnessFactor": 1
      },
      "alphaMode": "OPAQUE"
    },
    {
      "name": "OfficeWallXinBangonglou.bmp",
      "occlusionTexture": {
        "index": 0,
        "texCoord": 1
      },
      "pbrMetallicRoughness": {
        "baseColorTexture": {
          "index": 4,
          "texCoord": 0
        },
        "baseColorFactor": [
          1.0,
          1.0,
          1.0,
          1.0
        ],
        "metallicFactor": 0,
        "roughnessFactor": 1
      },
      "alphaMode": "OPAQUE"
    }
  ],
  "images": [
    {
      "uri": "YZ1IG8Z1CT00IAN81M820PF88GWT2OEZ7.jpg"
    },
    {
      "uri": "G7W1E87UC81SY987TFNYUDFDIG7Y257U0.jpg"
    },
    {
      "uri": "QEWN8TZ0VMZ87DHTVE97S4J0U2FNCTON1.jpg"
    },
    {
      "uri": "O7YUCUJWI1Y7QNAD0XA28IZZUOZT0X16C.jpg"
    },
    {
      "uri": "TO72CQ1CYQD6CTWNOPOYNPT1WCEDO2H26.jpg"
    }
  ],
  "textures": [
    {
      "name": "XinBangonglou_f_bmp.jpg",
      "sampler": 0,
      "source": 0
    },
    {
      "name": "WindpwOfBangonglou.jpg",
      "sampler": 0,
      "source": 1
    },
    {
      "name": "Roof水泥.jpg",
      "sampler": 0,
      "source": 2
    },
    {
      "name": "储备粮底墙.jpg",
      "sampler": 0,
      "source": 3
    },
    {
      "name": "OfficeWall.jpg",
      "sampler": 0,
      "source": 4
    }
  ],
  "meshes": [
    {
      "name": "XinBangonglou",
      "primitives": [
        {
          "material": 0,
          "mode": 4,
          "indices": 0,
          "attributes": {
            "COLOR_0": 3,
            "NORMAL": 2,
            "POSITION": 1,
            "TEXCOORD_0": 4,
            "TEXCOORD_1": 5
          }
        },
        {
          "material": 1,
          "mode": 4,
          "indices": 6,
          "attributes": {
            "COLOR_0": 9,
            "NORMAL": 8,
            "POSITION": 7,
            "TEXCOORD_0": 10,
            "TEXCOORD_1": 11
          }
        },
        {
          "material": 2,
          "mode": 4,
          "indices": 12,
          "attributes": {
            "COLOR_0": 15,
            "NORMAL": 14,
            "POSITION": 13,
            "TEXCOORD_0": 16,
            "TEXCOORD_1": 17
          }
        },
        {
          "material": 3,
          "mode": 4,
          "indices": 18,
          "attributes": {
            "COLOR_0": 21,
            "NORMAL": 20,
            "POSITION": 19,
            "TEXCOORD_0": 22,
            "TEXCOORD_1": 23
          }
        }
      ]
    }
  ],
  "buffers": [
    {
      "byteLength": 12063,
      "uri": "P17CNCTPUPE6SDQTOD806DH6QP1WUMWW7.bin"
    }
  ],
  "bufferViews": [
    {
      "buffer": 0,
      "target": 34963,
      "byteLength": 304,
      "byteOffset": 0
    },
    {
      "buffer": 0,
      "target": 34962,
      "byteLength": 816,
      "byteOffset": 416
    },
    {
      "buffer": 0,
      "target": 34962,
      "byteLength": 1080,
      "byteOffset": 1232
    },
    {
      "buffer": 0,
      "target": 34962,
      "byteLength": 1088,
      "byteOffset": 2356
    },
    {
      "buffer": 0,
      "target": 34962,
      "byteLength": 720,
      "byteOffset": 3444
    },
    {
      "buffer": 0,
      "target": 34962,
      "byteLength": 544,
      "byteOffset": 4164
    },
    {
      "buffer": 0,
      "target": 34963,
      "byteLength": 70,
      "byteOffset": 4708
    },
    {
      "buffer": 0,
      "target": 34962,
      "byteLength": 120,
      "byteOffset": 4888
    },
    {
      "buffer": 0,
      "target": 34962,
      "byteLength": 252,
      "byteOffset": 4876
    },
    {
      "buffer": 0,
      "target": 34962,
      "byteLength": 160,
      "byteOffset": 5172
    },
    {
      "buffer": 0,
      "target": 34962,
      "byteLength": 168,
      "byteOffset": 5156
    },
    {
      "buffer": 0,
      "target": 34962,
      "byteLength": 80,
      "byteOffset": 5324
    },
    {
      "buffer": 0,
      "target": 34963,
      "byteLength": 34,
      "byteOffset": 5316
    },
    {
      "buffer": 0,
      "target": 34962,
      "byteLength": 48,
      "byteOffset": 5460
    },
    {
      "buffer": 0,
      "target": 34962,
      "byteLength": 180,
      "byteOffset": 5376
    },
    {
      "buffer": 0,
      "target": 34962,
      "byteLength": 64,
      "byteOffset": 5600
    },
    {
      "buffer": 0,
      "target": 34962,
      "byteLength": 120,
      "byteOffset": 5488
    },
    {
      "buffer": 0,
      "target": 34962,
      "byteLength": 32,
      "byteOffset": 5608
    },
    {
      "buffer": 0,
      "target": 34963,
      "byteLength": 382,
      "byteOffset": 5552
    },
    {
      "buffer": 0,
      "target": 34962,
      "byteLength": 972,
      "byteOffset": 6044
    },
    {
      "buffer": 0,
      "target": 34962,
      "byteLength": 1236,
      "byteOffset": 7016
    },
    {
      "buffer": 0,
      "target": 34962,
      "byteLength": 1296,
      "byteOffset": 8296
    },
    {
      "buffer": 0,
      "target": 34962,
      "byteLength": 824,
      "byteOffset": 9592
    },
    {
      "buffer": 0,
      "target": 34962,
      "byteLength": 648,
      "byteOffset": 10416
    }
  ],
  "accessors": [
    {
      "componentType": 5123,
      "type": "SCALAR",
      "bufferView": 0,
      "byteOffset": 0,
      "byteType": 1649,
      "count": 152
    },
    {
      "componentType": 5126,
      "type": "VEC3",
      "bufferView": 1,
      "byteOffset": 0,
      "byteType": 1137,
      "count": 68,
      "min": [
        -7.62958097457886,
        -31.4061260223389,
        0.0
      ],
      "max": [
        7.62958097457886,
        31.4061260223389,
        10.5573606491089
      ]
    },
    {
      "componentType": 5126,
      "type": "VEC3",
      "bufferView": 2,
      "byteOffset": 0,
      "byteType": 1238,
      "count": 90
    },
    {
      "componentType": 5126,
      "type": "VEC4",
      "bufferView": 3,
      "byteOffset": 0,
      "byteType": 1775,
      "count": 68
    },
    {
      "componentType": 5126,
      "type": "VEC2",
      "bufferView": 4,
      "byteOffset": 0,
      "byteType": 1719,
      "count": 90
    },
    {
      "componentType": 5126,
      "type": "VEC2",
      "bufferView": 5,
      "byteOffset": 0,
      "byteType": 603,
      "count": 68
    },
    {
      "componentType": 5123,
      "type": "SCALAR",
      "bufferView": 6,
      "byteOffset": 0,
      "byteType": 369,
      "count": 35
    },
    {
      "componentType": 5126,
      "type": "VEC3",
      "bufferView": 7,
      "byteOffset": 0,
      "byteType": 594,
      "count": 10,
      "min": [
        -7.31551933288574,
        -31.0920600891113,
        11.7772998809814
      ],
      "max": [
        7.3155198097229,
        31.0920600891113,
        11.7773017883301
      ]
    },
    {
      "componentType": 5126,
      "type": "VEC3",
      "bufferView": 8,
      "byteOffset": 0,
      "byteType": 273,
      "count": 21
    },
    {
      "componentType": 5126,
      "type": "VEC4",
      "bufferView": 9,
      "byteOffset": 0,
      "byteType": 338,
      "count": 10
    },
    {
      "componentType": 5126,
      "type": "VEC2",
      "bufferView": 10,
      "byteOffset": 0,
      "byteType": 301,
      "count": 21
    },
    {
      "componentType": 5126,
      "type": "VEC2",
      "bufferView": 11,
      "byteOffset": 0,
      "byteType": 1606,
      "count": 10
    },
    {
      "componentType": 5123,
      "type": "SCALAR",
      "bufferView": 12,
      "byteOffset": 0,
      "byteType": 255,
      "count": 17
    },
    {
      "componentType": 5126,
      "type": "VEC3",
      "bufferView": 13,
      "byteOffset": 0,
      "byteType": 256,
      "count": 4,
      "min": [
        -6.84442758560181,
        -6.99473333358765,
        1.9073486328125E-06
      ],
      "max": [
        -6.84442758560181,
        23.544095993042,
        4.54048347473145
      ]
    },
    {
      "componentType": 5126,
      "type": "VEC3",
      "bufferView": 14,
      "byteOffset": 0,
      "byteType": 1930,
      "count": 15
    },
    {
      "componentType": 5126,
      "type": "VEC4",
      "bufferView": 15,
      "byteOffset": 0,
      "byteType": 826,
      "count": 4
    },
    {
      "componentType": 5126,
      "type": "VEC2",
      "bufferView": 16,
      "byteOffset": 0,
      "byteType": 1704,
      "count": 15
    },
    {
      "componentType": 5126,
      "type": "VEC2",
      "bufferView": 17,
      "byteOffset": 0,
      "byteType": 294,
      "count": 4
    },
    {
      "componentType": 5123,
      "type": "SCALAR",
      "bufferView": 18,
      "byteOffset": 0,
      "byteType": 1140,
      "count": 191
    },
    {
      "componentType": 5126,
      "type": "VEC3",
      "bufferView": 19,
      "byteOffset": 0,
      "byteType": 253,
      "count": 81,
      "min": [
        -7.6295804977417,
        -31.4061222076416,
        10.5573606491089
      ],
      "max": [
        7.62958002090454,
        31.4061222076416,
        12.5624542236328
      ]
    },
    {
      "componentType": 5126,
      "type": "VEC3",
      "bufferView": 20,
      "byteOffset": 0,
      "byteType": 1218,
      "count": 103
    },
    {
      "componentType": 5126,
      "type": "VEC4",
      "bufferView": 21,
      "byteOffset": 0,
      "byteType": 1283,
      "count": 81
    },
    {
      "componentType": 5126,
      "type": "VEC2",
      "bufferView": 22,
      "byteOffset": 0,
      "byteType": 370,
      "count": 103
    },
    {
      "componentType": 5126,
      "type": "VEC2",
      "bufferView": 23,
      "byteOffset": 0,
      "byteType": 719,
      "count": 81
    }
  ],
  "nodes": [
    {
      "name": "RootNode",
      "translation": [
        0.0,
        0.0,
        0.0
      ],
      "rotation": [
        0.0,
        0.0,
        0.0,
        1.0
      ],
      "scale": [
        1.0,
        1.0,
        1.0
      ],
      "children": [
        1
      ]
    },
    {
      "name": "XinBangonglou",
      "translation": [
        3.57627868652344E-06,
        0.0,
        -4.76837158203125E-07
      ],
      "rotation": [
        -0.70710676908493,
        0.0,
        0.0,
        0.70710676908493
      ],
      "scale": [
        1.0,
        1.0,
        1.0
      ],
      "mesh": 0
    }
  ],
  "asset": {
    "generator": "FBX2glTF",
    "version": "2.0"
  },
  "scene": 0,
  "scenes": [
    {
      "name": "Root Scene",
      "nodes": [
        0
      ]
    }
  ],
  "samplers": [
    {}
  ]
}
