{
  "materials": [
    {
      "name": "Standard_17_alpha",
      "pbrMetallicRoughness": {
        "baseColorTexture": {
          "index": 0,
          "texCoord": 0
        },
        "baseColorFactor": [
          1.0,
          1.0,
          1.0,
          1.0
        ],
        "metallicFactor": 0.299999982,
        "roughnessFactor": 0.700000048
      },
      "alphaMode": "BLEND"
    }
  ],
  "images": [
    {
      "uri": "RQTI2HYQGUWT6GE12E702OUN643DIQE8K.png"
    }
  ],
  "textures": [
    {
      "name": "door_mesh.png",
      "sampler": 0,
      "source": 0
    }
  ],
  "meshes": [
    {
      "name": "meshframe",
      "primitives": [
        {
          "material": 0,
          "mode": 4,
          "indices": 4,
          "attributes": {
            "NORMAL": 6,
            "POSITION": 5,
            "TEXCOORD_0": 7,
            "TEXCOORD_1": 8
          }
        }
      ]
    },
    {
      "name": "mesh",
      "primitives": [
        {
          "material": 0,
          "mode": 4,
          "indices": 9,
          "attributes": {
            "NORMAL": 11,
            "POSITION": 10,
            "TEXCOORD_0": 12,
            "TEXCOORD_1": 13
          }
        }
      ]
    }
  ],
  "buffers": [
    {
      "byteLength": 4847,
      "uri": "CJTICT8WQ1J7OWT6NYFJO2Q0CTT1829Z1.bin"
    }
  ],
  "bufferViews": [
    {
      "buffer": 0,
      "byteLength": 76,
      "byteOffset": 0
    },
    {
      "buffer": 0,
      "byteLength": 128,
      "byteOffset": 224
    },
    {
      "buffer": 0,
      "byteLength": 132,
      "byteOffset": 160
    },
    {
      "buffer": 0,
      "byteLength": 160,
      "byteOffset": 584
    },
    {
      "buffer": 0,
      "target": 34963,
      "byteLength": 232,
      "byteOffset": 360
    },
    {
      "buffer": 0,
      "target": 34962,
      "byteLength": 564,
      "byteOffset": 684
    },
    {
      "buffer": 0,
      "target": 34962,
      "byteLength": 732,
      "byteOffset": 1248
    },
    {
      "buffer": 0,
      "target": 34962,
      "byteLength": 400,
      "byteOffset": 1968
    },
    {
      "buffer": 0,
      "target": 34962,
      "byteLength": 600,
      "byteOffset": 2368
    },
    {
      "buffer": 0,
      "target": 34963,
      "byteLength": 32,
      "byteOffset": 2856
    },
    {
      "buffer": 0,
      "target": 34962,
      "byteLength": 372,
      "byteOffset": 2888
    },
    {
      "buffer": 0,
      "target": 34962,
      "byteLength": 192,
      "byteOffset": 3272
    },
    {
      "buffer": 0,
      "target": 34962,
      "byteLength": 320,
      "byteOffset": 3464
    },
    {
      "buffer": 0,
      "target": 34962,
      "byteLength": 112,
      "byteOffset": 3736
    }
  ],
  "accessors": [
    {
      "componentType": 5126,
      "type": "SCALAR",
      "bufferView": 0,
      "byteOffset": 0,
      "byteType": 869,
      "count": 19,
      "min": [
        0.0
      ],
      "max": [
        0.291666656732559
      ]
    },
    {
      "componentType": 5126,
      "type": "VEC4",
      "bufferView": 1,
      "byteOffset": 0,
      "byteType": 1618,
      "count": 8
    },
    {
      "componentType": 5126,
      "type": "SCALAR",
      "bufferView": 2,
      "byteOffset": 0,
      "byteType": 1414,
      "count": 33,
      "min": [
        -0.0416663289070129
      ],
      "max": [
        0.333333700895309
      ]
    },
    {
      "componentType": 5126,
      "type": "VEC4",
      "bufferView": 3,
      "byteOffset": 0,
      "byteType": 632,
      "count": 10
    },
    {
      "componentType": 5123,
      "type": "SCALAR",
      "bufferView": 4,
      "byteOffset": 0,
      "byteType": 1505,
      "count": 116
    },
    {
      "componentType": 5126,
      "type": "VEC3",
      "bufferView": 5,
      "byteOffset": 0,
      "byteType": 521,
      "count": 47,
      "min": [
        -1.75,
        0.0,
        -0.0450015254318714
      ],
      "max": [
        1.75,
        3.0,
        0.0450010411441326
      ]
    },
    {
      "componentType": 5126,
      "type": "VEC3",
      "bufferView": 6,
      "byteOffset": 0,
      "byteType": 1355,
      "count": 61
    },
    {
      "componentType": 5126,
      "type": "VEC2",
      "bufferView": 7,
      "byteOffset": 0,
      "byteType": 303,
      "count": 50
    },
    {
      "componentType": 5126,
      "type": "VEC2",
      "bufferView": 8,
      "byteOffset": 0,
      "byteType": 887,
      "count": 75
    },
    {
      "componentType": 5123,
      "type": "SCALAR",
      "bufferView": 9,
      "byteOffset": 0,
      "byteType": 1427,
      "count": 16
    },
    {
      "componentType": 5126,
      "type": "VEC3",
      "bufferView": 10,
      "byteOffset": 0,
      "byteType": 701,
      "count": 31,
      "min": [
        0.0,
        -0.952499985694885,
        -0.0450012758374214
      ],
      "max": [
        0.824891567230225,
        0.952499985694885,
        0.0450012758374214
      ]
    },
    {
      "componentType": 5126,
      "type": "VEC3",
      "bufferView": 11,
      "byteOffset": 0,
      "byteType": 1147,
      "count": 16
    },
    {
      "componentType": 5126,
      "type": "VEC2",
      "bufferView": 12,
      "byteOffset": 0,
      "byteType": 1349,
      "count": 40
    },
    {
      "componentType": 5126,
      "type": "VEC2",
      "bufferView": 13,
      "byteOffset": 0,
      "byteType": 361,
      "count": 14
    }
  ],
  "nodes": [
    {
      "name": "RootNode",
      "translation": [
        0.0,
        0.0,
        0.0
      ],
      "rotation": [
        0.0,
        0.0,
        0.0,
        1.0
      ],
      "scale": [
        1.0,
        1.0,
        1.0
      ],
      "children": [
        1,
        2
      ]
    },
    {
      "name": "meshframe",
      "translation": [
        0.0,
        0.0,
        0.0
      ],
      "rotation": [
        8.14603424714733E-08,
        0.0,
        0.0,
        1.0
      ],
      "scale": [
        1.0,
        1.0,
        0.5
      ],
      "mesh": 0
    },
    {
      "name": "mesh",
      "translation": [
        -0.412445783615112,
        0.952499985694885,
        1.52736902236938E-07
      ],
      "rotation": [
        8.14603424714733E-08,
        0.0,
        0.0,
        1.0
      ],
      "scale": [
        1.0,
        1.0,
        0.5
      ],
      "mesh": 1
    }
  ],
  "asset": {
    "generator": "FBX2glTF",
    "version": "2.0"
  },
  "scene": 0,
  "scenes": [
    {
      "name": "Root Scene",
      "nodes": [
        0
      ]
    }
  ],
  "samplers": [
    {}
  ],
  "animations": [
    {
      "name": "Auto_Open",
      "channels": [
        {
          "sampler": 0,
          "target": {
            "node": 2,
            "path": "rotation"
          }
        }
      ],
      "samplers": [
        {
          "input": 0,
          "interpolation": "LINEAR",
          "output": 1
        }
      ]
    },
    {
      "name": "Auto_Close",
      "channels": [
        {
          "sampler": 0,
          "target": {
            "node": 2,
            "path": "rotation"
          }
        }
      ],
      "samplers": [
        {
          "input": 2,
          "interpolation": "LINEAR",
          "output": 3
        }
      ]
    }
  ]
}
