{
  "materials": [
    {
      "name": "Standard_17_alpha",
      "pbrMetallicRoughness": {
        "baseColorTexture": {
          "index": 0,
          "texCoord": 0
        },
        "baseColorFactor": [
          1.0,
          1.0,
          1.0,
          1.0
        ],
        "metallicFactor": 0.299999982,
        "roughnessFactor": 0.700000048
      },
      "alphaMode": "BLEND"
    },
    {
      "name": "0022_alpha",
      "pbrMetallicRoughness": {
        "baseColorTexture": {
          "index": 1,
          "texCoord": 0
        },
        "baseColorFactor": [
          1.0,
          1.0,
          1.0,
          1.0
        ],
        "metallicFactor": 0,
        "roughnessFactor": 1
      },
      "alphaMode": "BLEND"
    },
    {
      "name": "meshhh_alpha",
      "pbrMetallicRoughness": {
        "baseColorTexture": {
          "index": 2,
          "texCoord": 0
        },
        "baseColorFactor": [
          1.0,
          1.0,
          1.0,
          1.0
        ],
        "metallicFactor": 0,
        "roughnessFactor": 1
      },
      "alphaMode": "BLEND"
    }
  ],
  "images": [
    {
      "uri": "26M1UCIA62MQ6S53U01EUJ2YQ4WD1ZSP8.png"
    },
    {
      "uri": "NKCUTCG9774J3PII9NNTWZCEUT8TQDO28.png"
    },
    {
      "uri": "0K3YW72CHYCE9YC5E7S4Q4OC7JSTF87XZ.png"
    }
  ],
  "textures": [
    {
      "name": "door_mesh.png",
      "sampler": 0,
      "source": 0
    },
    {
      "name": "door_mesh02.png",
      "sampler": 0,
      "source": 1
    },
    {
      "name": "Jianqumen000.png",
      "sampler": 0,
      "source": 2
    }
  ],
  "meshes": [
    {
      "name": "meshframe001",
      "primitives": [
        {
          "material": 0,
          "mode": 4,
          "indices": 6,
          "attributes": {
            "NORMAL": 8,
            "POSITION": 7,
            "TEXCOORD_0": 9,
            "TEXCOORD_1": 10
          }
        },
        {
          "material": 1,
          "mode": 4,
          "indices": 21,
          "attributes": {
            "NORMAL": 23,
            "POSITION": 22,
            "TEXCOORD_0": 24,
            "TEXCOORD_1": 25
          }
        }
      ]
    },
    {
      "name": "mesh",
      "primitives": [
        {
          "material": 0,
          "mode": 4,
          "indices": 11,
          "attributes": {
            "NORMAL": 13,
            "POSITION": 12,
            "TEXCOORD_0": 14,
            "TEXCOORD_1": 15
          }
        }
      ]
    },
    {
      "name": "mesh001",
      "primitives": [
        {
          "material": 0,
          "mode": 4,
          "indices": 16,
          "attributes": {
            "NORMAL": 18,
            "POSITION": 17,
            "TEXCOORD_0": 19,
            "TEXCOORD_1": 20
          }
        },
        {
          "material": 2,
          "mode": 4,
          "indices": 26,
          "attributes": {
            "NORMAL": 28,
            "POSITION": 27,
            "TEXCOORD_0": 29,
            "TEXCOORD_1": 30
          }
        }
      ]
    }
  ],
  "buffers": [
    {
      "byteLength": 15399,
      "uri": "UCIO2SPHZ37RTW0DZ7V5J2NIW8QTEYW51.bin"
    }
  ],
  "bufferViews": [
    {
      "buffer": 0,
      "byteLength": 100,
      "byteOffset": 0
    },
    {
      "buffer": 0,
      "byteLength": 128,
      "byteOffset": 320
    },
    {
      "buffer": 0,
      "byteLength": 480,
      "byteOffset": 160
    },
    {
      "buffer": 0,
      "byteLength": 40,
      "byteOffset": 380
    },
    {
      "buffer": 0,
      "byteLength": 400,
      "byteOffset": 328
    },
    {
      "buffer": 0,
      "byteLength": 160,
      "byteOffset": 744
    },
    {
      "buffer": 0,
      "target": 34963,
      "byteLength": 772,
      "byteOffset": 648
    },
    {
      "buffer": 0,
      "target": 34962,
      "byteLength": 1692,
      "byteOffset": 1452
    },
    {
      "buffer": 0,
      "target": 34962,
      "byteLength": 1776,
      "byteOffset": 3144
    },
    {
      "buffer": 0,
      "target": 34962,
      "byteLength": 1112,
      "byteOffset": 4912
    },
    {
      "buffer": 0,
      "target": 34962,
      "byteLength": 1248,
      "byteOffset": 6024
    },
    {
      "buffer": 0,
      "target": 34963,
      "byteLength": 46,
      "byteOffset": 7202
    },
    {
      "buffer": 0,
      "target": 34962,
      "byteLength": 420,
      "byteOffset": 7248
    },
    {
      "buffer": 0,
      "target": 34962,
      "byteLength": 228,
      "byteOffset": 7596
    },
    {
      "buffer": 0,
      "target": 34962,
      "byteLength": 232,
      "byteOffset": 7824
    },
    {
      "buffer": 0,
      "target": 34962,
      "byteLength": 144,
      "byteOffset": 8064
    },
    {
      "buffer": 0,
      "target": 34963,
      "byteLength": 110,
      "byteOffset": 8208
    },
    {
      "buffer": 0,
      "target": 34962,
      "byteLength": 48,
      "byteOffset": 8520
    },
    {
      "buffer": 0,
      "target": 34962,
      "byteLength": 576,
      "byteOffset": 8568
    },
    {
      "buffer": 0,
      "target": 34962,
      "byteLength": 192,
      "byteOffset": 9056
    },
    {
      "buffer": 0,
      "target": 34962,
      "byteLength": 272,
      "byteOffset": 9048
    },
    {
      "buffer": 0,
      "target": 34963,
      "byteLength": 98,
      "byteOffset": 9262
    },
    {
      "buffer": 0,
      "target": 34962,
      "byteLength": 528,
      "byteOffset": 9360
    },
    {
      "buffer": 0,
      "target": 34962,
      "byteLength": 420,
      "byteOffset": 9900
    },
    {
      "buffer": 0,
      "target": 34962,
      "byteLength": 368,
      "byteOffset": 10320
    },
    {
      "buffer": 0,
      "target": 34962,
      "byteLength": 264,
      "byteOffset": 10696
    },
    {
      "buffer": 0,
      "target": 34963,
      "byteLength": 268,
      "byteOffset": 10960
    },
    {
      "buffer": 0,
      "target": 34962,
      "byteLength": 864,
      "byteOffset": 11296
    },
    {
      "buffer": 0,
      "target": 34962,
      "byteLength": 1032,
      "byteOffset": 12160
    },
    {
      "buffer": 0,
      "target": 34962,
      "byteLength": 584,
      "byteOffset": 13176
    },
    {
      "buffer": 0,
      "target": 34962,
      "byteLength": 696,
      "byteOffset": 13760
    }
  ],
  "accessors": [
    {
      "componentType": 5126,
      "type": "SCALAR",
      "bufferView": 0,
      "byteOffset": 0,
      "byteType": 529,
      "count": 25,
      "min": [
        0.0
      ],
      "max": [
        0.291666656732559
      ]
    },
    {
      "componentType": 5126,
      "type": "VEC4",
      "bufferView": 1,
      "byteOffset": 0,
      "byteType": 970,
      "count": 8
    },
    {
      "componentType": 5126,
      "type": "VEC4",
      "bufferView": 2,
      "byteOffset": 0,
      "byteType": 968,
      "count": 30
    },
    {
      "componentType": 5126,
      "type": "SCALAR",
      "bufferView": 3,
      "byteOffset": 0,
      "byteType": 1060,
      "count": 10,
      "min": [
        -0.0416663289070129
      ],
      "max": [
        0.333333700895309
      ]
    },
    {
      "componentType": 5126,
      "type": "VEC4",
      "bufferView": 4,
      "byteOffset": 0,
      "byteType": 503,
      "count": 25
    },
    {
      "componentType": 5126,
      "type": "VEC4",
      "bufferView": 5,
      "byteOffset": 0,
      "byteType": 1814,
      "count": 10
    },
    {
      "componentType": 5123,
      "type": "SCALAR",
      "bufferView": 6,
      "byteOffset": 0,
      "byteType": 1751,
      "count": 386
    },
    {
      "componentType": 5126,
      "type": "VEC3",
      "bufferView": 7,
      "byteOffset": 0,
      "byteType": 1593,
      "count": 141,
      "min": [
        -2.03273415565491,
        -0.0225010309368372,
        0.0
      ],
      "max": [
        2.03273391723633,
        0.0225010812282562,
        3.0
      ]
    },
    {
      "componentType": 5126,
      "type": "VEC3",
      "bufferView": 8,
      "byteOffset": 0,
      "byteType": 1342,
      "count": 148
    },
    {
      "componentType": 5126,
      "type": "VEC2",
      "bufferView": 9,
      "byteOffset": 0,
      "byteType": 393,
      "count": 139
    },
    {
      "componentType": 5126,
      "type": "VEC2",
      "bufferView": 10,
      "byteOffset": 0,
      "byteType": 985,
      "count": 156
    },
    {
      "componentType": 5123,
      "type": "SCALAR",
      "bufferView": 11,
      "byteOffset": 0,
      "byteType": 339,
      "count": 23
    },
    {
      "componentType": 5126,
      "type": "VEC3",
      "bufferView": 12,
      "byteOffset": 0,
      "byteType": 865,
      "count": 35,
      "min": [
        0.0,
        -0.02250075340271,
        -0.95250004529953
      ],
      "max": [
        1.14087080955505,
        0.0225006937980652,
        0.95250004529953
      ]
    },
    {
      "componentType": 5126,
      "type": "VEC3",
      "bufferView": 13,
      "byteOffset": 0,
      "byteType": 501,
      "count": 19
    },
    {
      "componentType": 5126,
      "type": "VEC2",
      "bufferView": 14,
      "byteOffset": 0,
      "byteType": 1686,
      "count": 29
    },
    {
      "componentType": 5126,
      "type": "VEC2",
      "bufferView": 15,
      "byteOffset": 0,
      "byteType": 1367,
      "count": 18
    },
    {
      "componentType": 5123,
      "type": "SCALAR",
      "bufferView": 16,
      "byteOffset": 0,
      "byteType": 1219,
      "count": 55
    },
    {
      "componentType": 5126,
      "type": "VEC3",
      "bufferView": 17,
      "byteOffset": 0,
      "byteType": 815,
      "count": 4,
      "min": [
        -1.14087092876434,
        -0.022500878199935,
        -0.952499985694885
      ],
      "max": [
        0.0,
        0.0225006509572268,
        0.952499985694885
      ]
    },
    {
      "componentType": 5126,
      "type": "VEC3",
      "bufferView": 18,
      "byteOffset": 0,
      "byteType": 252,
      "count": 48
    },
    {
      "componentType": 5126,
      "type": "VEC2",
      "bufferView": 19,
      "byteOffset": 0,
      "byteType": 974,
      "count": 24
    },
    {
      "componentType": 5126,
      "type": "VEC2",
      "bufferView": 20,
      "byteOffset": 0,
      "byteType": 378,
      "count": 34
    },
    {
      "componentType": 5123,
      "type": "SCALAR",
      "bufferView": 21,
      "byteOffset": 0,
      "byteType": 1267,
      "count": 49
    },
    {
      "componentType": 5126,
      "type": "VEC3",
      "bufferView": 22,
      "byteOffset": 0,
      "byteType": 1692,
      "count": 44,
      "min": [
        -1.98347389698029,
        -0.0225010123103857,
        0.0473045110702515
      ],
      "max": [
        1.98347425460815,
        0.0225010626018047,
        2.95645046234131
      ]
    },
    {
      "componentType": 5126,
      "type": "VEC3",
      "bufferView": 23,
      "byteOffset": 0,
      "byteType": 1973,
      "count": 35
    },
    {
      "componentType": 5126,
      "type": "VEC2",
      "bufferView": 24,
      "byteOffset": 0,
      "byteType": 1937,
      "count": 46
    },
    {
      "componentType": 5126,
      "type": "VEC2",
      "bufferView": 25,
      "byteOffset": 0,
      "byteType": 597,
      "count": 33
    },
    {
      "componentType": 5123,
      "type": "SCALAR",
      "bufferView": 26,
      "byteOffset": 0,
      "byteType": 816,
      "count": 134
    },
    {
      "componentType": 5126,
      "type": "VEC3",
      "bufferView": 27,
      "byteOffset": 0,
      "byteType": 761,
      "count": 72,
      "min": [
        -1.14087104797363,
        -0.032500647008419,
        -0.0442487597465515
      ],
      "max": [
        -0.63917088508606,
        0.032500647008419,
        0.0634647607803345
      ]
    },
    {
      "componentType": 5126,
      "type": "VEC3",
      "bufferView": 28,
      "byteOffset": 0,
      "byteType": 1773,
      "count": 86
    },
    {
      "componentType": 5126,
      "type": "VEC2",
      "bufferView": 29,
      "byteOffset": 0,
      "byteType": 1063,
      "count": 73
    },
    {
      "componentType": 5126,
      "type": "VEC2",
      "bufferView": 30,
      "byteOffset": 0,
      "byteType": 1214,
      "count": 87
    }
  ],
  "nodes": [
    {
      "name": "RootNode",
      "translation": [
        0.0,
        0.0,
        0.0
      ],
      "rotation": [
        0.0,
        0.0,
        0.0,
        1.0
      ],
      "scale": [
        1.0,
        1.0,
        1.0
      ],
      "children": [
        1,
        2,
        3
      ]
    },
    {
      "name": "meshframe001",
      "translation": [
        0.0,
        0.0,
        0.0
      ],
      "rotation": [
        -0.70710676908493,
        0.0,
        0.0,
        0.70710676908493
      ],
      "scale": [
        1.0,
        1.0,
        1.0
      ],
      "mesh": 0
    },
    {
      "name": "mesh",
      "translation": [
        -1.14087092876434,
        0.95249992609024,
        -2.98023223876953E-07
      ],
      "rotation": [
        -0.70710676908493,
        0.0,
        0.0,
        0.70710676908493
      ],
      "scale": [
        1.0,
        1.0,
        1.0
      ],
      "mesh": 1
    },
    {
      "name": "mesh001",
      "translation": [
        1.14087104797363,
        0.952499985694885,
        -1.62050127983093E-07
      ],
      "rotation": [
        -0.70710676908493,
        0.0,
        0.0,
        0.70710676908493
      ],
      "scale": [
        1.0,
        1.0,
        1.0
      ],
      "mesh": 2
    }
  ],
  "asset": {
    "generator": "FBX2glTF",
    "version": "2.0"
  },
  "scene": 0,
  "scenes": [
    {
      "name": "Root Scene",
      "nodes": [
        0
      ]
    }
  ],
  "samplers": [
    {}
  ],
  "animations": [
    {
      "name": "Auto_Open",
      "channels": [
        {
          "sampler": 0,
          "target": {
            "node": 2,
            "path": "rotation"
          }
        },
        {
          "sampler": 1,
          "target": {
            "node": 3,
            "path": "rotation"
          }
        }
      ],
      "samplers": [
        {
          "input": 0,
          "interpolation": "LINEAR",
          "output": 1
        },
        {
          "input": 0,
          "interpolation": "LINEAR",
          "output": 2
        }
      ]
    },
    {
      "name": "Auto_Close",
      "channels": [
        {
          "sampler": 0,
          "target": {
            "node": 2,
            "path": "rotation"
          }
        },
        {
          "sampler": 1,
          "target": {
            "node": 3,
            "path": "rotation"
          }
        }
      ],
      "samplers": [
        {
          "input": 3,
          "interpolation": "LINEAR",
          "output": 4
        },
        {
          "input": 3,
          "interpolation": "LINEAR",
          "output": 5
        }
      ]
    }
  ]
}
