{
  "materials": [
    {
      "name": "window14",
      "pbrMetallicRoughness": {
        "baseColorTexture": {
          "index": 0,
          "texCoord": 0
        },
        "baseColorFactor": [
          1.0,
          1.0,
          1.0,
          1.0
        ],
        "metallicFactor": 0.599999964,
        "roughnessFactor": 0.0
      },
      "alphaMode": "OPAQUE"
    },
    {
      "name": "window04",
      "pbrMetallicRoughness": {
        "baseColorTexture": {
          "index": 1,
          "texCoord": 0
        },
        "baseColorFactor": [
          1.0,
          1.0,
          1.0,
          1.0
        ],
        "metallicFactor": 0.599999964,
        "roughnessFactor": 0.0
      },
      "alphaMode": "OPAQUE"
    },
    {
      "name": "window020",
      "pbrMetallicRoughness": {
        "baseColorTexture": {
          "index": 2,
          "texCoord": 0
        },
        "baseColorFactor": [
          1.0,
          1.0,
          1.0,
          1.0
        ],
        "metallicFactor": 0.599999964,
        "roughnessFactor": 0.0
      },
      "alphaMode": "OPAQUE"
    },
    {
      "name": "bigdoor02",
      "pbrMetallicRoughness": {
        "baseColorTexture": {
          "index": 3,
          "texCoord": 0
        },
        "baseColorFactor": [
          1.0,
          1.0,
          1.0,
          1.0
        ],
        "metallicFactor": 0.599999964,
        "roughnessFactor": 0.0
      },
      "alphaMode": "OPAQUE"
    },
    {
      "name": "RoofshuiniMenWeiShi.bmp",
      "occlusionTexture": {
        "index": 4,
        "texCoord": 1
      },
      "pbrMetallicRoughness": {
        "baseColorTexture": {
          "index": 5,
          "texCoord": 0
        },
        "baseColorFactor": [
          1.0,
          1.0,
          1.0,
          1.0
        ],
        "metallicFactor": 0.099999994,
        "roughnessFactor": 1
      },
      "alphaMode": "OPAQUE",
      "normalTexture": {
        "index": 6,
        "texCoord": 0,
        "scale": 1.66666663
      }
    },
    {
      "name": "xlmy00008MenWeiShi.bmp",
      "occlusionTexture": {
        "index": 4,
        "texCoord": 1
      },
      "pbrMetallicRoughness": {
        "baseColorTexture": {
          "index": 7,
          "texCoord": 0
        },
        "baseColorFactor": [
          1.0,
          1.0,
          1.0,
          1.0
        ],
        "metallicFactor": 0.099999994,
        "roughnessFactor": 1
      },
      "alphaMode": "OPAQUE",
      "normalTexture": {
        "index": 8,
        "texCoord": 0,
        "scale": 0.3333333
      }
    },
    {
      "name": "xlmy00800_greyMenWeiShi.bmp",
      "occlusionTexture": {
        "index": 4,
        "texCoord": 1
      },
      "pbrMetallicRoughness": {
        "baseColorTexture": {
          "index": 9,
          "texCoord": 0
        },
        "baseColorFactor": [
          1.0,
          1.0,
          1.0,
          1.0
        ],
        "metallicFactor": 0.099999994,
        "roughnessFactor": 1
      },
      "alphaMode": "OPAQUE",
      "normalTexture": {
        "index": 8,
        "texCoord": 0,
        "scale": 0.3333333
      }
    }
  ],
  "images": [
    {
      "uri": "842TAYWYQEYVCW6KGEDQ5QZKDQ01IUUQC.jpg"
    },
    {
      "uri": "UJQQENSY7YD2GTPQQ3UNEEJNY76WX32VD.jpg"
    },
    {
      "uri": "986TYZ2U2E6759TITHP8YTTI4JTOXHPST.jpg"
    },
    {
      "uri": "3UWRA004TW6YX377D37CYUWKR74SGAWUD.jpg"
    },
    {
      "uri": "ZP02OU82U12GTNC2YFU2CEUNMF11TE1QT.jpg"
    },
    {
      "uri": "Q70YMJ62RO6KIHD8RUYSXAW2GWPWDJTW5.jpg"
    },
    {
      "uri": "9YOPY781QWW0CAY0RAD8MA46DU1IEE21M.jpg"
    },
    {
      "uri": "11UG1NQYT36OPUJC4H472Q6OX8D7RH26O.jpg"
    },
    {
      "uri": "J4YNYQ28C1TUEU2COO46GTYUXZ0UYEJVO.jpg"
    },
    {
      "uri": "HJV2TWUQJ8U4YQP7G8UWXH2CMZ72PA2NI.jpg"
    }
  ],
  "textures": [
    {
      "name": "window14.jpg",
      "sampler": 0,
      "source": 0
    },
    {
      "name": "window04.jpg",
      "sampler": 0,
      "source": 1
    },
    {
      "name": "window020.jpg",
      "sampler": 0,
      "source": 2
    },
    {
      "name": "bigdoor02.jpg",
      "sampler": 0,
      "source": 3
    },
    {
      "name": "MenWeiShi_f_bmp.jpg",
      "sampler": 0,
      "source": 4
    },
    {
      "name": "Roofshuini.jpg",
      "sampler": 0,
      "source": 5
    },
    {
      "name": "RoofshuiniNOR.jpg",
      "sampler": 0,
      "source": 6
    },
    {
      "name": "xlmy00008.jpg",
      "sampler": 0,
      "source": 7
    },
    {
      "name": "xlmy008_normal2.jpg",
      "sampler": 0,
      "source": 8
    },
    {
      "name": "xlmy00800_grey.jpg",
      "sampler": 0,
      "source": 9
    }
  ],
  "meshes": [
    {
      "name": "duixiang004",
      "primitives": [
        {
          "material": 0,
          "mode": 4,
          "indices": 0,
          "attributes": {
            "COLOR_0": 3,
            "NORMAL": 2,
            "POSITION": 1,
            "TEXCOORD_0": 4,
            "TEXCOORD_1": 5
          }
        },
        {
          "material": 1,
          "mode": 4,
          "indices": 6,
          "attributes": {
            "COLOR_0": 9,
            "NORMAL": 8,
            "POSITION": 7,
            "TEXCOORD_0": 10,
            "TEXCOORD_1": 11
          }
        },
        {
          "material": 2,
          "mode": 4,
          "indices": 12,
          "attributes": {
            "COLOR_0": 15,
            "NORMAL": 14,
            "POSITION": 13,
            "TEXCOORD_0": 16,
            "TEXCOORD_1": 17
          }
        },
        {
          "material": 3,
          "mode": 4,
          "indices": 18,
          "attributes": {
            "COLOR_0": 21,
            "NORMAL": 20,
            "POSITION": 19,
            "TEXCOORD_0": 22,
            "TEXCOORD_1": 23
          }
        }
      ]
    },
    {
      "name": "duixiang005",
      "primitives": [
        {
          "material": 4,
          "mode": 4,
          "indices": 24,
          "attributes": {
            "COLOR_0": 27,
            "NORMAL": 26,
            "POSITION": 25,
            "TEXCOORD_0": 28,
            "TEXCOORD_1": 29
          }
        },
        {
          "material": 5,
          "mode": 4,
          "indices": 30,
          "attributes": {
            "COLOR_0": 33,
            "NORMAL": 32,
            "POSITION": 31,
            "TEXCOORD_0": 34,
            "TEXCOORD_1": 35
          }
        },
        {
          "material": 6,
          "mode": 4,
          "indices": 36,
          "attributes": {
            "COLOR_0": 39,
            "NORMAL": 38,
            "POSITION": 37,
            "TEXCOORD_0": 40,
            "TEXCOORD_1": 41
          }
        }
      ]
    }
  ],
  "buffers": [
    {
      "byteLength": 21643,
      "uri": "811M3TNY28P7QAZUM1DVIO1Q48P8MTU1M.bin"
    }
  ],
  "bufferViews": [
    {
      "buffer": 0,
      "target": 34963,
      "byteLength": 32,
      "byteOffset": 0
    },
    {
      "buffer": 0,
      "target": 34962,
      "byteLength": 36,
      "byteOffset": 84
    },
    {
      "buffer": 0,
      "target": 34962,
      "byteLength": 240,
      "byteOffset": 120
    },
    {
      "buffer": 0,
      "target": 34962,
      "byteLength": 128,
      "byteOffset": 424
    },
    {
      "buffer": 0,
      "target": 34962,
      "byteLength": 168,
      "byteOffset": 344
    },
    {
      "buffer": 0,
      "target": 34962,
      "byteLength": 64,
      "byteOffset": 520
    },
    {
      "buffer": 0,
      "target": 34963,
      "byteLength": 32,
      "byteOffset": 472
    },
    {
      "buffer": 0,
      "target": 34962,
      "byteLength": 48,
      "byteOffset": 616
    },
    {
      "buffer": 0,
      "target": 34962,
      "byteLength": 120,
      "byteOffset": 532
    },
    {
      "buffer": 0,
      "target": 34962,
      "byteLength": 64,
      "byteOffset": 692
    },
    {
      "buffer": 0,
      "target": 34962,
      "byteLength": 112,
      "byteOffset": 644
    },
    {
      "buffer": 0,
      "target": 34962,
      "byteLength": 32,
      "byteOffset": 764
    },
    {
      "buffer": 0,
      "target": 34963,
      "byteLength": 36,
      "byteOffset": 708
    },
    {
      "buffer": 0,
      "target": 34962,
      "byteLength": 48,
      "byteOffset": 792
    },
    {
      "buffer": 0,
      "target": 34962,
      "byteLength": 156,
      "byteOffset": 768
    },
    {
      "buffer": 0,
      "target": 34962,
      "byteLength": 64,
      "byteOffset": 976
    },
    {
      "buffer": 0,
      "target": 34962,
      "byteLength": 80,
      "byteOffset": 880
    },
    {
      "buffer": 0,
      "target": 34962,
      "byteLength": 32,
      "byteOffset": 968
    },
    {
      "buffer": 0,
      "target": 34963,
      "byteLength": 58,
      "byteOffset": 944
    },
    {
      "buffer": 0,
      "target": 34962,
      "byteLength": 108,
      "byteOffset": 1156
    },
    {
      "buffer": 0,
      "target": 34962,
      "byteLength": 204,
      "byteOffset": 1084
    },
    {
      "buffer": 0,
      "target": 34962,
      "byteLength": 144,
      "byteOffset": 1336
    },
    {
      "buffer": 0,
      "target": 34962,
      "byteLength": 168,
      "byteOffset": 1336
    },
    {
      "buffer": 0,
      "target": 34962,
      "byteLength": 72,
      "byteOffset": 1512
    },
    {
      "buffer": 0,
      "target": 34963,
      "byteLength": 82,
      "byteOffset": 1480
    },
    {
      "buffer": 0,
      "target": 34962,
      "byteLength": 48,
      "byteOffset": 1656
    },
    {
      "buffer": 0,
      "target": 34962,
      "byteLength": 300,
      "byteOffset": 1704
    },
    {
      "buffer": 0,
      "target": 34962,
      "byteLength": 112,
      "byteOffset": 1956
    },
    {
      "buffer": 0,
      "target": 34962,
      "byteLength": 160,
      "byteOffset": 2068
    },
    {
      "buffer": 0,
      "target": 34962,
      "byteLength": 40,
      "byteOffset": 2236
    },
    {
      "buffer": 0,
      "target": 34963,
      "byteLength": 910,
      "byteOffset": 2276
    },
    {
      "buffer": 0,
      "target": 34962,
      "byteLength": 2304,
      "byteOffset": 3308
    },
    {
      "buffer": 0,
      "target": 34962,
      "byteLength": 2544,
      "byteOffset": 5612
    },
    {
      "buffer": 0,
      "target": 34962,
      "byteLength": 3120,
      "byteOffset": 8204
    },
    {
      "buffer": 0,
      "target": 34962,
      "byteLength": 1704,
      "byteOffset": 11324
    },
    {
      "buffer": 0,
      "target": 34962,
      "byteLength": 1552,
      "byteOffset": 13036
    },
    {
      "buffer": 0,
      "target": 34963,
      "byteLength": 476,
      "byteOffset": 14588
    },
    {
      "buffer": 0,
      "target": 34962,
      "byteLength": 1068,
      "byteOffset": 15176
    },
    {
      "buffer": 0,
      "target": 34962,
      "byteLength": 1368,
      "byteOffset": 16244
    },
    {
      "buffer": 0,
      "target": 34962,
      "byteLength": 1360,
      "byteOffset": 17684
    },
    {
      "buffer": 0,
      "target": 34962,
      "byteLength": 880,
      "byteOffset": 19044
    },
    {
      "buffer": 0,
      "target": 34962,
      "byteLength": 768,
      "byteOffset": 19876
    }
  ],
  "accessors": [
    {
      "componentType": 5123,
      "type": "SCALAR",
      "bufferView": 0,
      "byteOffset": 0,
      "byteType": 608,
      "count": 16
    },
    {
      "componentType": 5126,
      "type": "VEC3",
      "bufferView": 1,
      "byteOffset": 0,
      "byteType": 499,
      "count": 3,
      "min": [
        -2.10002136230469,
        -2.67500019073486,
        0.999716877937317
      ],
      "max": [
        2.09999084472656,
        -0.8125,
        2.50028347969055
      ]
    },
    {
      "componentType": 5126,
      "type": "VEC3",
      "bufferView": 2,
      "byteOffset": 0,
      "byteType": 1811,
      "count": 20
    },
    {
      "componentType": 5126,
      "type": "VEC4",
      "bufferView": 3,
      "byteOffset": 0,
      "byteType": 1188,
      "count": 8
    },
    {
      "componentType": 5126,
      "type": "VEC2",
      "bufferView": 4,
      "byteOffset": 0,
      "byteType": 1497,
      "count": 21
    },
    {
      "componentType": 5126,
      "type": "VEC2",
      "bufferView": 5,
      "byteOffset": 0,
      "byteType": 462,
      "count": 8
    },
    {
      "componentType": 5123,
      "type": "SCALAR",
      "bufferView": 6,
      "byteOffset": 0,
      "byteType": 1974,
      "count": 16
    },
    {
      "componentType": 5126,
      "type": "VEC3",
      "bufferView": 7,
      "byteOffset": 0,
      "byteType": 222,
      "count": 4,
      "min": [
        2.04998779296875,
        -0.175000190734863,
        0.99971741437912
      ],
      "max": [
        2.04998779296875,
        0.824999809265137,
        2.20028328895569
      ]
    },
    {
      "componentType": 5126,
      "type": "VEC3",
      "bufferView": 8,
      "byteOffset": 0,
      "byteType": 524,
      "count": 10
    },
    {
      "componentType": 5126,
      "type": "VEC4",
      "bufferView": 9,
      "byteOffset": 0,
      "byteType": 444,
      "count": 4
    },
    {
      "componentType": 5126,
      "type": "VEC2",
      "bufferView": 10,
      "byteOffset": 0,
      "byteType": 526,
      "count": 14
    },
    {
      "componentType": 5126,
      "type": "VEC2",
      "bufferView": 11,
      "byteOffset": 0,
      "byteType": 1496,
      "count": 4
    },
    {
      "componentType": 5123,
      "type": "SCALAR",
      "bufferView": 12,
      "byteOffset": 0,
      "byteType": 1624,
      "count": 18
    },
    {
      "componentType": 5126,
      "type": "VEC3",
      "bufferView": 13,
      "byteOffset": 0,
      "byteType": 412,
      "count": 4,
      "min": [
        -0.900009155273438,
        2.67500019073486,
        0.999716937541962
      ],
      "max": [
        0.899978637695313,
        2.67500019073486,
        2.50028347969055
      ]
    },
    {
      "componentType": 5126,
      "type": "VEC3",
      "bufferView": 14,
      "byteOffset": 0,
      "byteType": 614,
      "count": 13
    },
    {
      "componentType": 5126,
      "type": "VEC4",
      "bufferView": 15,
      "byteOffset": 0,
      "byteType": 504,
      "count": 4
    },
    {
      "componentType": 5126,
      "type": "VEC2",
      "bufferView": 16,
      "byteOffset": 0,
      "byteType": 1824,
      "count": 10
    },
    {
      "componentType": 5126,
      "type": "VEC2",
      "bufferView": 17,
      "byteOffset": 0,
      "byteType": 834,
      "count": 4
    },
    {
      "componentType": 5123,
      "type": "SCALAR",
      "bufferView": 18,
      "byteOffset": 0,
      "byteType": 875,
      "count": 29
    },
    {
      "componentType": 5126,
      "type": "VEC3",
      "bufferView": 19,
      "byteOffset": 0,
      "byteType": 746,
      "count": 9,
      "min": [
        -2.10002136230469,
        0.324999809265137,
        0.0
      ],
      "max": [
        2.04998779296875,
        1.82499980926514,
        2.20028352737427
      ]
    },
    {
      "componentType": 5126,
      "type": "VEC3",
      "bufferView": 20,
      "byteOffset": 0,
      "byteType": 1223,
      "count": 17
    },
    {
      "componentType": 5126,
      "type": "VEC4",
      "bufferView": 21,
      "byteOffset": 0,
      "byteType": 1888,
      "count": 9
    },
    {
      "componentType": 5126,
      "type": "VEC2",
      "bufferView": 22,
      "byteOffset": 0,
      "byteType": 514,
      "count": 21
    },
    {
      "componentType": 5126,
      "type": "VEC2",
      "bufferView": 23,
      "byteOffset": 0,
      "byteType": 530,
      "count": 9
    },
    {
      "componentType": 5123,
      "type": "SCALAR",
      "bufferView": 24,
      "byteOffset": 0,
      "byteType": 1309,
      "count": 41
    },
    {
      "componentType": 5126,
      "type": "VEC3",
      "bufferView": 25,
      "byteOffset": 0,
      "byteType": 343,
      "count": 4,
      "min": [
        -1.75,
        -2.5,
        3.5
      ],
      "max": [
        1.75,
        2.5,
        3.5
      ]
    },
    {
      "componentType": 5126,
      "type": "VEC3",
      "bufferView": 26,
      "byteOffset": 0,
      "byteType": 437,
      "count": 25
    },
    {
      "componentType": 5126,
      "type": "VEC4",
      "bufferView": 27,
      "byteOffset": 0,
      "byteType": 1707,
      "count": 7
    },
    {
      "componentType": 5126,
      "type": "VEC2",
      "bufferView": 28,
      "byteOffset": 0,
      "byteType": 772,
      "count": 20
    },
    {
      "componentType": 5126,
      "type": "VEC2",
      "bufferView": 29,
      "byteOffset": 0,
      "byteType": 689,
      "count": 5
    },
    {
      "componentType": 5123,
      "type": "SCALAR",
      "bufferView": 30,
      "byteOffset": 0,
      "byteType": 1532,
      "count": 455
    },
    {
      "componentType": 5126,
      "type": "VEC3",
      "bufferView": 31,
      "byteOffset": 0,
      "byteType": 1693,
      "count": 192,
      "min": [
        -2.25,
        -3.0,
        -1.19209289550781E-07
      ],
      "max": [
        2.25,
        3.0,
        4.0
      ]
    },
    {
      "componentType": 5126,
      "type": "VEC3",
      "bufferView": 32,
      "byteOffset": 0,
      "byteType": 325,
      "count": 212
    },
    {
      "componentType": 5126,
      "type": "VEC4",
      "bufferView": 33,
      "byteOffset": 0,
      "byteType": 411,
      "count": 195
    },
    {
      "componentType": 5126,
      "type": "VEC2",
      "bufferView": 34,
      "byteOffset": 0,
      "byteType": 233,
      "count": 213
    },
    {
      "componentType": 5126,
      "type": "VEC2",
      "bufferView": 35,
      "byteOffset": 0,
      "byteType": 1163,
      "count": 194
    },
    {
      "componentType": 5123,
      "type": "SCALAR",
      "bufferView": 36,
      "byteOffset": 0,
      "byteType": 1333,
      "count": 238
    },
    {
      "componentType": 5126,
      "type": "VEC3",
      "bufferView": 37,
      "byteOffset": 0,
      "byteType": 301,
      "count": 89,
      "min": [
        -2.35000610351563,
        -3.10000038146973,
        3.40000009536743
      ],
      "max": [
        2.35000610351563,
        3.10000038146973,
        4.0
      ]
    },
    {
      "componentType": 5126,
      "type": "VEC3",
      "bufferView": 38,
      "byteOffset": 0,
      "byteType": 1342,
      "count": 114
    },
    {
      "componentType": 5126,
      "type": "VEC4",
      "bufferView": 39,
      "byteOffset": 0,
      "byteType": 1325,
      "count": 85
    },
    {
      "componentType": 5126,
      "type": "VEC2",
      "bufferView": 40,
      "byteOffset": 0,
      "byteType": 1604,
      "count": 110
    },
    {
      "componentType": 5126,
      "type": "VEC2",
      "bufferView": 41,
      "byteOffset": 0,
      "byteType": 327,
      "count": 96
    }
  ],
  "nodes": [
    {
      "name": "RootNode",
      "translation": [
        0.0,
        0.0,
        0.0
      ],
      "rotation": [
        0.0,
        0.0,
        0.0,
        1.0
      ],
      "scale": [
        1.0,
        1.0,
        1.0
      ],
      "children": [
        1,
        2
      ]
    },
    {
      "name": "duixiang004",
      "translation": [
        0.174567222595215,
        -2.38418579101563E-07,
        -0.0003204345703125
      ],
      "rotation": [
        -0.500000059604645,
        -0.499999970197678,
        -0.499999970197678,
        0.500000059604645
      ],
      "scale": [
        1.0,
        1.0,
        1.0
      ],
      "mesh": 0
    },
    {
      "name": "duixiang005",
      "translation": [
        0.0,
        -1.19209289550781E-07,
        0.0
      ],
      "rotation": [
        -0.500000059604645,
        -0.499999970197678,
        -0.499999970197678,
        0.500000059604645
      ],
      "scale": [
        1.0,
        1.0,
        1.0
      ],
      "mesh": 1
    }
  ],
  "asset": {
    "generator": "FBX2glTF",
    "version": "2.0"
  },
  "scene": 0,
  "scenes": [
    {
      "name": "Root Scene",
      "nodes": [
        0
      ]
    }
  ],
  "samplers": [
    {}
  ]
}
