{
  "materials": [
    {
      "name": "Material_#27",
      "pbrMetallicRoughness": {
        "baseColorTexture": {
          "index": 0,
          "texCoord": 0
        },
        "baseColorFactor": [
          1.0,
          1.0,
          1.0,
          1.0
        ],
        "metallicFactor": 0,
        "roughnessFactor": 1
      },
      "alphaMode": "OPAQUE"
    },
    {
      "name": "Material_#25_alpha",
      "pbrMetallicRoughness": {
        "baseColorTexture": {
          "index": 1,
          "texCoord": 0
        },
        "baseColorFactor": [
          1.0,
          1.0,
          1.0,
          1.0
        ],
        "metallicFactor": 0,
        "roughnessFactor": 1
      },
      "alphaMode": "BLEND"
    },
    {
      "name": "1_alpha",
      "pbrMetallicRoughness": {
        "baseColorTexture": {
          "index": 2,
          "texCoord": 0
        },
        "baseColorFactor": [
          1.0,
          1.0,
          1.0,
          1.0
        ],
        "metallicFactor": 0,
        "roughnessFactor": 1
      },
      "alphaMode": "BLEND"
    },
    {
      "name": "10_-_Default_alpha",
      "pbrMetallicRoughness": {
        "baseColorTexture": {
          "index": 3,
          "texCoord": 0
        },
        "baseColorFactor": [
          1.0,
          1.0,
          1.0,
          1.0
        ],
        "metallicFactor": 0.099999994,
        "roughnessFactor": 1
      },
      "alphaMode": "BLEND"
    }
  ],
  "images": [
    {
      "uri": "OR9NSM98WOJP8HC78OM341E18N53YOY3D.jpg"
    },
    {
      "uri": "0EH9WS436SDZ0QRZ0NTOT7DQZOG77O2Q4.png"
    },
    {
      "uri": "SG9PNHO182YU80QFWQEWN0X7PSO8J2OHD.png"
    },
    {
      "uri": "6QZ77T1PHQDEZ0RU762WTWMEJKYEZKDQ2.png"
    }
  ],
  "textures": [
    {
      "name": "lvse.jpg",
      "sampler": 0,
      "source": 0
    },
    {
      "name": "网格01.png",
      "sampler": 0,
      "source": 1
    },
    {
      "name": "TIEwang_06.png",
      "sampler": 0,
      "source": 2
    },
    {
      "name": "TIEwang_04.png",
      "sampler": 0,
      "source": 3
    }
  ],
  "meshes": [
    {
      "name": "LO-wanglan_01",
      "primitives": [
        {
          "material": 0,
          "mode": 4,
          "indices": 0,
          "attributes": {
            "NORMAL": 2,
            "POSITION": 1,
            "TEXCOORD_0": 3,
            "TEXCOORD_1": 4
          }
        },
        {
          "material": 1,
          "mode": 4,
          "indices": 5,
          "attributes": {
            "NORMAL": 7,
            "POSITION": 6,
            "TEXCOORD_0": 8,
            "TEXCOORD_1": 9
          }
        },
        {
          "material": 2,
          "mode": 4,
          "indices": 10,
          "attributes": {
            "NORMAL": 12,
            "POSITION": 11,
            "TEXCOORD_0": 13,
            "TEXCOORD_1": 14
          }
        },
        {
          "material": 3,
          "mode": 4,
          "indices": 15,
          "attributes": {
            "NORMAL": 17,
            "POSITION": 16,
            "TEXCOORD_0": 18,
            "TEXCOORD_1": 19
          }
        }
      ]
    }
  ],
  "buffers": [
    {
      "byteLength": 20191,
      "uri": "OTJP8EH20CWP7H2FU82UZ6PW7KXU17DO0.bin"
    }
  ],
  "bufferViews": [
    {
      "buffer": 0,
      "target": 34963,
      "byteLength": 920,
      "byteOffset": 0
    },
    {
      "buffer": 0,
      "target": 34962,
      "byteLength": 3108,
      "byteOffset": 972
    },
    {
      "buffer": 0,
      "target": 34962,
      "byteLength": 3300,
      "byteOffset": 4080
    },
    {
      "buffer": 0,
      "target": 34962,
      "byteLength": 2016,
      "byteOffset": 7344
    },
    {
      "buffer": 0,
      "target": 34962,
      "byteLength": 2224,
      "byteOffset": 9360
    },
    {
      "buffer": 0,
      "target": 34963,
      "byteLength": 114,
      "byteOffset": 11502
    },
    {
      "buffer": 0,
      "target": 34962,
      "byteLength": 588,
      "byteOffset": 11616
    },
    {
      "buffer": 0,
      "target": 34962,
      "byteLength": 552,
      "byteOffset": 12216
    },
    {
      "buffer": 0,
      "target": 34962,
      "byteLength": 472,
      "byteOffset": 12768
    },
    {
      "buffer": 0,
      "target": 34962,
      "byteLength": 288,
      "byteOffset": 13248
    },
    {
      "buffer": 0,
      "target": 34963,
      "byteLength": 682,
      "byteOffset": 13536
    },
    {
      "buffer": 0,
      "target": 34962,
      "byteLength": 1320,
      "byteOffset": 14280
    },
    {
      "buffer": 0,
      "target": 34962,
      "byteLength": 1560,
      "byteOffset": 15600
    },
    {
      "buffer": 0,
      "target": 34962,
      "byteLength": 864,
      "byteOffset": 17056
    },
    {
      "buffer": 0,
      "target": 34962,
      "byteLength": 976,
      "byteOffset": 17920
    },
    {
      "buffer": 0,
      "target": 34963,
      "byteLength": 10,
      "byteOffset": 18862
    },
    {
      "buffer": 0,
      "target": 34962,
      "byteLength": 168,
      "byteOffset": 18872
    },
    {
      "buffer": 0,
      "target": 34962,
      "byteLength": 12,
      "byteOffset": 19052
    },
    {
      "buffer": 0,
      "target": 34962,
      "byteLength": 168,
      "byteOffset": 19064
    },
    {
      "buffer": 0,
      "target": 34962,
      "byteLength": 64,
      "byteOffset": 19240
    }
  ],
  "accessors": [
    {
      "componentType": 5123,
      "type": "SCALAR",
      "bufferView": 0,
      "byteOffset": 0,
      "byteType": 1485,
      "count": 460
    },
    {
      "componentType": 5126,
      "type": "VEC3",
      "bufferView": 1,
      "byteOffset": 0,
      "byteType": 861,
      "count": 259,
      "min": [
        -1.51150012016296,
        -0.206366300582886,
        1.46348029375076E-05
      ],
      "max": [
        1.5114997625351,
        0.199203729629517,
        4.08302402496338
      ]
    },
    {
      "componentType": 5126,
      "type": "VEC3",
      "bufferView": 2,
      "byteOffset": 0,
      "byteType": 614,
      "count": 275
    },
    {
      "componentType": 5126,
      "type": "VEC2",
      "bufferView": 3,
      "byteOffset": 0,
      "byteType": 1929,
      "count": 252
    },
    {
      "componentType": 5126,
      "type": "VEC2",
      "bufferView": 4,
      "byteOffset": 0,
      "byteType": 268,
      "count": 278
    },
    {
      "componentType": 5123,
      "type": "SCALAR",
      "bufferView": 5,
      "byteOffset": 0,
      "byteType": 991,
      "count": 57
    },
    {
      "componentType": 5126,
      "type": "VEC3",
      "bufferView": 6,
      "byteOffset": 0,
      "byteType": 338,
      "count": 49,
      "min": [
        -1.4685001373291,
        -0.00049281120300293,
        0.020014675334096
      ],
      "max": [
        1.49149978160858,
        0.000878095626831055,
        3.99213790893555
      ]
    },
    {
      "componentType": 5126,
      "type": "VEC3",
      "bufferView": 7,
      "byteOffset": 0,
      "byteType": 397,
      "count": 46
    },
    {
      "componentType": 5126,
      "type": "VEC2",
      "bufferView": 8,
      "byteOffset": 0,
      "byteType": 381,
      "count": 59
    },
    {
      "componentType": 5126,
      "type": "VEC2",
      "bufferView": 9,
      "byteOffset": 0,
      "byteType": 1765,
      "count": 36
    },
    {
      "componentType": 5123,
      "type": "SCALAR",
      "bufferView": 10,
      "byteOffset": 0,
      "byteType": 560,
      "count": 341
    },
    {
      "componentType": 5126,
      "type": "VEC3",
      "bufferView": 11,
      "byteOffset": 0,
      "byteType": 997,
      "count": 110,
      "min": [
        -1.51149904727936,
        -0.249026536941528,
        4.01893520355225
      ],
      "max": [
        1.51149928569794,
        0.249027013778687,
        4.51698970794678
      ]
    },
    {
      "componentType": 5126,
      "type": "VEC3",
      "bufferView": 12,
      "byteOffset": 0,
      "byteType": 1463,
      "count": 130
    },
    {
      "componentType": 5126,
      "type": "VEC2",
      "bufferView": 13,
      "byteOffset": 0,
      "byteType": 231,
      "count": 108
    },
    {
      "componentType": 5126,
      "type": "VEC2",
      "bufferView": 14,
      "byteOffset": 0,
      "byteType": 1200,
      "count": 122
    },
    {
      "componentType": 5123,
      "type": "SCALAR",
      "bufferView": 15,
      "byteOffset": 0,
      "byteType": 301,
      "count": 5
    },
    {
      "componentType": 5126,
      "type": "VEC3",
      "bufferView": 16,
      "byteOffset": 0,
      "byteType": 1323,
      "count": 14,
      "min": [
        -1.51149904727936,
        0.00946044921875,
        4.06614971160889
      ],
      "max": [
        1.51149928569794,
        0.0143284797668457,
        4.40581035614014
      ]
    },
    {
      "componentType": 5126,
      "type": "VEC3",
      "bufferView": 17,
      "byteOffset": 0,
      "byteType": 1213,
      "count": 1
    },
    {
      "componentType": 5126,
      "type": "VEC2",
      "bufferView": 18,
      "byteOffset": 0,
      "byteType": 287,
      "count": 21
    },
    {
      "componentType": 5126,
      "type": "VEC2",
      "bufferView": 19,
      "byteOffset": 0,
      "byteType": 940,
      "count": 8
    }
  ],
  "nodes": [
    {
      "name": "RootNode",
      "translation": [
        0.0,
        0.0,
        0.0
      ],
      "rotation": [
        0.0,
        0.0,
        0.0,
        1.0
      ],
      "scale": [
        1.0,
        1.0,
        1.0
      ],
      "children": [
        1
      ]
    },
    {
      "name": "body",
      "translation": [
        -7.93086364865303E-05,
        0.00162346428260207,
        0.00946058891713619
      ],
      "rotation": [
        -0.70710676908493,
        0.0,
        0.0,
        0.70710676908493
      ],
      "scale": [
        1.0,
        1.0,
        1.0
      ],
      "children": [
        2
      ]
    },
    {
      "name": "LO-wanglan_01",
      "translation": [
        0.0,
        0.0,
        0.0
      ],
      "rotation": [
        0.0,
        0.0,
        0.0,
        1.0
      ],
      "scale": [
        1.0,
        1.0,
        1.0
      ],
      "mesh": 0
    }
  ],
  "asset": {
    "generator": "FBX2glTF",
    "version": "2.0"
  },
  "scene": 0,
  "scenes": [
    {
      "name": "Root Scene",
      "nodes": [
        0
      ]
    }
  ],
  "samplers": [
    {}
  ]
}
