{
  "materials": [
    {
      "name": "Standard_18_alpha",
      "pbrMetallicRoughness": {
        "baseColorTexture": {
          "index": 0,
          "texCoord": 0
        },
        "baseColorFactor": [
          1.0,
          1.0,
          1.0,
          1.0
        ],
        "metallicFactor": 0.199999988,
        "roughnessFactor": 0.8
      },
      "alphaMode": "BLEND"
    }
  ],
  "images": [
    {
      "uri": "OJYOGEY04UTKEWTJWP1PVR96823NWMZ61.png"
    }
  ],
  "textures": [
    {
      "name": "Bolidoor.png",
      "sampler": 0,
      "source": 0
    }
  ],
  "meshes": [
    {
      "name": "door002",
      "primitives": [
        {
          "material": 0,
          "mode": 4,
          "indices": 10,
          "attributes": {
            "NORMAL": 12,
            "POSITION": 11,
            "TEXCOORD_0": 13,
            "TEXCOORD_1": 14
          }
        }
      ]
    },
    {
      "name": "door001",
      "primitives": [
        {
          "material": 0,
          "mode": 4,
          "indices": 15,
          "attributes": {
            "NORMAL": 17,
            "POSITION": 16,
            "TEXCOORD_0": 18,
            "TEXCOORD_1": 19
          }
        }
      ]
    },
    {
      "name": "door003",
      "primitives": [
        {
          "material": 0,
          "mode": 4,
          "indices": 20,
          "attributes": {
            "NORMAL": 22,
            "POSITION": 21,
            "TEXCOORD_0": 23,
            "TEXCOORD_1": 24
          }
        }
      ]
    },
    {
      "name": "door004",
      "primitives": [
        {
          "material": 0,
          "mode": 4,
          "indices": 25,
          "attributes": {
            "NORMAL": 27,
            "POSITION": 26,
            "TEXCOORD_0": 28,
            "TEXCOORD_1": 29
          }
        }
      ]
    },
    {
      "name": "door000",
      "primitives": [
        {
          "material": 0,
          "mode": 4,
          "indices": 30,
          "attributes": {
            "NORMAL": 32,
            "POSITION": 31,
            "TEXCOORD_0": 33,
            "TEXCOORD_1": 34
          }
        }
      ]
    }
  ],
  "buffers": [
    {
      "byteLength": 9727,
      "uri": "MUZWNIQ40XHNIOQ60I866GTUWQ8T12QY7.bin"
    }
  ],
  "bufferViews": [
    {
      "buffer": 0,
      "byteLength": 44,
      "byteOffset": 0
    },
    {
      "buffer": 0,
      "byteLength": 80,
      "byteOffset": 80
    },
    {
      "buffer": 0,
      "byteLength": 176,
      "byteOffset": 160
    },
    {
      "buffer": 0,
      "byteLength": 80,
      "byteOffset": 336
    },
    {
      "buffer": 0,
      "byteLength": 176,
      "byteOffset": 416
    },
    {
      "buffer": 0,
      "byteLength": 28,
      "byteOffset": 556
    },
    {
      "buffer": 0,
      "byteLength": 208,
      "byteOffset": 584
    },
    {
      "buffer": 0,
      "byteLength": 112,
      "byteOffset": 792
    },
    {
      "buffer": 0,
      "byteLength": 208,
      "byteOffset": 904
    },
    {
      "buffer": 0,
      "byteLength": 112,
      "byteOffset": 1112
    },
    {
      "buffer": 0,
      "target": 34963,
      "byteLength": 66,
      "byteOffset": 1224
    },
    {
      "buffer": 0,
      "target": 34962,
      "byteLength": 204,
      "byteOffset": 1320
    },
    {
      "buffer": 0,
      "target": 34962,
      "byteLength": 276,
      "byteOffset": 1524
    },
    {
      "buffer": 0,
      "target": 34962,
      "byteLength": 136,
      "byteOffset": 1788
    },
    {
      "buffer": 0,
      "target": 34962,
      "byteLength": 184,
      "byteOffset": 1924
    },
    {
      "buffer": 0,
      "target": 34963,
      "byteLength": 54,
      "byteOffset": 2090
    },
    {
      "buffer": 0,
      "target": 34962,
      "byteLength": 276,
      "byteOffset": 2144
    },
    {
      "buffer": 0,
      "target": 34962,
      "byteLength": 204,
      "byteOffset": 2420
    },
    {
      "buffer": 0,
      "target": 34962,
      "byteLength": 184,
      "byteOffset": 2624
    },
    {
      "buffer": 0,
      "target": 34962,
      "byteLength": 136,
      "byteOffset": 2808
    },
    {
      "buffer": 0,
      "target": 34963,
      "byteLength": 66,
      "byteOffset": 2944
    },
    {
      "buffer": 0,
      "target": 34962,
      "byteLength": 204,
      "byteOffset": 3040
    },
    {
      "buffer": 0,
      "target": 34962,
      "byteLength": 276,
      "byteOffset": 3244
    },
    {
      "buffer": 0,
      "target": 34962,
      "byteLength": 136,
      "byteOffset": 3508
    },
    {
      "buffer": 0,
      "target": 34962,
      "byteLength": 184,
      "byteOffset": 3644
    },
    {
      "buffer": 0,
      "target": 34963,
      "byteLength": 54,
      "byteOffset": 3810
    },
    {
      "buffer": 0,
      "target": 34962,
      "byteLength": 276,
      "byteOffset": 3864
    },
    {
      "buffer": 0,
      "target": 34962,
      "byteLength": 204,
      "byteOffset": 4140
    },
    {
      "buffer": 0,
      "target": 34962,
      "byteLength": 184,
      "byteOffset": 4344
    },
    {
      "buffer": 0,
      "target": 34962,
      "byteLength": 136,
      "byteOffset": 4528
    },
    {
      "buffer": 0,
      "target": 34963,
      "byteLength": 390,
      "byteOffset": 4664
    },
    {
      "buffer": 0,
      "target": 34962,
      "byteLength": 1068,
      "byteOffset": 5084
    },
    {
      "buffer": 0,
      "target": 34962,
      "byteLength": 1140,
      "byteOffset": 6152
    },
    {
      "buffer": 0,
      "target": 34962,
      "byteLength": 712,
      "byteOffset": 7280
    },
    {
      "buffer": 0,
      "target": 34962,
      "byteLength": 760,
      "byteOffset": 7992
    }
  ],
  "accessors": [
    {
      "componentType": 5126,
      "type": "SCALAR",
      "bufferView": 0,
      "byteOffset": 0,
      "byteType": 825,
      "count": 11,
      "min": [
        0.0
      ],
      "max": [
        0.291666656732559
      ]
    },
    {
      "componentType": 5126,
      "type": "VEC4",
      "bufferView": 1,
      "byteOffset": 0,
      "byteType": 833,
      "count": 5
    },
    {
      "componentType": 5126,
      "type": "VEC4",
      "bufferView": 2,
      "byteOffset": 0,
      "byteType": 971,
      "count": 11
    },
    {
      "componentType": 5126,
      "type": "VEC4",
      "bufferView": 3,
      "byteOffset": 0,
      "byteType": 1377,
      "count": 5
    },
    {
      "componentType": 5126,
      "type": "VEC4",
      "bufferView": 4,
      "byteOffset": 0,
      "byteType": 1020,
      "count": 11
    },
    {
      "componentType": 5126,
      "type": "SCALAR",
      "bufferView": 5,
      "byteOffset": 0,
      "byteType": 1147,
      "count": 7,
      "min": [
        -0.0416663289070129
      ],
      "max": [
        0.333333700895309
      ]
    },
    {
      "componentType": 5126,
      "type": "VEC4",
      "bufferView": 6,
      "byteOffset": 0,
      "byteType": 1621,
      "count": 13
    },
    {
      "componentType": 5126,
      "type": "VEC4",
      "bufferView": 7,
      "byteOffset": 0,
      "byteType": 559,
      "count": 7
    },
    {
      "componentType": 5126,
      "type": "VEC4",
      "bufferView": 8,
      "byteOffset": 0,
      "byteType": 832,
      "count": 13
    },
    {
      "componentType": 5126,
      "type": "VEC4",
      "bufferView": 9,
      "byteOffset": 0,
      "byteType": 1771,
      "count": 7
    },
    {
      "componentType": 5123,
      "type": "SCALAR",
      "bufferView": 10,
      "byteOffset": 0,
      "byteType": 1453,
      "count": 33
    },
    {
      "componentType": 5126,
      "type": "VEC3",
      "bufferView": 11,
      "byteOffset": 0,
      "byteType": 263,
      "count": 17,
      "min": [
        -1.07748508453369,
        -1.18499994277954,
        -0.0750001966953278
      ],
      "max": [
        -2.60770320892334E-08,
        1.18499994277954,
        0.0750002041459084
      ]
    },
    {
      "componentType": 5126,
      "type": "VEC3",
      "bufferView": 12,
      "byteOffset": 0,
      "byteType": 906,
      "count": 23
    },
    {
      "componentType": 5126,
      "type": "VEC2",
      "bufferView": 13,
      "byteOffset": 0,
      "byteType": 421,
      "count": 17
    },
    {
      "componentType": 5126,
      "type": "VEC2",
      "bufferView": 14,
      "byteOffset": 0,
      "byteType": 441,
      "count": 23
    },
    {
      "componentType": 5123,
      "type": "SCALAR",
      "bufferView": 15,
      "byteOffset": 0,
      "byteType": 1555,
      "count": 27
    },
    {
      "componentType": 5126,
      "type": "VEC3",
      "bufferView": 16,
      "byteOffset": 0,
      "byteType": 500,
      "count": 23,
      "min": [
        0.0,
        -1.18499994277954,
        -0.075000137090683
      ],
      "max": [
        1.01471900939941,
        1.18499994277954,
        0.0750001296401024
      ]
    },
    {
      "componentType": 5126,
      "type": "VEC3",
      "bufferView": 17,
      "byteOffset": 0,
      "byteType": 1057,
      "count": 17
    },
    {
      "componentType": 5126,
      "type": "VEC2",
      "bufferView": 18,
      "byteOffset": 0,
      "byteType": 1650,
      "count": 23
    },
    {
      "componentType": 5126,
      "type": "VEC2",
      "bufferView": 19,
      "byteOffset": 0,
      "byteType": 337,
      "count": 17
    },
    {
      "componentType": 5123,
      "type": "SCALAR",
      "bufferView": 20,
      "byteOffset": 0,
      "byteType": 1264,
      "count": 33
    },
    {
      "componentType": 5126,
      "type": "VEC3",
      "bufferView": 21,
      "byteOffset": 0,
      "byteType": 1881,
      "count": 17,
      "min": [
        -7.45058059692383E-09,
        -1.18499994277954,
        -0.0750001892447472
      ],
      "max": [
        1.07748508453369,
        1.18499994277954,
        0.0750001966953278
      ]
    },
    {
      "componentType": 5126,
      "type": "VEC3",
      "bufferView": 22,
      "byteOffset": 0,
      "byteType": 498,
      "count": 23
    },
    {
      "componentType": 5126,
      "type": "VEC2",
      "bufferView": 23,
      "byteOffset": 0,
      "byteType": 1829,
      "count": 17
    },
    {
      "componentType": 5126,
      "type": "VEC2",
      "bufferView": 24,
      "byteOffset": 0,
      "byteType": 383,
      "count": 23
    },
    {
      "componentType": 5123,
      "type": "SCALAR",
      "bufferView": 25,
      "byteOffset": 0,
      "byteType": 827,
      "count": 27
    },
    {
      "componentType": 5126,
      "type": "VEC3",
      "bufferView": 26,
      "byteOffset": 0,
      "byteType": 934,
      "count": 23,
      "min": [
        -1.0147191286087,
        -1.18499994277954,
        -0.0750001296401024
      ],
      "max": [
        0.0,
        1.18499994277954,
        0.0750001221895218
      ]
    },
    {
      "componentType": 5126,
      "type": "VEC3",
      "bufferView": 27,
      "byteOffset": 0,
      "byteType": 1689,
      "count": 17
    },
    {
      "componentType": 5126,
      "type": "VEC2",
      "bufferView": 28,
      "byteOffset": 0,
      "byteType": 549,
      "count": 23
    },
    {
      "componentType": 5126,
      "type": "VEC2",
      "bufferView": 29,
      "byteOffset": 0,
      "byteType": 329,
      "count": 17
    },
    {
      "componentType": 5123,
      "type": "SCALAR",
      "bufferView": 30,
      "byteOffset": 0,
      "byteType": 588,
      "count": 195
    },
    {
      "componentType": 5126,
      "type": "VEC3",
      "bufferView": 31,
      "byteOffset": 0,
      "byteType": 1539,
      "count": 89,
      "min": [
        -3.08755445480347,
        -0.0750004053115845,
        0.0
      ],
      "max": [
        3.08755445480347,
        0.0750004053115845,
        3.00000023841858
      ]
    },
    {
      "componentType": 5126,
      "type": "VEC3",
      "bufferView": 32,
      "byteOffset": 0,
      "byteType": 1958,
      "count": 95
    },
    {
      "componentType": 5126,
      "type": "VEC2",
      "bufferView": 33,
      "byteOffset": 0,
      "byteType": 651,
      "count": 89
    },
    {
      "componentType": 5126,
      "type": "VEC2",
      "bufferView": 34,
      "byteOffset": 0,
      "byteType": 1956,
      "count": 95
    }
  ],
  "nodes": [
    {
      "name": "RootNode",
      "translation": [
        0.0,
        0.0,
        0.0
      ],
      "rotation": [
        0.0,
        0.0,
        0.0,
        1.0
      ],
      "scale": [
        1.0,
        1.0,
        1.0
      ],
      "children": [
        1,
        2,
        3,
        4,
        5
      ]
    },
    {
      "name": "door002",
      "translation": [
        -0.0536462664604187,
        1.18500006198883,
        1.11758708953857E-07
      ],
      "rotation": [
        2.1855694143369E-08,
        0.0,
        0.0,
        1.0
      ],
      "scale": [
        1.0,
        1.0,
        0.659999966621399
      ],
      "mesh": 0
    },
    {
      "name": "door001",
      "translation": [
        -2.14585041999817,
        1.18500006198883,
        1.67638063430786E-07
      ],
      "rotation": [
        2.1855694143369E-08,
        0.0,
        0.0,
        1.0
      ],
      "scale": [
        1.0,
        1.0,
        0.659999966621399
      ],
      "mesh": 1
    },
    {
      "name": "door003",
      "translation": [
        0.0536462664604187,
        1.18500006198883,
        1.19209289550781E-07
      ],
      "rotation": [
        2.1855694143369E-08,
        0.0,
        0.0,
        1.0
      ],
      "scale": [
        1.0,
        1.0,
        0.659999966621399
      ],
      "mesh": 2
    },
    {
      "name": "door004",
      "translation": [
        2.14585041999817,
        1.18500006198883,
        1.78813934326172E-07
      ],
      "rotation": [
        2.1855694143369E-08,
        0.0,
        0.0,
        1.0
      ],
      "scale": [
        1.0,
        1.0,
        0.659999966621399
      ],
      "mesh": 3
    },
    {
      "name": "door000",
      "translation": [
        0.0,
        0.0,
        -8.94069671630859E-08
      ],
      "rotation": [
        -0.70710676908493,
        0.0,
        0.0,
        0.70710676908493
      ],
      "scale": [
        1.0,
        1.0,
        1.0
      ],
      "mesh": 4
    }
  ],
  "asset": {
    "generator": "FBX2glTF",
    "version": "2.0"
  },
  "scene": 0,
  "scenes": [
    {
      "name": "Root Scene",
      "nodes": [
        0
      ]
    }
  ],
  "samplers": [
    {}
  ],
  "animations": [
    {
      "name": "Auto_Open",
      "channels": [
        {
          "sampler": 0,
          "target": {
            "node": 1,
            "path": "rotation"
          }
        },
        {
          "sampler": 1,
          "target": {
            "node": 2,
            "path": "rotation"
          }
        },
        {
          "sampler": 2,
          "target": {
            "node": 3,
            "path": "rotation"
          }
        },
        {
          "sampler": 3,
          "target": {
            "node": 4,
            "path": "rotation"
          }
        }
      ],
      "samplers": [
        {
          "input": 0,
          "interpolation": "LINEAR",
          "output": 1
        },
        {
          "input": 0,
          "interpolation": "LINEAR",
          "output": 2
        },
        {
          "input": 0,
          "interpolation": "LINEAR",
          "output": 3
        },
        {
          "input": 0,
          "interpolation": "LINEAR",
          "output": 4
        }
      ]
    },
    {
      "name": "Auto_Close",
      "channels": [
        {
          "sampler": 0,
          "target": {
            "node": 1,
            "path": "rotation"
          }
        },
        {
          "sampler": 1,
          "target": {
            "node": 2,
            "path": "rotation"
          }
        },
        {
          "sampler": 2,
          "target": {
            "node": 3,
            "path": "rotation"
          }
        },
        {
          "sampler": 3,
          "target": {
            "node": 4,
            "path": "rotation"
          }
        }
      ],
      "samplers": [
        {
          "input": 5,
          "interpolation": "LINEAR",
          "output": 6
        },
        {
          "input": 5,
          "interpolation": "LINEAR",
          "output": 7
        },
        {
          "input": 5,
          "interpolation": "LINEAR",
          "output": 8
        },
        {
          "input": 5,
          "interpolation": "LINEAR",
          "output": 9
        }
      ]
    }
  ]
}
