{
  "materials": [
    {
      "name": "Std_Textures_0151.jpg",
      "pbrMetallicRoughness": {
        "baseColorTexture": {
          "index": 0,
          "texCoord": 0
        },
        "baseColorFactor": [
          1.0,
          1.0,
          1.0,
          1.0
        ],
        "metallicFactor": 0.099999994,
        "roughnessFactor": 1
      },
      "alphaMode": "OPAQUE"
    }
  ],
  "images": [
    {
      "uri": "X9NQCOWDCEQ6OXFNWCZ6QM3TWD8NK287W.jpg"
    }
  ],
  "textures": [
    {
      "name": "Textures_0151.jpg",
      "sampler": 0,
      "source": 0
    }
  ],
  "meshes": [
    {
      "name": "Lo-BODYR_01",
      "primitives": [
        {
          "material": 0,
          "mode": 4,
          "indices": 6,
          "attributes": {
            "COLOR_0": 9,
            "NORMAL": 8,
            "POSITION": 7,
            "TEXCOORD_0": 10,
            "TEXCOORD_1": 11
          }
        }
      ]
    },
    {
      "name": "Lo-BODYl_01",
      "primitives": [
        {
          "material": 0,
          "mode": 4,
          "indices": 12,
          "attributes": {
            "COLOR_0": 15,
            "NORMAL": 14,
            "POSITION": 13,
            "TEXCOORD_0": 16,
            "TEXCOORD_1": 17
          }
        }
      ]
    },
    {
      "name": "Lo-BODY_01",
      "primitives": [
        {
          "material": 0,
          "mode": 4,
          "indices": 18,
          "attributes": {
            "COLOR_0": 21,
            "NORMAL": 20,
            "POSITION": 19,
            "TEXCOORD_0": 22,
            "TEXCOORD_1": 23
          }
        }
      ]
    }
  ],
  "buffers": [
    {
      "byteLength": 11427,
      "uri": "TAZ6P910ROUKPEPWUXUJKC3UORQ415FJ2.bin"
    }
  ],
  "bufferViews": [
    {
      "buffer": 0,
      "byteLength": 196,
      "byteOffset": 0
    },
    {
      "buffer": 0,
      "byteLength": 528,
      "byteOffset": 292
    },
    {
      "buffer": 0,
      "byteLength": 784,
      "byteOffset": 820
    },
    {
      "buffer": 0,
      "byteLength": 128,
      "byteOffset": 1508
    },
    {
      "buffer": 0,
      "byteLength": 768,
      "byteOffset": 1636
    },
    {
      "buffer": 0,
      "byteLength": 512,
      "byteOffset": 2404
    },
    {
      "buffer": 0,
      "target": 34963,
      "byteLength": 88,
      "byteOffset": 2916
    },
    {
      "buffer": 0,
      "target": 34962,
      "byteLength": 240,
      "byteOffset": 3084
    },
    {
      "buffer": 0,
      "target": 34962,
      "byteLength": 432,
      "byteOffset": 3324
    },
    {
      "buffer": 0,
      "target": 34962,
      "byteLength": 320,
      "byteOffset": 3788
    },
    {
      "buffer": 0,
      "target": 34962,
      "byteLength": 288,
      "byteOffset": 4108
    },
    {
      "buffer": 0,
      "target": 34962,
      "byteLength": 160,
      "byteOffset": 4396
    },
    {
      "buffer": 0,
      "target": 34963,
      "byteLength": 88,
      "byteOffset": 4556
    },
    {
      "buffer": 0,
      "target": 34962,
      "byteLength": 216,
      "byteOffset": 4724
    },
    {
      "buffer": 0,
      "target": 34962,
      "byteLength": 408,
      "byteOffset": 4940
    },
    {
      "buffer": 0,
      "target": 34962,
      "byteLength": 288,
      "byteOffset": 5380
    },
    {
      "buffer": 0,
      "target": 34962,
      "byteLength": 272,
      "byteOffset": 5668
    },
    {
      "buffer": 0,
      "target": 34962,
      "byteLength": 144,
      "byteOffset": 5940
    },
    {
      "buffer": 0,
      "target": 34963,
      "byteLength": 328,
      "byteOffset": 6084
    },
    {
      "buffer": 0,
      "target": 34962,
      "byteLength": 768,
      "byteOffset": 6492
    },
    {
      "buffer": 0,
      "target": 34962,
      "byteLength": 960,
      "byteOffset": 7260
    },
    {
      "buffer": 0,
      "target": 34962,
      "byteLength": 1024,
      "byteOffset": 8252
    },
    {
      "buffer": 0,
      "target": 34962,
      "byteLength": 640,
      "byteOffset": 9276
    },
    {
      "buffer": 0,
      "target": 34962,
      "byteLength": 512,
      "byteOffset": 9916
    }
  ],
  "accessors": [
    {
      "componentType": 5126,
      "type": "SCALAR",
      "bufferView": 0,
      "byteOffset": 0,
      "byteType": 1359,
      "count": 49,
      "min": [
        0.0
      ],
      "max": [
        1.66666662693024
      ]
    },
    {
      "componentType": 5126,
      "type": "VEC4",
      "bufferView": 1,
      "byteOffset": 0,
      "byteType": 1917,
      "count": 33
    },
    {
      "componentType": 5126,
      "type": "VEC4",
      "bufferView": 2,
      "byteOffset": 0,
      "byteType": 542,
      "count": 49
    },
    {
      "componentType": 5126,
      "type": "SCALAR",
      "bufferView": 3,
      "byteOffset": 0,
      "byteType": 365,
      "count": 32,
      "min": [
        -3.33786010742188E-06
      ],
      "max": [
        1.62499678134918
      ]
    },
    {
      "componentType": 5126,
      "type": "VEC4",
      "bufferView": 4,
      "byteOffset": 0,
      "byteType": 1926,
      "count": 48
    },
    {
      "componentType": 5126,
      "type": "VEC4",
      "bufferView": 5,
      "byteOffset": 0,
      "byteType": 689,
      "count": 32
    },
    {
      "componentType": 5123,
      "type": "SCALAR",
      "bufferView": 6,
      "byteOffset": 0,
      "byteType": 1206,
      "count": 44
    },
    {
      "componentType": 5126,
      "type": "VEC3",
      "bufferView": 7,
      "byteOffset": 0,
      "byteType": 547,
      "count": 20,
      "min": [
        -0.0153499599546194,
        -6.65790222953433E-09,
        -0.0500002540647984
      ],
      "max": [
        1.05477058887482,
        2.31586456298828,
        0.0499999932944775
      ]
    },
    {
      "componentType": 5126,
      "type": "VEC3",
      "bufferView": 8,
      "byteOffset": 0,
      "byteType": 1196,
      "count": 36
    },
    {
      "componentType": 5126,
      "type": "VEC4",
      "bufferView": 9,
      "byteOffset": 0,
      "byteType": 405,
      "count": 20
    },
    {
      "componentType": 5126,
      "type": "VEC2",
      "bufferView": 10,
      "byteOffset": 0,
      "byteType": 296,
      "count": 36
    },
    {
      "componentType": 5126,
      "type": "VEC2",
      "bufferView": 11,
      "byteOffset": 0,
      "byteType": 1949,
      "count": 20
    },
    {
      "componentType": 5123,
      "type": "SCALAR",
      "bufferView": 12,
      "byteOffset": 0,
      "byteType": 326,
      "count": 44
    },
    {
      "componentType": 5126,
      "type": "VEC3",
      "bufferView": 13,
      "byteOffset": 0,
      "byteType": 557,
      "count": 18,
      "min": [
        -1.01163101196289,
        -6.65790222953433E-09,
        -0.0500002540647984
      ],
      "max": [
        0.0334474928677082,
        2.31586456298828,
        0.0499999932944775
      ]
    },
    {
      "componentType": 5126,
      "type": "VEC3",
      "bufferView": 14,
      "byteOffset": 0,
      "byteType": 1562,
      "count": 34
    },
    {
      "componentType": 5126,
      "type": "VEC4",
      "bufferView": 15,
      "byteOffset": 0,
      "byteType": 1273,
      "count": 18
    },
    {
      "componentType": 5126,
      "type": "VEC2",
      "bufferView": 16,
      "byteOffset": 0,
      "byteType": 1650,
      "count": 34
    },
    {
      "componentType": 5126,
      "type": "VEC2",
      "bufferView": 17,
      "byteOffset": 0,
      "byteType": 265,
      "count": 18
    },
    {
      "componentType": 5123,
      "type": "SCALAR",
      "bufferView": 18,
      "byteOffset": 0,
      "byteType": 1050,
      "count": 164
    },
    {
      "componentType": 5126,
      "type": "VEC3",
      "bufferView": 19,
      "byteOffset": 0,
      "byteType": 1387,
      "count": 64,
      "min": [
        -1.1495977640152,
        -4.47233272637959E-09,
        -0.0500002540647984
      ],
      "max": [
        1.1503210067749,
        2.39999985694885,
        0.0499999932944775
      ]
    },
    {
      "componentType": 5126,
      "type": "VEC3",
      "bufferView": 20,
      "byteOffset": 0,
      "byteType": 1007,
      "count": 80
    },
    {
      "componentType": 5126,
      "type": "VEC4",
      "bufferView": 21,
      "byteOffset": 0,
      "byteType": 1275,
      "count": 64
    },
    {
      "componentType": 5126,
      "type": "VEC2",
      "bufferView": 22,
      "byteOffset": 0,
      "byteType": 1280,
      "count": 80
    },
    {
      "componentType": 5126,
      "type": "VEC2",
      "bufferView": 23,
      "byteOffset": 0,
      "byteType": 1017,
      "count": 64
    }
  ],
  "nodes": [
    {
      "name": "RootNode",
      "translation": [
        0.0,
        0.0,
        0.0
      ],
      "rotation": [
        0.0,
        0.0,
        0.0,
        1.0
      ],
      "scale": [
        1.0,
        1.0,
        1.0
      ],
      "children": [
        1
      ]
    },
    {
      "name": "Body",
      "translation": [
        0.0,
        0.0,
        0.0
      ],
      "rotation": [
        2.1855694143369E-08,
        0.0,
        0.0,
        1.0
      ],
      "scale": [
        1.0,
        1.0,
        1.0
      ],
      "children": [
        2,
        7
      ]
    },
    {
      "name": "Controller",
      "translation": [
        0.0,
        0.0,
        0.0
      ],
      "rotation": [
        3.30872245021211E-24,
        0.0,
        0.0,
        1.0
      ],
      "scale": [
        1.0,
        1.0,
        1.0
      ],
      "children": [
        3,
        5
      ]
    },
    {
      "name": "LeftPiovt",
      "translation": [
        -1.04880058765411,
        0.0,
        0.0
      ],
      "rotation": [
        0.0,
        0.0,
        0.0,
        1.0
      ],
      "scale": [
        1.0,
        1.0,
        1.0
      ],
      "children": [
        4
      ]
    },
    {
      "name": "Lo-BODYR_01",
      "translation": [
        0.0,
        0.0,
        0.0
      ],
      "rotation": [
        3.30872245021211E-24,
        0.0,
        0.0,
        1.0
      ],
      "scale": [
        1.0,
        1.0,
        1.0
      ],
      "mesh": 0
    },
    {
      "name": "RightPiovt",
      "translation": [
        1.0176008939743,
        0.0,
        0.0
      ],
      "rotation": [
        0.0,
        0.0,
        0.0,
        1.0
      ],
      "scale": [
        1.0,
        1.0,
        1.0
      ],
      "children": [
        6
      ]
    },
    {
      "name": "Lo-BODYl_01",
      "translation": [
        0.0,
        0.0,
        0.0
      ],
      "rotation": [
        3.30872245021211E-24,
        0.0,
        0.0,
        1.0
      ],
      "scale": [
        1.0,
        1.0,
        1.0
      ],
      "mesh": 1
    },
    {
      "name": "MENKUANG",
      "translation": [
        0.0,
        0.0,
        0.0
      ],
      "rotation": [
        3.30872245021211E-24,
        0.0,
        0.0,
        1.0
      ],
      "scale": [
        1.0,
        1.0,
        1.0
      ],
      "children": [
        8
      ]
    },
    {
      "name": "Lo-BODY_01",
      "translation": [
        0.0,
        0.0,
        0.0
      ],
      "rotation": [
        0.0,
        0.0,
        0.0,
        1.0
      ],
      "scale": [
        1.0,
        1.0,
        1.0
      ],
      "mesh": 2
    }
  ],
  "asset": {
    "generator": "FBX2glTF",
    "version": "2.0"
  },
  "scene": 0,
  "scenes": [
    {
      "name": "Root Scene",
      "nodes": [
        0
      ]
    }
  ],
  "samplers": [
    {}
  ],
  "animations": [
    {
      "name": "Auto_Open",
      "channels": [
        {
          "sampler": 0,
          "target": {
            "node": 3,
            "path": "rotation"
          }
        },
        {
          "sampler": 1,
          "target": {
            "node": 5,
            "path": "rotation"
          }
        }
      ],
      "samplers": [
        {
          "input": 0,
          "interpolation": "LINEAR",
          "output": 1
        },
        {
          "input": 0,
          "interpolation": "LINEAR",
          "output": 2
        }
      ]
    },
    {
      "name": "Auto_Close",
      "channels": [
        {
          "sampler": 0,
          "target": {
            "node": 3,
            "path": "rotation"
          }
        },
        {
          "sampler": 1,
          "target": {
            "node": 5,
            "path": "rotation"
          }
        }
      ],
      "samplers": [
        {
          "input": 3,
          "interpolation": "LINEAR",
          "output": 4
        },
        {
          "input": 3,
          "interpolation": "LINEAR",
          "output": 5
        }
      ]
    }
  ]
}
