{
  "materials": [
    {
      "name": "Standard_17_alpha",
      "pbrMetallicRoughness": {
        "baseColorTexture": {
          "index": 0,
          "texCoord": 0
        },
        "baseColorFactor": [
          1.0,
          1.0,
          1.0,
          1.0
        ],
        "metallicFactor": 0.299999982,
        "roughnessFactor": 0.700000048
      },
      "alphaMode": "BLEND"
    },
    {
      "name": "0022_alpha",
      "pbrMetallicRoughness": {
        "baseColorTexture": {
          "index": 1,
          "texCoord": 0
        },
        "baseColorFactor": [
          1.0,
          1.0,
          1.0,
          1.0
        ],
        "metallicFactor": 0,
        "roughnessFactor": 1
      },
      "alphaMode": "BLEND"
    },
    {
      "name": "door_mesh_alpha",
      "pbrMetallicRoughness": {
        "baseColorTexture": {
          "index": 0,
          "texCoord": 0
        },
        "baseColorFactor": [
          1.0,
          1.0,
          1.0,
          1.0
        ],
        "metallicFactor": 0.299999982,
        "roughnessFactor": 0.700000048
      },
      "alphaMode": "BLEND"
    },
    {
      "name": "Jianqumen000_alpha",
      "pbrMetallicRoughness": {
        "baseColorTexture": {
          "index": 2,
          "texCoord": 0
        },
        "baseColorFactor": [
          1.0,
          1.0,
          1.0,
          1.0
        ],
        "metallicFactor": 0,
        "roughnessFactor": 1
      },
      "alphaMode": "BLEND"
    }
  ],
  "images": [
    {
      "uri": "26M1UCIA62MQ6S53U01EUJ2YQ4WD1ZSP8.png"
    },
    {
      "uri": "NKCUTCG9774J3PII9NNTWZCEUT8TQDO28.png"
    },
    {
      "uri": "T6G34VG1NIPH2OG3OPVRT11RHNVDH28YF.png"
    }
  ],
  "textures": [
    {
      "name": "door_mesh.png",
      "sampler": 0,
      "source": 0
    },
    {
      "name": "door_mesh02.png",
      "sampler": 0,
      "source": 1
    },
    {
      "name": "Jianqumen000.png",
      "sampler": 0,
      "source": 2
    }
  ],
  "meshes": [
    {
      "name": "meshframe001",
      "primitives": [
        {
          "material": 0,
          "mode": 4,
          "indices": 6,
          "attributes": {
            "NORMAL": 8,
            "POSITION": 7,
            "TEXCOORD_0": 9,
            "TEXCOORD_1": 10
          }
        },
        {
          "material": 1,
          "mode": 4,
          "indices": 16,
          "attributes": {
            "NORMAL": 18,
            "POSITION": 17,
            "TEXCOORD_0": 19,
            "TEXCOORD_1": 20
          }
        }
      ]
    },
    {
      "name": "mesh",
      "primitives": [
        {
          "material": 0,
          "mode": 4,
          "indices": 11,
          "attributes": {
            "NORMAL": 13,
            "POSITION": 12,
            "TEXCOORD_0": 14,
            "TEXCOORD_1": 15
          }
        }
      ]
    },
    {
      "name": "mesh001",
      "primitives": [
        {
          "material": 2,
          "mode": 4,
          "indices": 21,
          "attributes": {
            "NORMAL": 23,
            "POSITION": 22,
            "TEXCOORD_0": 24,
            "TEXCOORD_1": 25
          }
        },
        {
          "material": 3,
          "mode": 4,
          "indices": 26,
          "attributes": {
            "NORMAL": 28,
            "POSITION": 27,
            "TEXCOORD_0": 29,
            "TEXCOORD_1": 30
          }
        }
      ]
    }
  ],
  "buffers": [
    {
      "byteLength": 9263,
      "uri": "4OPJNWEE3DCQZ77CQ6KIQUNI96QX96UCA.bin"
    }
  ],
  "bufferViews": [
    {
      "buffer": 0,
      "byteLength": 80,
      "byteOffset": 0
    },
    {
      "buffer": 0,
      "byteLength": 128,
      "byteOffset": 240
    },
    {
      "buffer": 0,
      "byteLength": 528,
      "byteOffset": 160
    },
    {
      "buffer": 0,
      "byteLength": 40,
      "byteOffset": 392
    },
    {
      "buffer": 0,
      "byteLength": 416,
      "byteOffset": 328
    },
    {
      "buffer": 0,
      "byteLength": 160,
      "byteOffset": 760
    },
    {
      "buffer": 0,
      "target": 34963,
      "byteLength": 312,
      "byteOffset": 648
    },
    {
      "buffer": 0,
      "target": 34962,
      "byteLength": 804,
      "byteOffset": 1092
    },
    {
      "buffer": 0,
      "target": 34962,
      "byteLength": 1044,
      "byteOffset": 1896
    },
    {
      "buffer": 0,
      "target": 34962,
      "byteLength": 576,
      "byteOffset": 2920
    },
    {
      "buffer": 0,
      "target": 34962,
      "byteLength": 744,
      "byteOffset": 3496
    },
    {
      "buffer": 0,
      "target": 34963,
      "byteLength": 44,
      "byteOffset": 4164
    },
    {
      "buffer": 0,
      "target": 34962,
      "byteLength": 432,
      "byteOffset": 4208
    },
    {
      "buffer": 0,
      "target": 34962,
      "byteLength": 216,
      "byteOffset": 4568
    },
    {
      "buffer": 0,
      "target": 34962,
      "byteLength": 232,
      "byteOffset": 4784
    },
    {
      "buffer": 0,
      "target": 34962,
      "byteLength": 144,
      "byteOffset": 5024
    },
    {
      "buffer": 0,
      "target": 34963,
      "byteLength": 52,
      "byteOffset": 5168
    },
    {
      "buffer": 0,
      "target": 34962,
      "byteLength": 96,
      "byteOffset": 5372
    },
    {
      "buffer": 0,
      "target": 34962,
      "byteLength": 420,
      "byteOffset": 5288
    },
    {
      "buffer": 0,
      "target": 34962,
      "byteLength": 64,
      "byteOffset": 5608
    },
    {
      "buffer": 0,
      "target": 34962,
      "byteLength": 152,
      "byteOffset": 5448
    },
    {
      "buffer": 0,
      "target": 34963,
      "byteLength": 48,
      "byteOffset": 5536
    },
    {
      "buffer": 0,
      "target": 34962,
      "byteLength": 456,
      "byteOffset": 5584
    },
    {
      "buffer": 0,
      "target": 34962,
      "byteLength": 108,
      "byteOffset": 6052
    },
    {
      "buffer": 0,
      "target": 34962,
      "byteLength": 264,
      "byteOffset": 6160
    },
    {
      "buffer": 0,
      "target": 34962,
      "byteLength": 112,
      "byteOffset": 6432
    },
    {
      "buffer": 0,
      "target": 34963,
      "byteLength": 150,
      "byteOffset": 6544
    },
    {
      "buffer": 0,
      "target": 34962,
      "byteLength": 372,
      "byteOffset": 6772
    },
    {
      "buffer": 0,
      "target": 34962,
      "byteLength": 564,
      "byteOffset": 7144
    },
    {
      "buffer": 0,
      "target": 34962,
      "byteLength": 256,
      "byteOffset": 7688
    },
    {
      "buffer": 0,
      "target": 34962,
      "byteLength": 376,
      "byteOffset": 7944
    }
  ],
  "accessors": [
    {
      "componentType": 5126,
      "type": "SCALAR",
      "bufferView": 0,
      "byteOffset": 0,
      "byteType": 314,
      "count": 20,
      "min": [
        0.0
      ],
      "max": [
        0.291666656732559
      ]
    },
    {
      "componentType": 5126,
      "type": "VEC4",
      "bufferView": 1,
      "byteOffset": 0,
      "byteType": 1138,
      "count": 8
    },
    {
      "componentType": 5126,
      "type": "VEC4",
      "bufferView": 2,
      "byteOffset": 0,
      "byteType": 1276,
      "count": 33
    },
    {
      "componentType": 5126,
      "type": "SCALAR",
      "bufferView": 3,
      "byteOffset": 0,
      "byteType": 250,
      "count": 10,
      "min": [
        -0.0416663289070129
      ],
      "max": [
        0.333333700895309
      ]
    },
    {
      "componentType": 5126,
      "type": "VEC4",
      "bufferView": 4,
      "byteOffset": 0,
      "byteType": 824,
      "count": 26
    },
    {
      "componentType": 5126,
      "type": "VEC4",
      "bufferView": 5,
      "byteOffset": 0,
      "byteType": 262,
      "count": 10
    },
    {
      "componentType": 5123,
      "type": "SCALAR",
      "bufferView": 6,
      "byteOffset": 0,
      "byteType": 1036,
      "count": 156
    },
    {
      "componentType": 5126,
      "type": "VEC3",
      "bufferView": 7,
      "byteOffset": 0,
      "byteType": 841,
      "count": 67,
      "min": [
        -1.19013094902039,
        -0.0225009210407734,
        0.0
      ],
      "max": [
        1.19013094902039,
        0.0225009322166443,
        2.70000004768372
      ]
    },
    {
      "componentType": 5126,
      "type": "VEC3",
      "bufferView": 8,
      "byteOffset": 0,
      "byteType": 706,
      "count": 87
    },
    {
      "componentType": 5126,
      "type": "VEC2",
      "bufferView": 9,
      "byteOffset": 0,
      "byteType": 1657,
      "count": 72
    },
    {
      "componentType": 5126,
      "type": "VEC2",
      "bufferView": 10,
      "byteOffset": 0,
      "byteType": 1215,
      "count": 93
    },
    {
      "componentType": 5123,
      "type": "SCALAR",
      "bufferView": 11,
      "byteOffset": 0,
      "byteType": 1815,
      "count": 22
    },
    {
      "componentType": 5126,
      "type": "VEC3",
      "bufferView": 12,
      "byteOffset": 0,
      "byteType": 508,
      "count": 36,
      "min": [
        0.0,
        -0.02250075340271,
        -0.95250004529953
      ],
      "max": [
        1.14087080955505,
        0.0225006937980652,
        1.05250024795532
      ]
    },
    {
      "componentType": 5126,
      "type": "VEC3",
      "bufferView": 13,
      "byteOffset": 0,
      "byteType": 1063,
      "count": 18
    },
    {
      "componentType": 5126,
      "type": "VEC2",
      "bufferView": 14,
      "byteOffset": 0,
      "byteType": 624,
      "count": 29
    },
    {
      "componentType": 5126,
      "type": "VEC2",
      "bufferView": 15,
      "byteOffset": 0,
      "byteType": 433,
      "count": 18
    },
    {
      "componentType": 5123,
      "type": "SCALAR",
      "bufferView": 16,
      "byteOffset": 0,
      "byteType": 826,
      "count": 26
    },
    {
      "componentType": 5126,
      "type": "VEC3",
      "bufferView": 17,
      "byteOffset": 0,
      "byteType": 1342,
      "count": 8,
      "min": [
        -1.14087104797363,
        -0.0225006118416786,
        2.05107831954956
      ],
      "max": [
        1.14087104797363,
        0.022500928491354,
        2.65645027160645
      ]
    },
    {
      "componentType": 5126,
      "type": "VEC3",
      "bufferView": 18,
      "byteOffset": 0,
      "byteType": 712,
      "count": 35
    },
    {
      "componentType": 5126,
      "type": "VEC2",
      "bufferView": 19,
      "byteOffset": 0,
      "byteType": 1504,
      "count": 8
    },
    {
      "componentType": 5126,
      "type": "VEC2",
      "bufferView": 20,
      "byteOffset": 0,
      "byteType": 1787,
      "count": 19
    },
    {
      "componentType": 5123,
      "type": "SCALAR",
      "bufferView": 21,
      "byteOffset": 0,
      "byteType": 629,
      "count": 24
    },
    {
      "componentType": 5126,
      "type": "VEC3",
      "bufferView": 22,
      "byteOffset": 0,
      "byteType": 1641,
      "count": 38,
      "min": [
        -1.14087092876434,
        -0.0225008763372898,
        -1.00250005722046
      ],
      "max": [
        0.0,
        0.0225006565451622,
        1.00250005722046
      ]
    },
    {
      "componentType": 5126,
      "type": "VEC3",
      "bufferView": 23,
      "byteOffset": 0,
      "byteType": 1249,
      "count": 9
    },
    {
      "componentType": 5126,
      "type": "VEC2",
      "bufferView": 24,
      "byteOffset": 0,
      "byteType": 1134,
      "count": 33
    },
    {
      "componentType": 5126,
      "type": "VEC2",
      "bufferView": 25,
      "byteOffset": 0,
      "byteType": 615,
      "count": 14
    },
    {
      "componentType": 5123,
      "type": "SCALAR",
      "bufferView": 26,
      "byteOffset": 0,
      "byteType": 817,
      "count": 75
    },
    {
      "componentType": 5126,
      "type": "VEC3",
      "bufferView": 27,
      "byteOffset": 0,
      "byteType": 775,
      "count": 31,
      "min": [
        -1.09695410728455,
        -0.0325005799531937,
        -0.0688838958740234
      ],
      "max": [
        -0.898091614246368,
        0.0325006768107414,
        0.0388293266296387
      ]
    },
    {
      "componentType": 5126,
      "type": "VEC3",
      "bufferView": 28,
      "byteOffset": 0,
      "byteType": 408,
      "count": 47
    },
    {
      "componentType": 5126,
      "type": "VEC2",
      "bufferView": 29,
      "byteOffset": 0,
      "byteType": 837,
      "count": 32
    },
    {
      "componentType": 5126,
      "type": "VEC2",
      "bufferView": 30,
      "byteOffset": 0,
      "byteType": 1908,
      "count": 47
    }
  ],
  "nodes": [
    {
      "name": "RootNode",
      "translation": [
        0.0,
        0.0,
        0.0
      ],
      "rotation": [
        0.0,
        0.0,
        0.0,
        1.0
      ],
      "scale": [
        1.0,
        1.0,
        1.0
      ],
      "children": [
        1,
        2,
        3
      ]
    },
    {
      "name": "meshframe001",
      "translation": [
        0.0,
        0.0,
        -1.21071934700012E-08
      ],
      "rotation": [
        -0.70710676908493,
        0.0,
        0.0,
        0.70710676908493
      ],
      "scale": [
        1.0,
        1.0,
        1.0
      ],
      "mesh": 0
    },
    {
      "name": "mesh",
      "translation": [
        -1.14087092876434,
        0.95249992609024,
        -2.98023223876953E-07
      ],
      "rotation": [
        -0.70710676908493,
        0.0,
        0.0,
        0.70710676908493
      ],
      "scale": [
        1.0,
        1.0,
        1.0
      ],
      "mesh": 1
    },
    {
      "name": "mesh001",
      "translation": [
        1.14087104797363,
        1.00250005722046,
        -1.564621925354E-07
      ],
      "rotation": [
        -0.70710676908493,
        0.0,
        0.0,
        0.70710676908493
      ],
      "scale": [
        1.0,
        1.0,
        1.0
      ],
      "mesh": 2
    }
  ],
  "asset": {
    "generator": "FBX2glTF",
    "version": "2.0"
  },
  "scene": 0,
  "scenes": [
    {
      "name": "Root Scene",
      "nodes": [
        0
      ]
    }
  ],
  "samplers": [
    {}
  ],
  "animations": [
    {
      "name": "Auto_Open",
      "channels": [
        {
          "sampler": 0,
          "target": {
            "node": 2,
            "path": "rotation"
          }
        },
        {
          "sampler": 1,
          "target": {
            "node": 3,
            "path": "rotation"
          }
        }
      ],
      "samplers": [
        {
          "input": 0,
          "interpolation": "LINEAR",
          "output": 1
        },
        {
          "input": 0,
          "interpolation": "LINEAR",
          "output": 2
        }
      ]
    },
    {
      "name": "Auto_Close",
      "channels": [
        {
          "sampler": 0,
          "target": {
            "node": 2,
            "path": "rotation"
          }
        },
        {
          "sampler": 1,
          "target": {
            "node": 3,
            "path": "rotation"
          }
        }
      ],
      "samplers": [
        {
          "input": 3,
          "interpolation": "LINEAR",
          "output": 4
        },
        {
          "input": 3,
          "interpolation": "LINEAR",
          "output": 5
        }
      ]
    }
  ]
}
