{
  "materials": [
    {
      "name": "Material_#54",
      "pbrMetallicRoughness": {
        "baseColorTexture": {
          "index": 0,
          "texCoord": 0
        },
        "baseColorFactor": [
          1.0,
          1.0,
          1.0,
          1.0
        ],
        "metallicFactor": 0,
        "roughnessFactor": 1
      },
      "alphaMode": "OPAQUE"
    },
    {
      "name": "Material_#52",
      "pbrMetallicRoughness": {
        "baseColorTexture": {
          "index": 1,
          "texCoord": 0
        },
        "baseColorFactor": [
          1.0,
          1.0,
          1.0,
          1.0
        ],
        "metallicFactor": 0,
        "roughnessFactor": 1
      },
      "alphaMode": "OPAQUE"
    },
    {
      "name": "Material_#55",
      "pbrMetallicRoughness": {
        "baseColorTexture": {
          "index": 2,
          "texCoord": 0
        },
        "baseColorFactor": [
          1.0,
          1.0,
          1.0,
          1.0
        ],
        "metallicFactor": 0,
        "roughnessFactor": 1
      },
      "alphaMode": "OPAQUE"
    },
    {
      "name": "Material_#56",
      "pbrMetallicRoughness": {
        "baseColorTexture": {
          "index": 3,
          "texCoord": 0
        },
        "baseColorFactor": [
          1.0,
          1.0,
          1.0,
          1.0
        ],
        "metallicFactor": 0,
        "roughnessFactor": 1
      },
      "alphaMode": "OPAQUE"
    }
  ],
  "images": [
    {
      "uri": "O4UWO5H4WEQTVHD7NU5F0NXW1IY9POC9Y.jpg"
    },
    {
      "uri": "C531WCTN1X8W0H2HPN2J68RUNUIFN1IAN.jpg"
    },
    {
      "uri": "0MHE0NQ7DWQHZNRJUKM9PKR7NNXHUODTZ.jpg"
    },
    {
      "uri": "I596NE1N7O9Y64HWS4HTT7GQ6IGOWSOZD.jpg"
    }
  ],
  "textures": [
    {
      "name": "OfficeWindow.jpg",
      "sampler": 0,
      "source": 0
    },
    {
      "name": "CementRoof.jpg",
      "sampler": 0,
      "source": 1
    },
    {
      "name": "OfficeWall.jpg",
      "sampler": 0,
      "source": 2
    },
    {
      "name": "储备粮底墙.jpg",
      "sampler": 0,
      "source": 3
    }
  ],
  "meshes": [
    {
      "name": "Lo-BodywallB_01",
      "primitives": [
        {
          "material": 0,
          "mode": 4,
          "indices": 0,
          "attributes": {
            "NORMAL": 2,
            "POSITION": 1,
            "TEXCOORD_0": 3
          }
        }
      ]
    },
    {
      "name": "Lo-Body墙顶_01",
      "primitives": [
        {
          "material": 1,
          "mode": 4,
          "indices": 4,
          "attributes": {
            "NORMAL": 6,
            "POSITION": 5,
            "TEXCOORD_0": 7
          }
        }
      ]
    },
    {
      "name": "Lo-BodywallA_01",
      "primitives": [
        {
          "material": 2,
          "mode": 4,
          "indices": 8,
          "attributes": {
            "NORMAL": 10,
            "POSITION": 9,
            "TEXCOORD_0": 11
          }
        }
      ]
    },
    {
      "name": "Lo-BodywallC_01",
      "primitives": [
        {
          "material": 3,
          "mode": 4,
          "indices": 12,
          "attributes": {
            "NORMAL": 14,
            "POSITION": 13,
            "TEXCOORD_0": 15
          }
        }
      ]
    }
  ],
  "buffers": [
    {
      "byteLength": 7915,
      "uri": "KEW7N5T10EF21YHUIP1HJIYH2UM170ETY.bin"
    }
  ],
  "bufferViews": [
    {
      "buffer": 0,
      "target": 34963,
      "byteLength": 330,
      "byteOffset": 0
    },
    {
      "buffer": 0,
      "target": 34962,
      "byteLength": 960,
      "byteOffset": 404
    },
    {
      "buffer": 0,
      "target": 34962,
      "byteLength": 1176,
      "byteOffset": 1364
    },
    {
      "buffer": 0,
      "target": 34962,
      "byteLength": 600,
      "byteOffset": 2504
    },
    {
      "buffer": 0,
      "target": 34963,
      "byteLength": 66,
      "byteOffset": 3104
    },
    {
      "buffer": 0,
      "target": 34962,
      "byteLength": 120,
      "byteOffset": 3272
    },
    {
      "buffer": 0,
      "target": 34962,
      "byteLength": 132,
      "byteOffset": 3272
    },
    {
      "buffer": 0,
      "target": 34962,
      "byteLength": 64,
      "byteOffset": 3408
    },
    {
      "buffer": 0,
      "target": 34963,
      "byteLength": 382,
      "byteOffset": 3472
    },
    {
      "buffer": 0,
      "target": 34962,
      "byteLength": 960,
      "byteOffset": 3976
    },
    {
      "buffer": 0,
      "target": 34962,
      "byteLength": 1200,
      "byteOffset": 4936
    },
    {
      "buffer": 0,
      "target": 34962,
      "byteLength": 664,
      "byteOffset": 6112
    },
    {
      "buffer": 0,
      "target": 34963,
      "byteLength": 40,
      "byteOffset": 6776
    },
    {
      "buffer": 0,
      "target": 34962,
      "byteLength": 48,
      "byteOffset": 6884
    },
    {
      "buffer": 0,
      "target": 34962,
      "byteLength": 120,
      "byteOffset": 6836
    },
    {
      "buffer": 0,
      "target": 34962,
      "byteLength": 32,
      "byteOffset": 6940
    }
  ],
  "accessors": [
    {
      "componentType": 5123,
      "type": "SCALAR",
      "bufferView": 0,
      "byteOffset": 0,
      "byteType": 677,
      "count": 165
    },
    {
      "componentType": 5126,
      "type": "VEC3",
      "bufferView": 1,
      "byteOffset": 0,
      "byteType": 649,
      "count": 80,
      "min": [
        -4.85865545272827,
        -20.0,
        -9.5367431640625E-07
      ],
      "max": [
        4.85866022109985,
        20.0,
        6.72312021255493
      ]
    },
    {
      "componentType": 5126,
      "type": "VEC3",
      "bufferView": 2,
      "byteOffset": 0,
      "byteType": 1976,
      "count": 98
    },
    {
      "componentType": 5126,
      "type": "VEC2",
      "bufferView": 3,
      "byteOffset": 0,
      "byteType": 523,
      "count": 75
    },
    {
      "componentType": 5123,
      "type": "SCALAR",
      "bufferView": 4,
      "byteOffset": 0,
      "byteType": 226,
      "count": 33
    },
    {
      "componentType": 5126,
      "type": "VEC3",
      "bufferView": 5,
      "byteOffset": 0,
      "byteType": 634,
      "count": 10,
      "min": [
        -4.65865564346313,
        -19.7999992370605,
        7.5
      ],
      "max": [
        4.65866041183472,
        19.7999992370605,
        7.50000095367432
      ]
    },
    {
      "componentType": 5126,
      "type": "VEC3",
      "bufferView": 6,
      "byteOffset": 0,
      "byteType": 1756,
      "count": 11
    },
    {
      "componentType": 5126,
      "type": "VEC2",
      "bufferView": 7,
      "byteOffset": 0,
      "byteType": 1431,
      "count": 8
    },
    {
      "componentType": 5123,
      "type": "SCALAR",
      "bufferView": 8,
      "byteOffset": 0,
      "byteType": 1194,
      "count": 191
    },
    {
      "componentType": 5126,
      "type": "VEC3",
      "bufferView": 9,
      "byteOffset": 0,
      "byteType": 1635,
      "count": 80,
      "min": [
        -4.85865545272827,
        -20.0,
        6.72311973571777
      ],
      "max": [
        4.85866022109985,
        20.0,
        8.00000095367432
      ]
    },
    {
      "componentType": 5126,
      "type": "VEC3",
      "bufferView": 10,
      "byteOffset": 0,
      "byteType": 410,
      "count": 100
    },
    {
      "componentType": 5126,
      "type": "VEC2",
      "bufferView": 11,
      "byteOffset": 0,
      "byteType": 327,
      "count": 83
    },
    {
      "componentType": 5123,
      "type": "SCALAR",
      "bufferView": 12,
      "byteOffset": 0,
      "byteType": 292,
      "count": 20
    },
    {
      "componentType": 5126,
      "type": "VEC3",
      "bufferView": 13,
      "byteOffset": 0,
      "byteType": 438,
      "count": 4,
      "min": [
        -4.35865545272827,
        -4.45437574386597,
        -9.5367431640625E-07
      ],
      "max": [
        -4.35865545272827,
        14.993314743042,
        2.89146137237549
      ]
    },
    {
      "componentType": 5126,
      "type": "VEC3",
      "bufferView": 14,
      "byteOffset": 0,
      "byteType": 592,
      "count": 10
    },
    {
      "componentType": 5126,
      "type": "VEC2",
      "bufferView": 15,
      "byteOffset": 0,
      "byteType": 1256,
      "count": 4
    }
  ],
  "nodes": [
    {
      "name": "RootNode",
      "translation": [
        0.0,
        0.0,
        0.0
      ],
      "rotation": [
        0.0,
        0.0,
        0.0,
        1.0
      ],
      "scale": [
        1.0,
        1.0,
        1.0
      ],
      "children": [
        1,
        2,
        3,
        4
      ]
    },
    {
      "name": "Lo-BodywallB_01",
      "translation": [
        0.0,
        0.0,
        -4.76837158203125E-07
      ],
      "rotation": [
        -0.70710676908493,
        0.0,
        0.0,
        0.70710676908493
      ],
      "scale": [
        1.57030630111694,
        1.57030630111694,
        1.57030630111694
      ],
      "mesh": 0
    },
    {
      "name": "Lo-Body墙顶_01",
      "translation": [
        0.0,
        0.0,
        -4.76837158203125E-07
      ],
      "rotation": [
        -0.70710676908493,
        0.0,
        0.0,
        0.70710676908493
      ],
      "scale": [
        1.57030630111694,
        1.57030630111694,
        1.57030630111694
      ],
      "mesh": 1
    },
    {
      "name": "Lo-BodywallA_01",
      "translation": [
        0.0,
        0.0,
        -4.76837158203125E-07
      ],
      "rotation": [
        -0.70710676908493,
        0.0,
        0.0,
        0.70710676908493
      ],
      "scale": [
        1.57030630111694,
        1.57030630111694,
        1.57030630111694
      ],
      "mesh": 2
    },
    {
      "name": "Lo-BodywallC_01",
      "translation": [
        0.0,
        0.0,
        -4.76837158203125E-07
      ],
      "rotation": [
        -0.70710676908493,
        0.0,
        0.0,
        0.70710676908493
      ],
      "scale": [
        1.57030630111694,
        1.57030630111694,
        1.57030630111694
      ],
      "mesh": 3
    }
  ],
  "asset": {
    "generator": "FBX2glTF",
    "version": "2.0"
  },
  "scene": 0,
  "scenes": [
    {
      "name": "Root Scene",
      "nodes": [
        0
      ]
    }
  ],
  "samplers": [
    {}
  ]
}
