{
  "materials": [
    {
      "name": "Std_glass_diffuse_01.tga_alpha",
      "pbrMetallicRoughness": {
        "baseColorTexture": {
          "index": 0,
          "texCoord": 0
        },
        "baseColorFactor": [
          0.260784328,
          0.386274546,
          0.472549051,
          1.0
        ],
        "metallicFactor": 0,
        "roughnessFactor": 0.8
      },
      "alphaMode": "BLEND"
    },
    {
      "name": "Std_Djinshu.Lib_01.jpg",
      "pbrMetallicRoughness": {
        "baseColorTexture": {
          "index": 1,
          "texCoord": 0
        },
        "baseColorFactor": [
          0.947059,
          0.9078433,
          0.837254941,
          1.0
        ],
        "metallicFactor": 0,
        "roughnessFactor": 0.8
      },
      "alphaMode": "OPAQUE"
    },
    {
      "name": "Std_ZHBX_LogoA_01.tga_alpha",
      "pbrMetallicRoughness": {
        "baseColorTexture": {
          "index": 2,
          "texCoord": 0
        },
        "baseColorFactor": [
          1.0,
          1.0,
          1.0,
          1.0
        ],
        "metallicFactor": 0,
        "roughnessFactor": 1
      },
      "alphaMode": "BLEND"
    }
  ],
  "images": [
    {
      "uri": "YSGADNPEYK29063EJ47C3TUPEU2YJ1QEF.png"
    },
    {
      "uri": "YVPH01Q372GZYI35TT748NNOOWITT704A.jpg"
    },
    {
      "uri": "10XZU1I3JJ2OHN7ITJ8I8DN5ZN84E7WTA.png"
    }
  ],
  "textures": [
    {
      "name": "glass_diffuse_01_f_tga.png",
      "sampler": 0,
      "source": 0
    },
    {
      "name": "Djinshu.Lib_01.jpg",
      "sampler": 0,
      "source": 1
    },
    {
      "name": "uinnova_logoa_01_f_tga.png",
      "sampler": 0,
      "source": 2
    }
  ],
  "meshes": [
    {
      "name": "对象02",
      "primitives": [
        {
          "material": 0,
          "mode": 4,
          "indices": 6,
          "attributes": {
            "NORMAL": 8,
            "POSITION": 7,
            "TEXCOORD_0": 9,
            "TEXCOORD_1": 10
          }
        },
        {
          "material": 1,
          "mode": 4,
          "indices": 21,
          "attributes": {
            "NORMAL": 23,
            "POSITION": 22,
            "TEXCOORD_0": 24,
            "TEXCOORD_1": 25
          }
        },
        {
          "material": 2,
          "mode": 4,
          "indices": 36,
          "attributes": {
            "NORMAL": 38,
            "POSITION": 37,
            "TEXCOORD_0": 39,
            "TEXCOORD_1": 40
          }
        }
      ]
    },
    {
      "name": "对象01",
      "primitives": [
        {
          "material": 0,
          "mode": 4,
          "indices": 11,
          "attributes": {
            "NORMAL": 13,
            "POSITION": 12,
            "TEXCOORD_0": 14,
            "TEXCOORD_1": 15
          }
        },
        {
          "material": 1,
          "mode": 4,
          "indices": 26,
          "attributes": {
            "NORMAL": 28,
            "POSITION": 27,
            "TEXCOORD_0": 29,
            "TEXCOORD_1": 30
          }
        },
        {
          "material": 2,
          "mode": 4,
          "indices": 41,
          "attributes": {
            "NORMAL": 43,
            "POSITION": 42,
            "TEXCOORD_0": 44,
            "TEXCOORD_1": 45
          }
        }
      ]
    },
    {
      "name": "Lo_DoorA_01",
      "primitives": [
        {
          "material": 0,
          "mode": 4,
          "indices": 16,
          "attributes": {
            "NORMAL": 18,
            "POSITION": 17,
            "TEXCOORD_0": 19,
            "TEXCOORD_1": 20
          }
        },
        {
          "material": 1,
          "mode": 4,
          "indices": 31,
          "attributes": {
            "NORMAL": 33,
            "POSITION": 32,
            "TEXCOORD_0": 34,
            "TEXCOORD_1": 35
          }
        }
      ]
    }
  ],
  "buffers": [
    {
      "byteLength": 34795,
      "uri": "61DAPKRT3JW28U8PZU6TTUS481QIFU0XF.bin"
    }
  ],
  "bufferViews": [
    {
      "buffer": 0,
      "byteLength": 188,
      "byteOffset": 0
    },
    {
      "buffer": 0,
      "byteLength": 560,
      "byteOffset": 260
    },
    {
      "buffer": 0,
      "byteLength": 752,
      "byteOffset": 820
    },
    {
      "buffer": 0,
      "byteLength": 136,
      "byteOffset": 1500
    },
    {
      "buffer": 0,
      "byteLength": 736,
      "byteOffset": 1636
    },
    {
      "buffer": 0,
      "byteLength": 544,
      "byteOffset": 2372
    },
    {
      "buffer": 0,
      "target": 34963,
      "byteLength": 84,
      "byteOffset": 2916
    },
    {
      "buffer": 0,
      "target": 34962,
      "byteLength": 228,
      "byteOffset": 3060
    },
    {
      "buffer": 0,
      "target": 34962,
      "byteLength": 372,
      "byteOffset": 3288
    },
    {
      "buffer": 0,
      "target": 34962,
      "byteLength": 152,
      "byteOffset": 3636
    },
    {
      "buffer": 0,
      "target": 34962,
      "byteLength": 248,
      "byteOffset": 3788
    },
    {
      "buffer": 0,
      "target": 34963,
      "byteLength": 60,
      "byteOffset": 4000
    },
    {
      "buffer": 0,
      "target": 34962,
      "byteLength": 372,
      "byteOffset": 4060
    },
    {
      "buffer": 0,
      "target": 34962,
      "byteLength": 228,
      "byteOffset": 4432
    },
    {
      "buffer": 0,
      "target": 34962,
      "byteLength": 248,
      "byteOffset": 4660
    },
    {
      "buffer": 0,
      "target": 34962,
      "byteLength": 152,
      "byteOffset": 4908
    },
    {
      "buffer": 0,
      "target": 34963,
      "byteLength": 36,
      "byteOffset": 5060
    },
    {
      "buffer": 0,
      "target": 34962,
      "byteLength": 24,
      "byteOffset": 5156
    },
    {
      "buffer": 0,
      "target": 34962,
      "byteLength": 168,
      "byteOffset": 5180
    },
    {
      "buffer": 0,
      "target": 34962,
      "byteLength": 16,
      "byteOffset": 5324
    },
    {
      "buffer": 0,
      "target": 34962,
      "byteLength": 112,
      "byteOffset": 5340
    },
    {
      "buffer": 0,
      "target": 34963,
      "byteLength": 2292,
      "byteOffset": 5416
    },
    {
      "buffer": 0,
      "target": 34962,
      "byteLength": 3144,
      "byteOffset": 7708
    },
    {
      "buffer": 0,
      "target": 34962,
      "byteLength": 3000,
      "byteOffset": 10852
    },
    {
      "buffer": 0,
      "target": 34962,
      "byteLength": 2096,
      "byteOffset": 13852
    },
    {
      "buffer": 0,
      "target": 34962,
      "byteLength": 2000,
      "byteOffset": 15948
    },
    {
      "buffer": 0,
      "target": 34963,
      "byteLength": 2316,
      "byteOffset": 17948
    },
    {
      "buffer": 0,
      "target": 34962,
      "byteLength": 3000,
      "byteOffset": 20324
    },
    {
      "buffer": 0,
      "target": 34962,
      "byteLength": 3144,
      "byteOffset": 23324
    },
    {
      "buffer": 0,
      "target": 34962,
      "byteLength": 2000,
      "byteOffset": 26444
    },
    {
      "buffer": 0,
      "target": 34962,
      "byteLength": 2096,
      "byteOffset": 28444
    },
    {
      "buffer": 0,
      "target": 34963,
      "byteLength": 204,
      "byteOffset": 30504
    },
    {
      "buffer": 0,
      "target": 34962,
      "byteLength": 792,
      "byteOffset": 30708
    },
    {
      "buffer": 0,
      "target": 34962,
      "byteLength": 648,
      "byteOffset": 31500
    },
    {
      "buffer": 0,
      "target": 34962,
      "byteLength": 528,
      "byteOffset": 32148
    },
    {
      "buffer": 0,
      "target": 34962,
      "byteLength": 432,
      "byteOffset": 32676
    },
    {
      "buffer": 0,
      "target": 34963,
      "byteLength": 36,
      "byteOffset": 33108
    },
    {
      "buffer": 0,
      "target": 34962,
      "byteLength": 24,
      "byteOffset": 33204
    },
    {
      "buffer": 0,
      "target": 34962,
      "byteLength": 168,
      "byteOffset": 33228
    },
    {
      "buffer": 0,
      "target": 34962,
      "byteLength": 16,
      "byteOffset": 33372
    },
    {
      "buffer": 0,
      "target": 34962,
      "byteLength": 112,
      "byteOffset": 33388
    },
    {
      "buffer": 0,
      "target": 34963,
      "byteLength": 12,
      "byteOffset": 33464
    },
    {
      "buffer": 0,
      "target": 34962,
      "byteLength": 168,
      "byteOffset": 33476
    },
    {
      "buffer": 0,
      "target": 34962,
      "byteLength": 24,
      "byteOffset": 33644
    },
    {
      "buffer": 0,
      "target": 34962,
      "byteLength": 112,
      "byteOffset": 33668
    },
    {
      "buffer": 0,
      "target": 34962,
      "byteLength": 16,
      "byteOffset": 33780
    }
  ],
  "accessors": [
    {
      "componentType": 5126,
      "type": "SCALAR",
      "bufferView": 0,
      "byteOffset": 0,
      "byteType": 406,
      "count": 47,
      "min": [
        0.0
      ],
      "max": [
        1.66666662693024
      ]
    },
    {
      "componentType": 5126,
      "type": "VEC4",
      "bufferView": 1,
      "byteOffset": 0,
      "byteType": 797,
      "count": 35
    },
    {
      "componentType": 5126,
      "type": "VEC4",
      "bufferView": 2,
      "byteOffset": 0,
      "byteType": 333,
      "count": 47
    },
    {
      "componentType": 5126,
      "type": "SCALAR",
      "bufferView": 3,
      "byteOffset": 0,
      "byteType": 1983,
      "count": 34,
      "min": [
        -3.33786010742188E-06
      ],
      "max": [
        1.62499678134918
      ]
    },
    {
      "componentType": 5126,
      "type": "VEC4",
      "bufferView": 4,
      "byteOffset": 0,
      "byteType": 1029,
      "count": 46
    },
    {
      "componentType": 5126,
      "type": "VEC4",
      "bufferView": 5,
      "byteOffset": 0,
      "byteType": 943,
      "count": 34
    },
    {
      "componentType": 5123,
      "type": "SCALAR",
      "bufferView": 6,
      "byteOffset": 0,
      "byteType": 1442,
      "count": 42
    },
    {
      "componentType": 5126,
      "type": "VEC3",
      "bufferView": 7,
      "byteOffset": 0,
      "byteType": 1895,
      "count": 19,
      "min": [
        -0.00161605828907341,
        -3.07498396523442E-07,
        -0.0174429882317781
      ],
      "max": [
        0.750936269760132,
        2.15326046943665,
        0.00255787838250399
      ]
    },
    {
      "componentType": 5126,
      "type": "VEC3",
      "bufferView": 8,
      "byteOffset": 0,
      "byteType": 1700,
      "count": 31
    },
    {
      "componentType": 5126,
      "type": "VEC2",
      "bufferView": 9,
      "byteOffset": 0,
      "byteType": 1345,
      "count": 19
    },
    {
      "componentType": 5126,
      "type": "VEC2",
      "bufferView": 10,
      "byteOffset": 0,
      "byteType": 1378,
      "count": 31
    },
    {
      "componentType": 5123,
      "type": "SCALAR",
      "bufferView": 11,
      "byteOffset": 0,
      "byteType": 383,
      "count": 30
    },
    {
      "componentType": 5126,
      "type": "VEC3",
      "bufferView": 12,
      "byteOffset": 0,
      "byteType": 232,
      "count": 31,
      "min": [
        -0.74140065908432,
        -3.04835197084685E-07,
        -0.0174431130290031
      ],
      "max": [
        0.0111516127362847,
        2.15326046943665,
        0.00255799060687423
      ]
    },
    {
      "componentType": 5126,
      "type": "VEC3",
      "bufferView": 13,
      "byteOffset": 0,
      "byteType": 1993,
      "count": 19
    },
    {
      "componentType": 5126,
      "type": "VEC2",
      "bufferView": 14,
      "byteOffset": 0,
      "byteType": 1176,
      "count": 31
    },
    {
      "componentType": 5126,
      "type": "VEC2",
      "bufferView": 15,
      "byteOffset": 0,
      "byteType": 357,
      "count": 19
    },
    {
      "componentType": 5123,
      "type": "SCALAR",
      "bufferView": 16,
      "byteOffset": 0,
      "byteType": 994,
      "count": 18
    },
    {
      "componentType": 5126,
      "type": "VEC3",
      "bufferView": 17,
      "byteOffset": 0,
      "byteType": 659,
      "count": 2,
      "min": [
        -0.751472592353821,
        2.22544693946838,
        -0.0174432154744864
      ],
      "max": [
        0.753633320331573,
        2.92781233787537,
        0.0025575808249414
      ]
    },
    {
      "componentType": 5126,
      "type": "VEC3",
      "bufferView": 18,
      "byteOffset": 0,
      "byteType": 469,
      "count": 14
    },
    {
      "componentType": 5126,
      "type": "VEC2",
      "bufferView": 19,
      "byteOffset": 0,
      "byteType": 543,
      "count": 2
    },
    {
      "componentType": 5126,
      "type": "VEC2",
      "bufferView": 20,
      "byteOffset": 0,
      "byteType": 1852,
      "count": 14
    },
    {
      "componentType": 5123,
      "type": "SCALAR",
      "bufferView": 21,
      "byteOffset": 0,
      "byteType": 1653,
      "count": 1146
    },
    {
      "componentType": 5126,
      "type": "VEC3",
      "bufferView": 22,
      "byteOffset": 0,
      "byteType": 885,
      "count": 262,
      "min": [
        0.636391878128052,
        1.01073384284973,
        -0.137991115450859
      ],
      "max": [
        0.658044576644897,
        1.43573403358459,
        0.137990817427635
      ]
    },
    {
      "componentType": 5126,
      "type": "VEC3",
      "bufferView": 23,
      "byteOffset": 0,
      "byteType": 871,
      "count": 250
    },
    {
      "componentType": 5126,
      "type": "VEC2",
      "bufferView": 24,
      "byteOffset": 0,
      "byteType": 1377,
      "count": 262
    },
    {
      "componentType": 5126,
      "type": "VEC2",
      "bufferView": 25,
      "byteOffset": 0,
      "byteType": 1853,
      "count": 250
    },
    {
      "componentType": 5123,
      "type": "SCALAR",
      "bufferView": 26,
      "byteOffset": 0,
      "byteType": 1256,
      "count": 1158
    },
    {
      "componentType": 5126,
      "type": "VEC3",
      "bufferView": 27,
      "byteOffset": 0,
      "byteType": 1591,
      "count": 250,
      "min": [
        -0.650916039943695,
        1.01073384284973,
        -0.137991145253181
      ],
      "max": [
        -0.629267156124115,
        1.43573403358459,
        0.137990787625313
      ]
    },
    {
      "componentType": 5126,
      "type": "VEC3",
      "bufferView": 28,
      "byteOffset": 0,
      "byteType": 1415,
      "count": 262
    },
    {
      "componentType": 5126,
      "type": "VEC2",
      "bufferView": 29,
      "byteOffset": 0,
      "byteType": 1655,
      "count": 250
    },
    {
      "componentType": 5126,
      "type": "VEC2",
      "bufferView": 30,
      "byteOffset": 0,
      "byteType": 1246,
      "count": 262
    },
    {
      "componentType": 5123,
      "type": "SCALAR",
      "bufferView": 31,
      "byteOffset": 0,
      "byteType": 1675,
      "count": 102
    },
    {
      "componentType": 5126,
      "type": "VEC3",
      "bufferView": 32,
      "byteOffset": 0,
      "byteType": 1799,
      "count": 66,
      "min": [
        -0.814016401767731,
        1.44939036772485E-07,
        -0.0574422404170036
      ],
      "max": [
        0.814016222953796,
        3.0,
        0.0425588041543961
      ]
    },
    {
      "componentType": 5126,
      "type": "VEC3",
      "bufferView": 33,
      "byteOffset": 0,
      "byteType": 1009,
      "count": 54
    },
    {
      "componentType": 5126,
      "type": "VEC2",
      "bufferView": 34,
      "byteOffset": 0,
      "byteType": 1664,
      "count": 66
    },
    {
      "componentType": 5126,
      "type": "VEC2",
      "bufferView": 35,
      "byteOffset": 0,
      "byteType": 633,
      "count": 54
    },
    {
      "componentType": 5123,
      "type": "SCALAR",
      "bufferView": 36,
      "byteOffset": 0,
      "byteType": 1721,
      "count": 18
    },
    {
      "componentType": 5126,
      "type": "VEC3",
      "bufferView": 37,
      "byteOffset": 0,
      "byteType": 1865,
      "count": 2,
      "min": [
        -0.00161621090956032,
        1.10555505752563,
        -0.0221531968563795
      ],
      "max": [
        0.750935554504395,
        1.37263810634613,
        0.00652155466377735
      ]
    },
    {
      "componentType": 5126,
      "type": "VEC3",
      "bufferView": 38,
      "byteOffset": 0,
      "byteType": 722,
      "count": 14
    },
    {
      "componentType": 5126,
      "type": "VEC2",
      "bufferView": 39,
      "byteOffset": 0,
      "byteType": 683,
      "count": 2
    },
    {
      "componentType": 5126,
      "type": "VEC2",
      "bufferView": 40,
      "byteOffset": 0,
      "byteType": 1873,
      "count": 14
    },
    {
      "componentType": 5123,
      "type": "SCALAR",
      "bufferView": 41,
      "byteOffset": 0,
      "byteType": 1035,
      "count": 6
    },
    {
      "componentType": 5126,
      "type": "VEC3",
      "bufferView": 42,
      "byteOffset": 0,
      "byteType": 1820,
      "count": 14,
      "min": [
        -0.741400897502899,
        1.10555505752563,
        -0.0221527293324471
      ],
      "max": [
        0.0111516127362847,
        1.37263786792755,
        0.00652155233547091
      ]
    },
    {
      "componentType": 5126,
      "type": "VEC3",
      "bufferView": 43,
      "byteOffset": 0,
      "byteType": 1265,
      "count": 2
    },
    {
      "componentType": 5126,
      "type": "VEC2",
      "bufferView": 44,
      "byteOffset": 0,
      "byteType": 227,
      "count": 14
    },
    {
      "componentType": 5126,
      "type": "VEC2",
      "bufferView": 45,
      "byteOffset": 0,
      "byteType": 1861,
      "count": 2
    }
  ],
  "nodes": [
    {
      "name": "RootNode",
      "translation": [
        0.0,
        0.0,
        0.0
      ],
      "rotation": [
        0.0,
        0.0,
        0.0,
        1.0
      ],
      "scale": [
        1.0,
        1.0,
        1.0
      ],
      "children": [
        1
      ]
    },
    {
      "name": "Body",
      "translation": [
        0.0,
        0.0,
        0.0
      ],
      "rotation": [
        2.1855694143369E-08,
        0.0,
        0.0,
        1.0
      ],
      "scale": [
        1.0,
        1.0,
        1.0
      ],
      "children": [
        2,
        7
      ]
    },
    {
      "name": "Controller",
      "translation": [
        0.0,
        0.0,
        0.0
      ],
      "rotation": [
        3.30872245021211E-24,
        0.0,
        0.0,
        1.0
      ],
      "scale": [
        1.0,
        1.0,
        1.0
      ],
      "children": [
        3,
        5
      ]
    },
    {
      "name": "LeftPiovt",
      "translation": [
        -0.74985671043396,
        4.65661287307739E-10,
        0.00744182989001274
      ],
      "rotation": [
        0.0,
        0.0,
        0.0,
        1.0
      ],
      "scale": [
        1.0,
        1.0,
        1.0
      ],
      "children": [
        4
      ]
    },
    {
      "name": "对象02",
      "translation": [
        0.0,
        0.0,
        0.0
      ],
      "rotation": [
        3.30872245021211E-24,
        0.0,
        0.0,
        1.0
      ],
      "scale": [
        1.0,
        1.0,
        1.0
      ],
      "mesh": 0
    },
    {
      "name": "RightPiovt",
      "translation": [
        0.742479979991913,
        4.65661287307739E-10,
        0.00744182989001274
      ],
      "rotation": [
        0.0,
        0.0,
        0.0,
        1.0
      ],
      "scale": [
        1.0,
        1.0,
        1.0
      ],
      "children": [
        6
      ]
    },
    {
      "name": "对象01",
      "translation": [
        0.0,
        0.0,
        0.0
      ],
      "rotation": [
        3.30872245021211E-24,
        0.0,
        0.0,
        1.0
      ],
      "scale": [
        1.0,
        1.0,
        1.0
      ],
      "mesh": 1
    },
    {
      "name": "MENKUANG",
      "translation": [
        0.0,
        0.0,
        0.0
      ],
      "rotation": [
        3.30872245021211E-24,
        0.0,
        0.0,
        1.0
      ],
      "scale": [
        1.0,
        1.0,
        1.0
      ],
      "children": [
        8
      ]
    },
    {
      "name": "Lo_DoorA_01",
      "translation": [
        0.0,
        4.65661287307739E-10,
        0.00744182989001274
      ],
      "rotation": [
        0.0,
        0.0,
        0.0,
        1.0
      ],
      "scale": [
        1.0,
        1.0,
        1.0
      ],
      "mesh": 2
    }
  ],
  "asset": {
    "generator": "FBX2glTF",
    "version": "2.0"
  },
  "scene": 0,
  "scenes": [
    {
      "name": "Root Scene",
      "nodes": [
        0
      ]
    }
  ],
  "samplers": [
    {}
  ],
  "animations": [
    {
      "name": "Auto_Open",
      "channels": [
        {
          "sampler": 0,
          "target": {
            "node": 3,
            "path": "rotation"
          }
        },
        {
          "sampler": 1,
          "target": {
            "node": 5,
            "path": "rotation"
          }
        }
      ],
      "samplers": [
        {
          "input": 0,
          "interpolation": "LINEAR",
          "output": 1
        },
        {
          "input": 0,
          "interpolation": "LINEAR",
          "output": 2
        }
      ]
    },
    {
      "name": "Auto_Close",
      "channels": [
        {
          "sampler": 0,
          "target": {
            "node": 3,
            "path": "rotation"
          }
        },
        {
          "sampler": 1,
          "target": {
            "node": 5,
            "path": "rotation"
          }
        }
      ],
      "samplers": [
        {
          "input": 3,
          "interpolation": "LINEAR",
          "output": 4
        },
        {
          "input": 3,
          "interpolation": "LINEAR",
          "output": 5
        }
      ]
    }
  ]
}
