{
  "materials": [
    {
      "name": "RoofshuiniPeiDianShi.bmp",
      "occlusionTexture": {
        "index": 0,
        "texCoord": 1
      },
      "pbrMetallicRoughness": {
        "baseColorTexture": {
          "index": 1,
          "texCoord": 0
        },
        "baseColorFactor": [
          1.0,
          1.0,
          1.0,
          1.0
        ],
        "metallicFactor": 0.099999994,
        "roughnessFactor": 1
      },
      "alphaMode": "OPAQUE",
      "normalTexture": {
        "index": 2,
        "texCoord": 0,
        "scale": 1.66666663
      }
    },
    {
      "name": "xlmy00800_yellowPeiDianShi.bmp",
      "occlusionTexture": {
        "index": 0,
        "texCoord": 1
      },
      "pbrMetallicRoughness": {
        "baseColorTexture": {
          "index": 3,
          "texCoord": 0
        },
        "baseColorFactor": [
          1.0,
          1.0,
          1.0,
          1.0
        ],
        "metallicFactor": 0.099999994,
        "roughnessFactor": 1
      },
      "alphaMode": "OPAQUE",
      "normalTexture": {
        "index": 4,
        "texCoord": 0,
        "scale": 0.3333333
      }
    },
    {
      "name": "GridPeiDianShi.bmp",
      "occlusionTexture": {
        "index": 0,
        "texCoord": 1
      },
      "pbrMetallicRoughness": {
        "baseColorTexture": {
          "index": 5,
          "texCoord": 0
        },
        "baseColorFactor": [
          1.0,
          1.0,
          1.0,
          1.0
        ],
        "metallicFactor": 0,
        "roughnessFactor": 1
      },
      "alphaMode": "OPAQUE",
      "normalTexture": {
        "index": 6,
        "texCoord": 0,
        "scale": 3.33333325
      }
    },
    {
      "name": "doorwhite002PeiDianShi.bmp",
      "occlusionTexture": {
        "index": 0,
        "texCoord": 1
      },
      "pbrMetallicRoughness": {
        "baseColorTexture": {
          "index": 7,
          "texCoord": 0
        },
        "baseColorFactor": [
          1.0,
          1.0,
          1.0,
          1.0
        ],
        "metallicFactor": 0,
        "roughnessFactor": 1
      },
      "alphaMode": "OPAQUE",
      "normalTexture": {
        "index": 8,
        "texCoord": 0,
        "scale": 1.66666663
      }
    },
    {
      "name": "xlmy00800PeiDianShi.bmp",
      "occlusionTexture": {
        "index": 0,
        "texCoord": 1
      },
      "pbrMetallicRoughness": {
        "baseColorTexture": {
          "index": 9,
          "texCoord": 0
        },
        "baseColorFactor": [
          1.0,
          1.0,
          1.0,
          1.0
        ],
        "metallicFactor": 0.099999994,
        "roughnessFactor": 1
      },
      "alphaMode": "OPAQUE",
      "normalTexture": {
        "index": 4,
        "texCoord": 0,
        "scale": 0.3333333
      }
    },
    {
      "name": "xlmy00800_blackPeiDianShi.bmp",
      "occlusionTexture": {
        "index": 0,
        "texCoord": 1
      },
      "pbrMetallicRoughness": {
        "baseColorTexture": {
          "index": 10,
          "texCoord": 0
        },
        "baseColorFactor": [
          1.0,
          1.0,
          1.0,
          1.0
        ],
        "metallicFactor": 0.099999994,
        "roughnessFactor": 1
      },
      "alphaMode": "OPAQUE",
      "normalTexture": {
        "index": 11,
        "texCoord": 0,
        "scale": 1.00000012
      }
    },
    {
      "name": "windows001PeiDianShi.bmp",
      "occlusionTexture": {
        "index": 0,
        "texCoord": 1
      },
      "pbrMetallicRoughness": {
        "baseColorTexture": {
          "index": 12,
          "texCoord": 0
        },
        "baseColorFactor": [
          1.0,
          1.0,
          1.0,
          1.0
        ],
        "metallicFactor": 0.599999964,
        "roughnessFactor": 0.0
      },
      "alphaMode": "OPAQUE"
    }
  ],
  "images": [
    {
      "uri": "CWNNRUDKP9J7GAOT2I3W1XT2SY7ZIO3Z7.jpg"
    },
    {
      "uri": "QEWA8TZ0VMZ87DHTVE97S4J0U2FNCTON1.jpg"
    },
    {
      "uri": "I9UK58162JWN49WV4HAT84AZCE7J2XT18.jpg"
    },
    {
      "uri": "Y1WW238VGJP05UAUWXZU6I1P0C8UCRJD1.jpg"
    },
    {
      "uri": "TAPWQTTNOO62ETDAIMAZUR96SGU6WX12I.jpg"
    },
    {
      "uri": "OQ4WQ9YOC8U2MAQPIIZZWI1T0Q37QR982.jpg"
    },
    {
      "uri": "XJY7I8APQT8YWDJY0R3J8XJ8SGQ805W4I.jpg"
    },
    {
      "uri": "TFZCY146MUW7GJYAV414KTE2KD1W05H02.jpg"
    },
    {
      "uri": "XH0WOWAD1G87SR8P727NUR868E86NQ8NC.jpg"
    },
    {
      "uri": "P12NAQOY6C801QF8SXA4IRQ10IUZCP3NQ.jpg"
    },
    {
      "uri": "GWZCMQJUMAYOIE4VIEAD8QJNQMA71XO1V.jpg"
    },
    {
      "uri": "TT774Q1I4E7SDE7ANMH68P8NS2O4UDWD0.jpg"
    },
    {
      "uri": "T3N2OHYIT76827YAVI177C7WQME8UQ3ZU.jpg"
    }
  ],
  "textures": [
    {
      "name": "PeiDianShi_f_bmp.jpg",
      "sampler": 0,
      "source": 0
    },
    {
      "name": "Roofshuini.jpg",
      "sampler": 0,
      "source": 1
    },
    {
      "name": "RoofshuiniNOR.jpg",
      "sampler": 0,
      "source": 2
    },
    {
      "name": "xlmy00800_yellow0.jpg",
      "sampler": 0,
      "source": 3
    },
    {
      "name": "xlmy008_normal2.jpg",
      "sampler": 0,
      "source": 4
    },
    {
      "name": "Grid.jpg",
      "sampler": 0,
      "source": 5
    },
    {
      "name": "Grid_NRM.jpg",
      "sampler": 0,
      "source": 6
    },
    {
      "name": "doorwhite002.jpg",
      "sampler": 0,
      "source": 7
    },
    {
      "name": "doorwhite002_NRM.jpg",
      "sampler": 0,
      "source": 8
    },
    {
      "name": "xlmy00800.jpg",
      "sampler": 0,
      "source": 9
    },
    {
      "name": "xlmy00800_black.jpg",
      "sampler": 0,
      "source": 10
    },
    {
      "name": "xlmy008_normal.jpg",
      "sampler": 0,
      "source": 11
    },
    {
      "name": "windows001.jpg",
      "sampler": 0,
      "source": 12
    }
  ],
  "meshes": [
    {
      "name": "PeiDianShi",
      "primitives": [
        {
          "material": 0,
          "mode": 4,
          "indices": 0,
          "attributes": {
            "COLOR_0": 3,
            "NORMAL": 2,
            "POSITION": 1,
            "TEXCOORD_0": 4,
            "TEXCOORD_1": 5
          }
        },
        {
          "material": 1,
          "mode": 4,
          "indices": 6,
          "attributes": {
            "COLOR_0": 9,
            "NORMAL": 8,
            "POSITION": 7,
            "TEXCOORD_0": 10,
            "TEXCOORD_1": 11
          }
        },
        {
          "material": 2,
          "mode": 4,
          "indices": 12,
          "attributes": {
            "COLOR_0": 15,
            "NORMAL": 14,
            "POSITION": 13,
            "TEXCOORD_0": 16,
            "TEXCOORD_1": 17
          }
        },
        {
          "material": 3,
          "mode": 4,
          "indices": 18,
          "attributes": {
            "COLOR_0": 21,
            "NORMAL": 20,
            "POSITION": 19,
            "TEXCOORD_0": 22,
            "TEXCOORD_1": 23
          }
        },
        {
          "material": 4,
          "mode": 4,
          "indices": 24,
          "attributes": {
            "COLOR_0": 27,
            "NORMAL": 26,
            "POSITION": 25,
            "TEXCOORD_0": 28,
            "TEXCOORD_1": 29
          }
        },
        {
          "material": 5,
          "mode": 4,
          "indices": 30,
          "attributes": {
            "COLOR_0": 33,
            "NORMAL": 32,
            "POSITION": 31,
            "TEXCOORD_0": 34,
            "TEXCOORD_1": 35
          }
        },
        {
          "material": 6,
          "mode": 4,
          "indices": 36,
          "attributes": {
            "COLOR_0": 39,
            "NORMAL": 38,
            "POSITION": 37,
            "TEXCOORD_0": 40,
            "TEXCOORD_1": 41
          }
        }
      ]
    }
  ],
  "buffers": [
    {
      "byteLength": 53139,
      "uri": "IEWSG87SQOTOIAUQ4QAJIXU8IIJ6OO8WO.bin"
    }
  ],
  "bufferViews": [
    {
      "buffer": 0,
      "target": 34963,
      "byteLength": 42,
      "byteOffset": 0
    },
    {
      "buffer": 0,
      "target": 34962,
      "byteLength": 48,
      "byteOffset": 192
    },
    {
      "buffer": 0,
      "target": 34962,
      "byteLength": 228,
      "byteOffset": 60
    },
    {
      "buffer": 0,
      "target": 34962,
      "byteLength": 64,
      "byteOffset": 348
    },
    {
      "buffer": 0,
      "target": 34962,
      "byteLength": 152,
      "byteOffset": 172
    },
    {
      "buffer": 0,
      "target": 34962,
      "byteLength": 32,
      "byteOffset": 324
    },
    {
      "buffer": 0,
      "target": 34963,
      "byteLength": 2070,
      "byteOffset": 236
    },
    {
      "buffer": 0,
      "target": 34962,
      "byteLength": 5148,
      "byteOffset": 2456
    },
    {
      "buffer": 0,
      "target": 34962,
      "byteLength": 5508,
      "byteOffset": 7604
    },
    {
      "buffer": 0,
      "target": 34962,
      "byteLength": 6864,
      "byteOffset": 13172
    },
    {
      "buffer": 0,
      "target": 34962,
      "byteLength": 3672,
      "byteOffset": 20036
    },
    {
      "buffer": 0,
      "target": 34962,
      "byteLength": 3432,
      "byteOffset": 23708
    },
    {
      "buffer": 0,
      "target": 34963,
      "byteLength": 54,
      "byteOffset": 27140
    },
    {
      "buffer": 0,
      "target": 34962,
      "byteLength": 96,
      "byteOffset": 27344
    },
    {
      "buffer": 0,
      "target": 34962,
      "byteLength": 276,
      "byteOffset": 27260
    },
    {
      "buffer": 0,
      "target": 34962,
      "byteLength": 128,
      "byteOffset": 27596
    },
    {
      "buffer": 0,
      "target": 34962,
      "byteLength": 184,
      "byteOffset": 27484
    },
    {
      "buffer": 0,
      "target": 34962,
      "byteLength": 64,
      "byteOffset": 27668
    },
    {
      "buffer": 0,
      "target": 34963,
      "byteLength": 114,
      "byteOffset": 27612
    },
    {
      "buffer": 0,
      "target": 34962,
      "byteLength": 156,
      "byteOffset": 27876
    },
    {
      "buffer": 0,
      "target": 34962,
      "byteLength": 516,
      "byteOffset": 28032
    },
    {
      "buffer": 0,
      "target": 34962,
      "byteLength": 208,
      "byteOffset": 28608
    },
    {
      "buffer": 0,
      "target": 34962,
      "byteLength": 344,
      "byteOffset": 28816
    },
    {
      "buffer": 0,
      "target": 34962,
      "byteLength": 104,
      "byteOffset": 29160
    },
    {
      "buffer": 0,
      "target": 34963,
      "byteLength": 318,
      "byteOffset": 29264
    },
    {
      "buffer": 0,
      "target": 34962,
      "byteLength": 492,
      "byteOffset": 29732
    },
    {
      "buffer": 0,
      "target": 34962,
      "byteLength": 852,
      "byteOffset": 30224
    },
    {
      "buffer": 0,
      "target": 34962,
      "byteLength": 656,
      "byteOffset": 31136
    },
    {
      "buffer": 0,
      "target": 34962,
      "byteLength": 568,
      "byteOffset": 31792
    },
    {
      "buffer": 0,
      "target": 34962,
      "byteLength": 328,
      "byteOffset": 32360
    },
    {
      "buffer": 0,
      "target": 34963,
      "byteLength": 918,
      "byteOffset": 32688
    },
    {
      "buffer": 0,
      "target": 34962,
      "byteLength": 3444,
      "byteOffset": 33756
    },
    {
      "buffer": 0,
      "target": 34962,
      "byteLength": 3804,
      "byteOffset": 37200
    },
    {
      "buffer": 0,
      "target": 34962,
      "byteLength": 4592,
      "byteOffset": 41064
    },
    {
      "buffer": 0,
      "target": 34962,
      "byteLength": 2536,
      "byteOffset": 45656
    },
    {
      "buffer": 0,
      "target": 34962,
      "byteLength": 2296,
      "byteOffset": 48192
    },
    {
      "buffer": 0,
      "target": 34963,
      "byteLength": 114,
      "byteOffset": 50488
    },
    {
      "buffer": 0,
      "target": 34962,
      "byteLength": 156,
      "byteOffset": 50752
    },
    {
      "buffer": 0,
      "target": 34962,
      "byteLength": 516,
      "byteOffset": 50908
    },
    {
      "buffer": 0,
      "target": 34962,
      "byteLength": 208,
      "byteOffset": 51484
    },
    {
      "buffer": 0,
      "target": 34962,
      "byteLength": 344,
      "byteOffset": 51692
    },
    {
      "buffer": 0,
      "target": 34962,
      "byteLength": 104,
      "byteOffset": 52036
    }
  ],
  "accessors": [
    {
      "componentType": 5123,
      "type": "SCALAR",
      "bufferView": 0,
      "byteOffset": 0,
      "byteType": 343,
      "count": 21
    },
    {
      "componentType": 5126,
      "type": "VEC3",
      "bufferView": 1,
      "byteOffset": 0,
      "byteType": 300,
      "count": 4,
      "min": [
        -6.9300012588501,
        -10.5699996948242,
        5.00000095367432
      ],
      "max": [
        6.92999839782715,
        10.5699996948242,
        5.00000095367432
      ]
    },
    {
      "componentType": 5126,
      "type": "VEC3",
      "bufferView": 2,
      "byteOffset": 0,
      "byteType": 413,
      "count": 19
    },
    {
      "componentType": 5126,
      "type": "VEC4",
      "bufferView": 3,
      "byteOffset": 0,
      "byteType": 1096,
      "count": 4
    },
    {
      "componentType": 5126,
      "type": "VEC2",
      "bufferView": 4,
      "byteOffset": 0,
      "byteType": 746,
      "count": 19
    },
    {
      "componentType": 5126,
      "type": "VEC2",
      "bufferView": 5,
      "byteOffset": 0,
      "byteType": 938,
      "count": 4
    },
    {
      "componentType": 5123,
      "type": "SCALAR",
      "bufferView": 6,
      "byteOffset": 0,
      "byteType": 702,
      "count": 1035
    },
    {
      "componentType": 5126,
      "type": "VEC3",
      "bufferView": 7,
      "byteOffset": 0,
      "byteType": 951,
      "count": 429,
      "min": [
        -7.4300012588501,
        -11.0699996948242,
        9.5367431640625E-07
      ],
      "max": [
        7.42999839782715,
        11.0699996948242,
        6.00000095367432
      ]
    },
    {
      "componentType": 5126,
      "type": "VEC3",
      "bufferView": 8,
      "byteOffset": 0,
      "byteType": 865,
      "count": 459
    },
    {
      "componentType": 5126,
      "type": "VEC4",
      "bufferView": 9,
      "byteOffset": 0,
      "byteType": 727,
      "count": 429
    },
    {
      "componentType": 5126,
      "type": "VEC2",
      "bufferView": 10,
      "byteOffset": 0,
      "byteType": 737,
      "count": 459
    },
    {
      "componentType": 5126,
      "type": "VEC2",
      "bufferView": 11,
      "byteOffset": 0,
      "byteType": 1917,
      "count": 429
    },
    {
      "componentType": 5123,
      "type": "SCALAR",
      "bufferView": 12,
      "byteOffset": 0,
      "byteType": 645,
      "count": 27
    },
    {
      "componentType": 5126,
      "type": "VEC3",
      "bufferView": 13,
      "byteOffset": 0,
      "byteType": 768,
      "count": 8,
      "min": [
        2.5329532623291,
        7.64681577682495,
        0.980001091957092
      ],
      "max": [
        7.22999858856201,
        10.8700008392334,
        3.22000098228455
      ]
    },
    {
      "componentType": 5126,
      "type": "VEC3",
      "bufferView": 14,
      "byteOffset": 0,
      "byteType": 1808,
      "count": 23
    },
    {
      "componentType": 5126,
      "type": "VEC4",
      "bufferView": 15,
      "byteOffset": 0,
      "byteType": 564,
      "count": 8
    },
    {
      "componentType": 5126,
      "type": "VEC2",
      "bufferView": 16,
      "byteOffset": 0,
      "byteType": 1447,
      "count": 23
    },
    {
      "componentType": 5126,
      "type": "VEC2",
      "bufferView": 17,
      "byteOffset": 0,
      "byteType": 740,
      "count": 8
    },
    {
      "componentType": 5123,
      "type": "SCALAR",
      "bufferView": 18,
      "byteOffset": 0,
      "byteType": 323,
      "count": 57
    },
    {
      "componentType": 5126,
      "type": "VEC3",
      "bufferView": 19,
      "byteOffset": 0,
      "byteType": 1839,
      "count": 13,
      "min": [
        -7.23000144958496,
        -10.8699989318848,
        0.210000216960907
      ],
      "max": [
        7.22999858856201,
        10.8700017929077,
        2.40000128746033
      ]
    },
    {
      "componentType": 5126,
      "type": "VEC3",
      "bufferView": 20,
      "byteOffset": 0,
      "byteType": 1023,
      "count": 43
    },
    {
      "componentType": 5126,
      "type": "VEC4",
      "bufferView": 21,
      "byteOffset": 0,
      "byteType": 389,
      "count": 13
    },
    {
      "componentType": 5126,
      "type": "VEC2",
      "bufferView": 22,
      "byteOffset": 0,
      "byteType": 345,
      "count": 43
    },
    {
      "componentType": 5126,
      "type": "VEC2",
      "bufferView": 23,
      "byteOffset": 0,
      "byteType": 1833,
      "count": 13
    },
    {
      "componentType": 5123,
      "type": "SCALAR",
      "bufferView": 24,
      "byteOffset": 0,
      "byteType": 331,
      "count": 159
    },
    {
      "componentType": 5126,
      "type": "VEC3",
      "bufferView": 25,
      "byteOffset": 0,
      "byteType": 265,
      "count": 41,
      "min": [
        -7.4300012588501,
        -11.0699996948242,
        5.00000095367432
      ],
      "max": [
        7.42999839782715,
        11.0699996948242,
        6.00000095367432
      ]
    },
    {
      "componentType": 5126,
      "type": "VEC3",
      "bufferView": 26,
      "byteOffset": 0,
      "byteType": 1846,
      "count": 71
    },
    {
      "componentType": 5126,
      "type": "VEC4",
      "bufferView": 27,
      "byteOffset": 0,
      "byteType": 973,
      "count": 41
    },
    {
      "componentType": 5126,
      "type": "VEC2",
      "bufferView": 28,
      "byteOffset": 0,
      "byteType": 596,
      "count": 71
    },
    {
      "componentType": 5126,
      "type": "VEC2",
      "bufferView": 29,
      "byteOffset": 0,
      "byteType": 1635,
      "count": 41
    },
    {
      "componentType": 5123,
      "type": "SCALAR",
      "bufferView": 30,
      "byteOffset": 0,
      "byteType": 1775,
      "count": 459
    },
    {
      "componentType": 5126,
      "type": "VEC3",
      "bufferView": 31,
      "byteOffset": 0,
      "byteType": 1427,
      "count": 287,
      "min": [
        -8.57586860656738,
        -12.2158699035645,
        -8.94069671630859E-08
      ],
      "max": [
        8.57586860656738,
        12.2158699035645,
        0.210001200437546
      ]
    },
    {
      "componentType": 5126,
      "type": "VEC3",
      "bufferView": 32,
      "byteOffset": 0,
      "byteType": 921,
      "count": 317
    },
    {
      "componentType": 5126,
      "type": "VEC4",
      "bufferView": 33,
      "byteOffset": 0,
      "byteType": 1621,
      "count": 287
    },
    {
      "componentType": 5126,
      "type": "VEC2",
      "bufferView": 34,
      "byteOffset": 0,
      "byteType": 727,
      "count": 317
    },
    {
      "componentType": 5126,
      "type": "VEC2",
      "bufferView": 35,
      "byteOffset": 0,
      "byteType": 1839,
      "count": 287
    },
    {
      "componentType": 5123,
      "type": "SCALAR",
      "bufferView": 36,
      "byteOffset": 0,
      "byteType": 1129,
      "count": 57
    },
    {
      "componentType": 5126,
      "type": "VEC3",
      "bufferView": 37,
      "byteOffset": 0,
      "byteType": 663,
      "count": 13,
      "min": [
        -7.23000144958496,
        -10.8699989318848,
        1.50250101089478
      ],
      "max": [
        7.22999858856201,
        10.8700008392334,
        2.9275016784668
      ]
    },
    {
      "componentType": 5126,
      "type": "VEC3",
      "bufferView": 38,
      "byteOffset": 0,
      "byteType": 1524,
      "count": 43
    },
    {
      "componentType": 5126,
      "type": "VEC4",
      "bufferView": 39,
      "byteOffset": 0,
      "byteType": 925,
      "count": 13
    },
    {
      "componentType": 5126,
      "type": "VEC2",
      "bufferView": 40,
      "byteOffset": 0,
      "byteType": 1569,
      "count": 43
    },
    {
      "componentType": 5126,
      "type": "VEC2",
      "bufferView": 41,
      "byteOffset": 0,
      "byteType": 281,
      "count": 13
    }
  ],
  "nodes": [
    {
      "name": "RootNode",
      "translation": [
        0.0,
        0.0,
        0.0
      ],
      "rotation": [
        0.0,
        0.0,
        0.0,
        1.0
      ],
      "scale": [
        1.0,
        1.0,
        1.0
      ],
      "children": [
        1
      ]
    },
    {
      "name": "PeiDianShi",
      "translation": [
        1.43051147460938E-06,
        -9.5367431640625E-07,
        0.0
      ],
      "rotation": [
        -0.70710676908493,
        0.0,
        0.0,
        0.70710676908493
      ],
      "scale": [
        1.0,
        1.0,
        1.0
      ],
      "mesh": 0
    }
  ],
  "asset": {
    "generator": "FBX2glTF",
    "version": "2.0"
  },
  "scene": 0,
  "scenes": [
    {
      "name": "Root Scene",
      "nodes": [
        0
      ]
    }
  ],
  "samplers": [
    {}
  ]
}
