{
  "materials": [
    {
      "name": "Material_#10",
      "pbrMetallicRoughness": {
        "baseColorTexture": {
          "index": 0,
          "texCoord": 0
        },
        "baseColorFactor": [
          1.0,
          1.0,
          1.0,
          1.0
        ],
        "metallicFactor": 0.1,
        "roughnessFactor": 1
      },
      "alphaMode": "OPAQUE"
    }
  ],
  "images": [
    {
      "uri": "29119FD30ED59DA3FB498BA9579DB5D4.jpg"
    }
  ],
  "textures": [
    {
      "name": "烟感ly.jpg",
      "sampler": 0,
      "source": 0
    }
  ],
  "meshes": [
    {
      "name": "Lo-烟感ly_01",
      "primitives": [
        {
          "material": 0,
          "mode": 4,
          "indices": 0,
          "attributes": {
            "COLOR_0": 3,
            "NORMAL": 2,
            "POSITION": 1,
            "TEXCOORD_0": 4,
            "TEXCOORD_1": 5
          }
        }
      ]
    }
  ],
  "buffers": [
    {
      "byteLength": 5524,
      "uri": "D7BCC62FFE73EC1BDBF1F46ACC7F85A2.bin"
    }
  ],
  "nodes": [
    {
      "name": "RootNode",
      "translation": [
        0.0,
        0.0,
        0.0
      ],
      "rotation": [
        0.0,
        0.0,
        0.0,
        1.0
      ],
      "scale": [
        1.0,
        1.0,
        1.0
      ],
      "children": [
        1
      ]
    },
    {
      "name": "body",
      "translation": [
        -2.38398834007114E-09,
        4.59177480789956E-41,
        -5.17030107616279E-09
      ],
      "rotation": [
        -0.70710676908493,
        0.0,
        0.0,
        0.70710676908493
      ],
      "scale": [
        0.00999999977648258,
        0.00999999977648258,
        0.00999999977648258
      ],
      "children": [
        2
      ]
    },
    {
      "name": "Lo-烟感ly_01",
      "translation": [
        0.0,
        0.0,
        0.0
      ],
      "rotation": [
        0.0,
        0.0,
        0.0,
        1.0
      ],
      "scale": [
        1.0,
        1.0,
        1.0
      ],
      "mesh": 0
    }
  ],
  "asset": {
    "generator": "FBX2glTF",
    "version": "2.0"
  },
  "scene": 0,
  "bufferViews": [
    {
      "buffer": 0,
      "byteLength": 372,
      "byteOffset": 0,
      "target": 34963
    },
    {
      "buffer": 0,
      "byteLength": 1104,
      "byteOffset": 372,
      "target": 34962
    },
    {
      "buffer": 0,
      "byteLength": 1104,
      "byteOffset": 1476,
      "target": 34962
    },
    {
      "buffer": 0,
      "byteLength": 1472,
      "byteOffset": 2580,
      "target": 34962
    },
    {
      "buffer": 0,
      "byteLength": 736,
      "byteOffset": 4052,
      "target": 34962
    },
    {
      "buffer": 0,
      "byteLength": 736,
      "byteOffset": 4788,
      "target": 34962
    }
  ],
  "scenes": [
    {
      "name": "Root Scene",
      "nodes": [
        0
      ]
    }
  ],
  "accessors": [
    {
      "componentType": 5123,
      "type": "SCALAR",
      "count": 186,
      "bufferView": 0,
      "byteOffset": 0
    },
    {
      "componentType": 5126,
      "type": "VEC3",
      "count": 92,
      "bufferView": 1,
      "byteOffset": 0,
      "min": [
        -11.802659034729,
        -11.802659034729,
        0.0526924133300781
      ],
      "max": [
        11.802659034729,
        11.8026599884033,
        12.7643642425537
      ]
    },
    {
      "componentType": 5126,
      "type": "VEC3",
      "count": 92,
      "bufferView": 2,
      "byteOffset": 0
    },
    {
      "componentType": 5126,
      "type": "VEC4",
      "count": 92,
      "bufferView": 3,
      "byteOffset": 0
    },
    {
      "componentType": 5126,
      "type": "VEC2",
      "count": 92,
      "bufferView": 4,
      "byteOffset": 0
    },
    {
      "componentType": 5126,
      "type": "VEC2",
      "count": 92,
      "bufferView": 5,
      "byteOffset": 0
    }
  ],
  "samplers": [
    {}
  ]
}
