{
  "materials": [
    {
      "name": "03_-_Default楼梯2.bmp",
      "occlusionTexture": {
        "index": 0,
        "texCoord": 1
      },
      "pbrMetallicRoughness": {
        "baseColorTexture": {
          "index": 1,
          "texCoord": 0
        },
        "baseColorFactor": [
          1.0,
          1.0,
          1.0,
          1.0
        ],
        "metallicFactor": 0.099999994,
        "roughnessFactor": 1
      },
      "alphaMode": "OPAQUE"
    },
    {
      "name": "02_-_Default楼梯2.bmp",
      "occlusionTexture": {
        "index": 0,
        "texCoord": 1
      },
      "pbrMetallicRoughness": {
        "baseColorTexture": {
          "index": 2,
          "texCoord": 0
        },
        "baseColorFactor": [
          1.0,
          1.0,
          1.0,
          1.0
        ],
        "metallicFactor": 0.099999994,
        "roughnessFactor": 1
      },
      "alphaMode": "OPAQUE"
    },
    {
      "name": "01_-_Default楼梯2.bmp",
      "occlusionTexture": {
        "index": 0,
        "texCoord": 1
      },
      "pbrMetallicRoughness": {
        "baseColorTexture": {
          "index": 1,
          "texCoord": 0
        },
        "baseColorFactor": [
          1.0,
          1.0,
          1.0,
          1.0
        ],
        "metallicFactor": 0.099999994,
        "roughnessFactor": 1
      },
      "alphaMode": "OPAQUE"
    },
    {
      "name": "04_-_Default_alpha",
      "pbrMetallicRoughness": {
        "baseColorFactor": [
          0.5882353,
          0.5882353,
          0.5882353,
          0.0
        ],
        "metallicFactor": 0.099999994,
        "roughnessFactor": 1
      },
      "alphaMode": "BLEND"
    }
  ],
  "images": [
    {
      "uri": "1Q5UDS43U6KO9JOEJD8G7JNRUPNIUJSEF.jpg"
    },
    {
      "uri": "6VC87IDT31WQOU6M362PF86DQ78296SXU.jpg"
    },
    {
      "uri": "WKOW8NIED65WJ1EW736RT1N2ZWITE0NGF.jpg"
    }
  ],
  "textures": [
    {
      "name": "楼梯2_f_bmp.jpg",
      "sampler": 0,
      "source": 0
    },
    {
      "name": "8_f_png.jpg",
      "sampler": 0,
      "source": 1
    },
    {
      "name": "楼梯_f_png.jpg",
      "sampler": 0,
      "source": 2
    }
  ],
  "meshes": [
    {
      "name": "louti",
      "primitives": [
        {
          "material": 0,
          "mode": 4,
          "indices": 0,
          "attributes": {
            "COLOR_0": 3,
            "NORMAL": 2,
            "POSITION": 1,
            "TEXCOORD_0": 4,
            "TEXCOORD_1": 5
          }
        },
        {
          "material": 1,
          "mode": 4,
          "indices": 6,
          "attributes": {
            "COLOR_0": 9,
            "NORMAL": 8,
            "POSITION": 7,
            "TEXCOORD_0": 10,
            "TEXCOORD_1": 11
          }
        },
        {
          "material": 2,
          "mode": 4,
          "indices": 12,
          "attributes": {
            "COLOR_0": 15,
            "NORMAL": 14,
            "POSITION": 13,
            "TEXCOORD_0": 16,
            "TEXCOORD_1": 17
          }
        }
      ]
    },
    {
      "name": "Box001",
      "primitives": [
        {
          "material": 3,
          "mode": 4,
          "indices": 18,
          "attributes": {
            "NORMAL": 20,
            "POSITION": 19,
            "TEXCOORD_0": 21,
            "TEXCOORD_1": 22
          }
        }
      ]
    }
  ],
  "buffers": [
    {
      "byteLength": 59751,
      "uri": "88C8J0E3ANWXF20YOPND8DSP9UUEOZ8GH.bin"
    }
  ],
  "bufferViews": [
    {
      "buffer": 0,
      "target": 34963,
      "byteLength": 348,
      "byteOffset": 0
    },
    {
      "buffer": 0,
      "target": 34962,
      "byteLength": 648,
      "byteOffset": 468
    },
    {
      "buffer": 0,
      "target": 34962,
      "byteLength": 936,
      "byteOffset": 1116
    },
    {
      "buffer": 0,
      "target": 34962,
      "byteLength": 864,
      "byteOffset": 2100
    },
    {
      "buffer": 0,
      "target": 34962,
      "byteLength": 624,
      "byteOffset": 2964
    },
    {
      "buffer": 0,
      "target": 34962,
      "byteLength": 432,
      "byteOffset": 3588
    },
    {
      "buffer": 0,
      "target": 34963,
      "byteLength": 276,
      "byteOffset": 4020
    },
    {
      "buffer": 0,
      "target": 34962,
      "byteLength": 864,
      "byteOffset": 4416
    },
    {
      "buffer": 0,
      "target": 34962,
      "byteLength": 1152,
      "byteOffset": 5280
    },
    {
      "buffer": 0,
      "target": 34962,
      "byteLength": 1152,
      "byteOffset": 6480
    },
    {
      "buffer": 0,
      "target": 34962,
      "byteLength": 768,
      "byteOffset": 7632
    },
    {
      "buffer": 0,
      "target": 34962,
      "byteLength": 576,
      "byteOffset": 8400
    },
    {
      "buffer": 0,
      "target": 34963,
      "byteLength": 2424,
      "byteOffset": 8976
    },
    {
      "buffer": 0,
      "target": 34962,
      "byteLength": 9396,
      "byteOffset": 11520
    },
    {
      "buffer": 0,
      "target": 34962,
      "byteLength": 9684,
      "byteOffset": 20916
    },
    {
      "buffer": 0,
      "target": 34962,
      "byteLength": 12528,
      "byteOffset": 30648
    },
    {
      "buffer": 0,
      "target": 34962,
      "byteLength": 6456,
      "byteOffset": 43176
    },
    {
      "buffer": 0,
      "target": 34962,
      "byteLength": 6264,
      "byteOffset": 49632
    },
    {
      "buffer": 0,
      "target": 34963,
      "byteLength": 240,
      "byteOffset": 55896
    },
    {
      "buffer": 0,
      "target": 34962,
      "byteLength": 648,
      "byteOffset": 56256
    },
    {
      "buffer": 0,
      "target": 34962,
      "byteLength": 936,
      "byteOffset": 56904
    },
    {
      "buffer": 0,
      "target": 34962,
      "byteLength": 432,
      "byteOffset": 57792
    },
    {
      "buffer": 0,
      "target": 34962,
      "byteLength": 624,
      "byteOffset": 58224
    }
  ],
  "accessors": [
    {
      "componentType": 5123,
      "type": "SCALAR",
      "bufferView": 0,
      "byteOffset": 0,
      "byteType": 938,
      "count": 174
    },
    {
      "componentType": 5126,
      "type": "VEC3",
      "bufferView": 1,
      "byteOffset": 0,
      "byteType": 803,
      "count": 54,
      "min": [
        -1.67385900020599,
        -0.549996972084045,
        -8.32393141081411E-08
      ],
      "max": [
        1.67385911941528,
        0.549996972084045,
        2.79583239555359
      ]
    },
    {
      "componentType": 5126,
      "type": "VEC3",
      "bufferView": 2,
      "byteOffset": 0,
      "byteType": 674,
      "count": 78
    },
    {
      "componentType": 5126,
      "type": "VEC4",
      "bufferView": 3,
      "byteOffset": 0,
      "byteType": 729,
      "count": 54
    },
    {
      "componentType": 5126,
      "type": "VEC2",
      "bufferView": 4,
      "byteOffset": 0,
      "byteType": 1956,
      "count": 78
    },
    {
      "componentType": 5126,
      "type": "VEC2",
      "bufferView": 5,
      "byteOffset": 0,
      "byteType": 1417,
      "count": 54
    },
    {
      "componentType": 5123,
      "type": "SCALAR",
      "bufferView": 6,
      "byteOffset": 0,
      "byteType": 1650,
      "count": 138
    },
    {
      "componentType": 5126,
      "type": "VEC3",
      "bufferView": 7,
      "byteOffset": 0,
      "byteType": 1241,
      "count": 72,
      "min": [
        -1.67385900020599,
        -0.549996972084045,
        0.254166543483734
      ],
      "max": [
        1.67385911941528,
        0.549996972084045,
        2.79583239555359
      ]
    },
    {
      "componentType": 5126,
      "type": "VEC3",
      "bufferView": 8,
      "byteOffset": 0,
      "byteType": 837,
      "count": 96
    },
    {
      "componentType": 5126,
      "type": "VEC4",
      "bufferView": 9,
      "byteOffset": 0,
      "byteType": 823,
      "count": 72
    },
    {
      "componentType": 5126,
      "type": "VEC2",
      "bufferView": 10,
      "byteOffset": 0,
      "byteType": 1204,
      "count": 96
    },
    {
      "componentType": 5126,
      "type": "VEC2",
      "bufferView": 11,
      "byteOffset": 0,
      "byteType": 573,
      "count": 72
    },
    {
      "componentType": 5123,
      "type": "SCALAR",
      "bufferView": 12,
      "byteOffset": 0,
      "byteType": 1954,
      "count": 1212
    },
    {
      "componentType": 5126,
      "type": "VEC3",
      "bufferView": 13,
      "byteOffset": 0,
      "byteType": 1535,
      "count": 783,
      "min": [
        -1.67142486572266,
        -0.534892559051514,
        0.253320753574371
      ],
      "max": [
        1.67113614082336,
        0.534821927547455,
        3.89148426055908
      ]
    },
    {
      "componentType": 5126,
      "type": "VEC3",
      "bufferView": 14,
      "byteOffset": 0,
      "byteType": 745,
      "count": 807
    },
    {
      "componentType": 5126,
      "type": "VEC4",
      "bufferView": 15,
      "byteOffset": 0,
      "byteType": 373,
      "count": 783
    },
    {
      "componentType": 5126,
      "type": "VEC2",
      "bufferView": 16,
      "byteOffset": 0,
      "byteType": 1590,
      "count": 807
    },
    {
      "componentType": 5126,
      "type": "VEC2",
      "bufferView": 17,
      "byteOffset": 0,
      "byteType": 1991,
      "count": 783
    },
    {
      "componentType": 5123,
      "type": "SCALAR",
      "bufferView": 18,
      "byteOffset": 0,
      "byteType": 1954,
      "count": 120
    },
    {
      "componentType": 5126,
      "type": "VEC3",
      "bufferView": 19,
      "byteOffset": 0,
      "byteType": 357,
      "count": 54,
      "min": [
        -1.53990340232849,
        -1.20744872093201,
        -0.166859269142151
      ],
      "max": [
        1.53990340232849,
        0.0409978032112122,
        2.64278960227966
      ]
    },
    {
      "componentType": 5126,
      "type": "VEC3",
      "bufferView": 20,
      "byteOffset": 0,
      "byteType": 1853,
      "count": 78
    },
    {
      "componentType": 5126,
      "type": "VEC2",
      "bufferView": 21,
      "byteOffset": 0,
      "byteType": 661,
      "count": 54
    },
    {
      "componentType": 5126,
      "type": "VEC2",
      "bufferView": 22,
      "byteOffset": 0,
      "byteType": 1502,
      "count": 78
    }
  ],
  "nodes": [
    {
      "name": "RootNode",
      "translation": [
        0.0,
        0.0,
        0.0
      ],
      "rotation": [
        0.0,
        0.0,
        0.0,
        1.0
      ],
      "scale": [
        1.0,
        1.0,
        1.0
      ],
      "children": [
        1,
        2
      ]
    },
    {
      "name": "louti",
      "translation": [
        0.0,
        0.0,
        4.05157152272295E-08
      ],
      "rotation": [
        -0.70710676908493,
        0.0,
        0.0,
        0.70710676908493
      ],
      "scale": [
        0.892650365829468,
        1.09316027164459,
        0.596028745174408
      ],
      "mesh": 0
    },
    {
      "name": "Box001",
      "translation": [
        -0.00563853979110718,
        0.0,
        -0.580702066421509
      ],
      "rotation": [
        -0.70710676908493,
        0.0,
        0.0,
        0.70710676908493
      ],
      "scale": [
        1.0,
        1.0,
        1.0
      ]
    }
  ],
  "asset": {
    "generator": "FBX2glTF",
    "version": "2.0"
  },
  "scene": 0,
  "scenes": [
    {
      "name": "Root Scene",
      "nodes": [
        0
      ]
    }
  ],
  "samplers": [
    {}
  ]
}
