{
  "materials": [
    {
      "name": "Std_白色枪式摄像机.jpg",
      "pbrMetallicRoughness": {
        "baseColorTexture": {
          "index": 0,
          "texCoord": 0
        },
        "baseColorFactor": [
          1.0,
          1.0,
          1.0,
          1.0
        ],
        "metallicFactor": 0.1,
        "roughnessFactor": 0.95
      },
      "alphaMode": "OPAQUE"
    }
  ],
  "images": [
    {
      "uri": "56EDA0D12A542170790D06B069AB6612.jpg"
    }
  ],
  "textures": [
    {
      "name": "白色枪式摄像机.jpg",
      "sampler": 0,
      "source": 0
    }
  ],
  "meshes": [
    {
      "name": "Lo-BODY_01",
      "primitives": [
        {
          "material": 0,
          "mode": 4,
          "indices": 0,
          "attributes": {
            "COLOR_0": 3,
            "NORMAL": 2,
            "POSITION": 1,
            "TEXCOORD_0": 4,
            "TEXCOORD_1": 5
          }
        }
      ]
    }
  ],
  "buffers": [
    {
      "byteLength": 96052,
      "uri": "7159FEFF47ECF809D8D46DE5210AB90B.bin"
    }
  ],
  "nodes": [
    {
      "name": "RootNode",
      "translation": [
        0.0,
        0.0,
        0.0
      ],
      "rotation": [
        0.0,
        0.0,
        0.0,
        1.0
      ],
      "scale": [
        1.0,
        1.0,
        1.0
      ],
      "children": [
        1
      ]
    },
    {
      "name": "body",
      "translation": [
        0.0821599364280701,
        7.70371977754894E-34,
        -0.064876101911068
      ],
      "rotation": [
        -0.70710676908493,
        0.0,
        0.0,
        0.70710676908493
      ],
      "scale": [
        0.00999999977648258,
        0.00999999977648258,
        0.00999999977648258
      ],
      "children": [
        2
      ]
    },
    {
      "name": "Lo-BODY_01",
      "translation": [
        0.0,
        0.0,
        0.0
      ],
      "rotation": [
        0.707106828689575,
        0.0,
        0.0,
        0.707106709480286
      ],
      "scale": [
        1.0,
        1.0,
        1.0
      ],
      "mesh": 0
    }
  ],
  "asset": {
    "generator": "FBX2glTF",
    "version": "2.0"
  },
  "scene": 0,
  "bufferViews": [
    {
      "buffer": 0,
      "byteLength": 8076,
      "byteOffset": 0,
      "target": 34963
    },
    {
      "buffer": 0,
      "byteLength": 18852,
      "byteOffset": 8076,
      "target": 34962
    },
    {
      "buffer": 0,
      "byteLength": 18852,
      "byteOffset": 26928,
      "target": 34962
    },
    {
      "buffer": 0,
      "byteLength": 25136,
      "byteOffset": 45780,
      "target": 34962
    },
    {
      "buffer": 0,
      "byteLength": 12568,
      "byteOffset": 70916,
      "target": 34962
    },
    {
      "buffer": 0,
      "byteLength": 12568,
      "byteOffset": 83484,
      "target": 34962
    }
  ],
  "scenes": [
    {
      "name": "Root Scene",
      "nodes": [
        0
      ]
    }
  ],
  "accessors": [
    {
      "componentType": 5123,
      "type": "SCALAR",
      "count": 4038,
      "bufferView": 0,
      "byteOffset": 0
    },
    {
      "componentType": 5126,
      "type": "VEC3",
      "count": 1571,
      "bufferView": 1,
      "byteOffset": 0,
      "min": [
        -5.02760362625122,
        -12.3897714614868,
        -21.4997177124023
      ],
      "max": [
        5.02760314941406,
        12.3897714614868,
        21.4997177124023
      ]
    },
    {
      "componentType": 5126,
      "type": "VEC3",
      "count": 1571,
      "bufferView": 2,
      "byteOffset": 0
    },
    {
      "componentType": 5126,
      "type": "VEC4",
      "count": 1571,
      "bufferView": 3,
      "byteOffset": 0
    },
    {
      "componentType": 5126,
      "type": "VEC2",
      "count": 1571,
      "bufferView": 4,
      "byteOffset": 0
    },
    {
      "componentType": 5126,
      "type": "VEC2",
      "count": 1571,
      "bufferView": 5,
      "byteOffset": 0
    }
  ],
  "samplers": [
    {}
  ]
}
