{
  "materials": [
    {
      "name": "ceramic.jpgMenShi.bmp",
      "occlusionTexture": {
        "index": 0,
        "texCoord": 1
      },
      "pbrMetallicRoughness": {
        "baseColorTexture": {
          "index": 1,
          "texCoord": 0
        },
        "baseColorFactor": [
          1.0,
          1.0,
          1.0,
          1.0
        ],
        "metallicFactor": 0.199999988,
        "roughnessFactor": 0.700000048
      },
      "alphaMode": "OPAQUE",
      "normalTexture": {
        "index": 2,
        "texCoord": 0,
        "scale": 1.66666663
      }
    }
  ],
  "images": [
    {
      "uri": "0S3D1ZCGZ8SDUJOP7PUPF7QRQDVDFU0YH.jpg"
    },
    {
      "uri": "Z8O3YWGO024EWCD83P1IE8UQ9JK5OT1PO.jpg"
    },
    {
      "uri": "2S4W42GE0WTOUI53U78DJ72I9TWQOP2MH.jpg"
    }
  ],
  "textures": [
    {
      "name": "MenShi_f_bmp.jpg",
      "sampler": 0,
      "source": 0
    },
    {
      "name": "ceramic.jpg",
      "sampler": 0,
      "source": 1
    },
    {
      "name": "ceramic_NRM.jpg",
      "sampler": 0,
      "source": 2
    }
  ],
  "meshes": [
    {
      "name": "Box001",
      "primitives": [
        {
          "material": 0,
          "mode": 4,
          "indices": 0,
          "attributes": {
            "COLOR_0": 3,
            "NORMAL": 2,
            "POSITION": 1,
            "TEXCOORD_0": 4,
            "TEXCOORD_1": 5
          }
        }
      ]
    }
  ],
  "buffers": [
    {
      "byteLength": 4303,
      "uri": "P7D93WCYTJ6IFUWX1YVT9T0EWN22TZKCQ.bin"
    }
  ],
  "bufferViews": [
    {
      "buffer": 0,
      "target": 34963,
      "byteLength": 174,
      "byteOffset": 0
    },
    {
      "buffer": 0,
      "target": 34962,
      "byteLength": 624,
      "byteOffset": 216
    },
    {
      "buffer": 0,
      "target": 34962,
      "byteLength": 792,
      "byteOffset": 840
    },
    {
      "buffer": 0,
      "target": 34962,
      "byteLength": 720,
      "byteOffset": 1688
    },
    {
      "buffer": 0,
      "target": 34962,
      "byteLength": 544,
      "byteOffset": 2408
    },
    {
      "buffer": 0,
      "target": 34962,
      "byteLength": 344,
      "byteOffset": 2960
    }
  ],
  "accessors": [
    {
      "componentType": 5123,
      "type": "SCALAR",
      "bufferView": 0,
      "byteOffset": 0,
      "byteType": 987,
      "count": 87
    },
    {
      "componentType": 5126,
      "type": "VEC3",
      "bufferView": 1,
      "byteOffset": 0,
      "byteType": 879,
      "count": 52,
      "min": [
        -4.0,
        -1.5,
        0.0
      ],
      "max": [
        4.0,
        1.5,
        3.0
      ]
    },
    {
      "componentType": 5126,
      "type": "VEC3",
      "bufferView": 2,
      "byteOffset": 0,
      "byteType": 694,
      "count": 66
    },
    {
      "componentType": 5126,
      "type": "VEC4",
      "bufferView": 3,
      "byteOffset": 0,
      "byteType": 747,
      "count": 45
    },
    {
      "componentType": 5126,
      "type": "VEC2",
      "bufferView": 4,
      "byteOffset": 0,
      "byteType": 826,
      "count": 68
    },
    {
      "componentType": 5126,
      "type": "VEC2",
      "bufferView": 5,
      "byteOffset": 0,
      "byteType": 379,
      "count": 43
    }
  ],
  "nodes": [
    {
      "name": "RootNode",
      "translation": [
        0.0,
        0.0,
        0.0
      ],
      "rotation": [
        0.0,
        0.0,
        0.0,
        1.0
      ],
      "scale": [
        1.0,
        1.0,
        1.0
      ],
      "children": [
        1
      ]
    },
    {
      "name": "Box001",
      "translation": [
        0.0,
        0.0,
        0.0
      ],
      "rotation": [
        -0.70710676908493,
        0.0,
        0.0,
        0.70710676908493
      ],
      "scale": [
        1.0,
        1.0,
        1.0
      ],
      "mesh": 0
    }
  ],
  "asset": {
    "generator": "FBX2glTF",
    "version": "2.0"
  },
  "scene": 0,
  "scenes": [
    {
      "name": "Root Scene",
      "nodes": [
        0
      ]
    }
  ],
  "samplers": [
    {}
  ]
}
