{
  "materials": [
    {
      "name": "Std_Textures_01.jpg",
      "pbrMetallicRoughness": {
        "baseColorTexture": {
          "index": 0,
          "texCoord": 0
        },
        "baseColorFactor": [
          1.0,
          1.0,
          1.0,
          1.0
        ],
        "metallicFactor": 0.099999994,
        "roughnessFactor": 1
      },
      "alphaMode": "OPAQUE"
    }
  ],
  "images": [
    {
      "uri": "Y7ZQXTT7C3UOGTWP7IZU2XO2OXTT85860.jpg"
    }
  ],
  "textures": [
    {
      "name": "Textures_01.jpg",
      "sampler": 0,
      "source": 0
    }
  ],
  "meshes": [
    {
      "name": "Lo-BO2222DYa_01",
      "primitives": [
        {
          "material": 0,
          "mode": 4,
          "indices": 6,
          "attributes": {
            "COLOR_0": 9,
            "NORMAL": 8,
            "POSITION": 7,
            "TEXCOORD_0": 10,
            "TEXCOORD_1": 11
          }
        }
      ]
    },
    {
      "name": "Lo-BO2222DYa_02",
      "primitives": [
        {
          "material": 0,
          "mode": 4,
          "indices": 12,
          "attributes": {
            "COLOR_0": 15,
            "NORMAL": 14,
            "POSITION": 13,
            "TEXCOORD_0": 16,
            "TEXCOORD_1": 17
          }
        }
      ]
    },
    {
      "name": "Lo-B33663ODY_01",
      "primitives": [
        {
          "material": 0,
          "mode": 4,
          "indices": 18,
          "attributes": {
            "COLOR_0": 21,
            "NORMAL": 20,
            "POSITION": 19,
            "TEXCOORD_0": 22,
            "TEXCOORD_1": 23
          }
        }
      ]
    }
  ],
  "buffers": [
    {
      "byteLength": 11275,
      "uri": "X7P2R7WP0OHW0RWJ1PWPUR36KR1NWYTJ0.bin"
    }
  ],
  "bufferViews": [
    {
      "buffer": 0,
      "byteLength": 204,
      "byteOffset": 0
    },
    {
      "buffer": 0,
      "byteLength": 480,
      "byteOffset": 340
    },
    {
      "buffer": 0,
      "byteLength": 816,
      "byteOffset": 820
    },
    {
      "buffer": 0,
      "byteLength": 116,
      "byteOffset": 1520
    },
    {
      "buffer": 0,
      "byteLength": 864,
      "byteOffset": 1636
    },
    {
      "buffer": 0,
      "byteLength": 400,
      "byteOffset": 2516
    },
    {
      "buffer": 0,
      "target": 34963,
      "byteLength": 92,
      "byteOffset": 2916
    },
    {
      "buffer": 0,
      "target": 34962,
      "byteLength": 156,
      "byteOffset": 3120
    },
    {
      "buffer": 0,
      "target": 34962,
      "byteLength": 408,
      "byteOffset": 3276
    },
    {
      "buffer": 0,
      "target": 34962,
      "byteLength": 208,
      "byteOffset": 3740
    },
    {
      "buffer": 0,
      "target": 34962,
      "byteLength": 248,
      "byteOffset": 3948
    },
    {
      "buffer": 0,
      "target": 34962,
      "byteLength": 128,
      "byteOffset": 4204
    },
    {
      "buffer": 0,
      "target": 34963,
      "byteLength": 92,
      "byteOffset": 4332
    },
    {
      "buffer": 0,
      "target": 34962,
      "byteLength": 240,
      "byteOffset": 4452
    },
    {
      "buffer": 0,
      "target": 34962,
      "byteLength": 312,
      "byteOffset": 4692
    },
    {
      "buffer": 0,
      "target": 34962,
      "byteLength": 336,
      "byteOffset": 5028
    },
    {
      "buffer": 0,
      "target": 34962,
      "byteLength": 288,
      "byteOffset": 5364
    },
    {
      "buffer": 0,
      "target": 34962,
      "byteLength": 88,
      "byteOffset": 5660
    },
    {
      "buffer": 0,
      "target": 34963,
      "byteLength": 240,
      "byteOffset": 5748
    },
    {
      "buffer": 0,
      "target": 34962,
      "byteLength": 768,
      "byteOffset": 6120
    },
    {
      "buffer": 0,
      "target": 34962,
      "byteLength": 1032,
      "byteOffset": 6888
    },
    {
      "buffer": 0,
      "target": 34962,
      "byteLength": 1072,
      "byteOffset": 7972
    },
    {
      "buffer": 0,
      "target": 34962,
      "byteLength": 712,
      "byteOffset": 9044
    },
    {
      "buffer": 0,
      "target": 34962,
      "byteLength": 512,
      "byteOffset": 9764
    }
  ],
  "accessors": [
    {
      "componentType": 5126,
      "type": "SCALAR",
      "bufferView": 0,
      "byteOffset": 0,
      "byteType": 732,
      "count": 51,
      "min": [
        0.0
      ],
      "max": [
        1.66666662693024
      ]
    },
    {
      "componentType": 5126,
      "type": "VEC4",
      "bufferView": 1,
      "byteOffset": 0,
      "byteType": 1251,
      "count": 30
    },
    {
      "componentType": 5126,
      "type": "VEC4",
      "bufferView": 2,
      "byteOffset": 0,
      "byteType": 1967,
      "count": 51
    },
    {
      "componentType": 5126,
      "type": "SCALAR",
      "bufferView": 3,
      "byteOffset": 0,
      "byteType": 1477,
      "count": 29,
      "min": [
        -3.33786010742188E-06
      ],
      "max": [
        1.62499678134918
      ]
    },
    {
      "componentType": 5126,
      "type": "VEC4",
      "bufferView": 4,
      "byteOffset": 0,
      "byteType": 1652,
      "count": 54
    },
    {
      "componentType": 5126,
      "type": "VEC4",
      "bufferView": 5,
      "byteOffset": 0,
      "byteType": 741,
      "count": 25
    },
    {
      "componentType": 5123,
      "type": "SCALAR",
      "bufferView": 6,
      "byteOffset": 0,
      "byteType": 229,
      "count": 46
    },
    {
      "componentType": 5126,
      "type": "VEC3",
      "bufferView": 7,
      "byteOffset": 0,
      "byteType": 1683,
      "count": 13,
      "min": [
        0.0010766601189971,
        -5.32632160599178E-09,
        -0.0400002002716064
      ],
      "max": [
        0.881900012493134,
        2.27785205841064,
        0.0399999991059303
      ]
    },
    {
      "componentType": 5126,
      "type": "VEC3",
      "bufferView": 8,
      "byteOffset": 0,
      "byteType": 810,
      "count": 34
    },
    {
      "componentType": 5126,
      "type": "VEC4",
      "bufferView": 9,
      "byteOffset": 0,
      "byteType": 1877,
      "count": 13
    },
    {
      "componentType": 5126,
      "type": "VEC2",
      "bufferView": 10,
      "byteOffset": 0,
      "byteType": 1482,
      "count": 31
    },
    {
      "componentType": 5126,
      "type": "VEC2",
      "bufferView": 11,
      "byteOffset": 0,
      "byteType": 1697,
      "count": 16
    },
    {
      "componentType": 5123,
      "type": "SCALAR",
      "bufferView": 12,
      "byteOffset": 0,
      "byteType": 1503,
      "count": 46
    },
    {
      "componentType": 5126,
      "type": "VEC3",
      "bufferView": 13,
      "byteOffset": 0,
      "byteType": 1477,
      "count": 20,
      "min": [
        -0.878017425537109,
        -5.32632338234862E-09,
        -0.0400004051625729
      ],
      "max": [
        0.00240440363995731,
        2.27785205841064,
        0.0400000996887684
      ]
    },
    {
      "componentType": 5126,
      "type": "VEC3",
      "bufferView": 14,
      "byteOffset": 0,
      "byteType": 1403,
      "count": 26
    },
    {
      "componentType": 5126,
      "type": "VEC4",
      "bufferView": 15,
      "byteOffset": 0,
      "byteType": 517,
      "count": 21
    },
    {
      "componentType": 5126,
      "type": "VEC2",
      "bufferView": 16,
      "byteOffset": 0,
      "byteType": 1704,
      "count": 36
    },
    {
      "componentType": 5126,
      "type": "VEC2",
      "bufferView": 17,
      "byteOffset": 0,
      "byteType": 525,
      "count": 11
    },
    {
      "componentType": 5123,
      "type": "SCALAR",
      "bufferView": 18,
      "byteOffset": 0,
      "byteType": 1335,
      "count": 120
    },
    {
      "componentType": 5126,
      "type": "VEC3",
      "bufferView": 19,
      "byteOffset": 0,
      "byteType": 1211,
      "count": 64,
      "min": [
        -0.899426162242889,
        -1.57914200826781E-07,
        -0.0500002019107342
      ],
      "max": [
        0.899358630180359,
        2.29999971389771,
        0.0500000044703484
      ]
    },
    {
      "componentType": 5126,
      "type": "VEC3",
      "bufferView": 20,
      "byteOffset": 0,
      "byteType": 507,
      "count": 86
    },
    {
      "componentType": 5126,
      "type": "VEC4",
      "bufferView": 21,
      "byteOffset": 0,
      "byteType": 1123,
      "count": 67
    },
    {
      "componentType": 5126,
      "type": "VEC2",
      "bufferView": 22,
      "byteOffset": 0,
      "byteType": 1147,
      "count": 89
    },
    {
      "componentType": 5126,
      "type": "VEC2",
      "bufferView": 23,
      "byteOffset": 0,
      "byteType": 549,
      "count": 64
    }
  ],
  "nodes": [
    {
      "name": "RootNode",
      "translation": [
        0.0,
        0.0,
        0.0
      ],
      "rotation": [
        0.0,
        0.0,
        0.0,
        1.0
      ],
      "scale": [
        1.0,
        1.0,
        1.0
      ],
      "children": [
        1
      ]
    },
    {
      "name": "Body",
      "translation": [
        0.0,
        0.0,
        0.0
      ],
      "rotation": [
        2.1855694143369E-08,
        0.0,
        0.0,
        1.0
      ],
      "scale": [
        1.0,
        1.0,
        1.0
      ],
      "children": [
        2,
        7
      ]
    },
    {
      "name": "Controller",
      "translation": [
        0.0,
        0.0,
        0.0
      ],
      "rotation": [
        3.30872245021211E-24,
        0.0,
        0.0,
        1.0
      ],
      "scale": [
        1.0,
        1.0,
        1.0
      ],
      "children": [
        3,
        5
      ]
    },
    {
      "name": "LeftPiovt",
      "translation": [
        -0.878701627254486,
        0.0,
        0.0
      ],
      "rotation": [
        0.0,
        0.0,
        0.0,
        1.0
      ],
      "scale": [
        1.0,
        1.0,
        1.0
      ],
      "children": [
        4
      ]
    },
    {
      "name": "Lo-BO2222DYa_01",
      "translation": [
        0.0,
        0.0,
        0.0
      ],
      "rotation": [
        3.30872245021211E-24,
        0.0,
        0.0,
        1.0
      ],
      "scale": [
        1.0,
        1.0,
        1.0
      ],
      "mesh": 0
    },
    {
      "name": "RightPiovt",
      "translation": [
        0.877463757991791,
        0.0,
        0.0
      ],
      "rotation": [
        0.0,
        0.0,
        0.0,
        1.0
      ],
      "scale": [
        1.0,
        1.0,
        1.0
      ],
      "children": [
        6
      ]
    },
    {
      "name": "Lo-BO2222DYa_02",
      "translation": [
        0.0,
        0.0,
        0.0
      ],
      "rotation": [
        3.30872245021211E-24,
        0.0,
        0.0,
        1.0
      ],
      "scale": [
        1.0,
        1.0,
        1.0
      ],
      "mesh": 1
    },
    {
      "name": "MENKUANG",
      "translation": [
        0.0,
        0.0,
        0.0
      ],
      "rotation": [
        3.30872245021211E-24,
        0.0,
        0.0,
        1.0
      ],
      "scale": [
        1.0,
        1.0,
        1.0
      ],
      "children": [
        8
      ]
    },
    {
      "name": "Lo-B33663ODY_01",
      "translation": [
        0.0,
        0.0,
        0.0
      ],
      "rotation": [
        0.0,
        0.0,
        0.0,
        1.0
      ],
      "scale": [
        1.0,
        1.0,
        1.0
      ],
      "mesh": 2
    }
  ],
  "asset": {
    "generator": "FBX2glTF",
    "version": "2.0"
  },
  "scene": 0,
  "scenes": [
    {
      "name": "Root Scene",
      "nodes": [
        0
      ]
    }
  ],
  "samplers": [
    {}
  ],
  "animations": [
    {
      "name": "Auto_Open",
      "channels": [
        {
          "sampler": 0,
          "target": {
            "node": 3,
            "path": "rotation"
          }
        },
        {
          "sampler": 1,
          "target": {
            "node": 5,
            "path": "rotation"
          }
        }
      ],
      "samplers": [
        {
          "input": 0,
          "interpolation": "LINEAR",
          "output": 1
        },
        {
          "input": 0,
          "interpolation": "LINEAR",
          "output": 2
        }
      ]
    },
    {
      "name": "Auto_Close",
      "channels": [
        {
          "sampler": 0,
          "target": {
            "node": 3,
            "path": "rotation"
          }
        },
        {
          "sampler": 1,
          "target": {
            "node": 5,
            "path": "rotation"
          }
        }
      ],
      "samplers": [
        {
          "input": 3,
          "interpolation": "LINEAR",
          "output": 4
        },
        {
          "input": 3,
          "interpolation": "LINEAR",
          "output": 5
        }
      ]
    }
  ]
}
