{
  "materials": [
    {
      "name": "xlmy008_blue00000ShiTang.bmp",
      "occlusionTexture": {
        "index": 0,
        "texCoord": 1
      },
      "pbrMetallicRoughness": {
        "baseColorTexture": {
          "index": 1,
          "texCoord": 0
        },
        "baseColorFactor": [
          1.0,
          1.0,
          1.0,
          1.0
        ],
        "metallicFactor": 0.099999994,
        "roughnessFactor": 1
      },
      "alphaMode": "OPAQUE",
      "normalTexture": {
        "index": 2,
        "texCoord": 0,
        "scale": 0.3333333
      }
    },
    {
      "name": "xlmy00008ShiTang.bmp",
      "occlusionTexture": {
        "index": 0,
        "texCoord": 1
      },
      "pbrMetallicRoughness": {
        "baseColorTexture": {
          "index": 3,
          "texCoord": 0
        },
        "baseColorFactor": [
          1.0,
          1.0,
          1.0,
          1.0
        ],
        "metallicFactor": 0.099999994,
        "roughnessFactor": 1
      },
      "alphaMode": "OPAQUE",
      "normalTexture": {
        "index": 4,
        "texCoord": 0,
        "scale": 0.3333333
      }
    },
    {
      "name": "xlmy00800_blueShiTang.bmp",
      "occlusionTexture": {
        "index": 0,
        "texCoord": 1
      },
      "pbrMetallicRoughness": {
        "baseColorTexture": {
          "index": 5,
          "texCoord": 0
        },
        "baseColorFactor": [
          1.0,
          1.0,
          1.0,
          1.0
        ],
        "metallicFactor": 0.099999994,
        "roughnessFactor": 1
      },
      "alphaMode": "OPAQUE",
      "normalTexture": {
        "index": 4,
        "texCoord": 0,
        "scale": 0.3333333
      }
    },
    {
      "name": "RoofshuiniShiTang.bmp",
      "occlusionTexture": {
        "index": 0,
        "texCoord": 1
      },
      "pbrMetallicRoughness": {
        "baseColorTexture": {
          "index": 6,
          "texCoord": 0
        },
        "baseColorFactor": [
          1.0,
          1.0,
          1.0,
          1.0
        ],
        "metallicFactor": 0.0,
        "roughnessFactor": 1
      },
      "alphaMode": "OPAQUE",
      "normalTexture": {
        "index": 7,
        "texCoord": 0,
        "scale": 1.66666663
      }
    },
    {
      "name": "xlmy00800_blackShiTang.bmp",
      "occlusionTexture": {
        "index": 0,
        "texCoord": 1
      },
      "pbrMetallicRoughness": {
        "baseColorTexture": {
          "index": 8,
          "texCoord": 0
        },
        "baseColorFactor": [
          1.0,
          1.0,
          1.0,
          1.0
        ],
        "metallicFactor": 0.099999994,
        "roughnessFactor": 1
      },
      "alphaMode": "OPAQUE",
      "normalTexture": {
        "index": 2,
        "texCoord": 0,
        "scale": 1.00000012
      }
    },
    {
      "name": "bigdoor02",
      "pbrMetallicRoughness": {
        "baseColorTexture": {
          "index": 9,
          "texCoord": 0
        },
        "baseColorFactor": [
          1.0,
          1.0,
          1.0,
          1.0
        ],
        "metallicFactor": 0.599999964,
        "roughnessFactor": 0.0
      },
      "alphaMode": "OPAQUE"
    },
    {
      "name": "window02",
      "pbrMetallicRoughness": {
        "baseColorTexture": {
          "index": 10,
          "texCoord": 0
        },
        "baseColorFactor": [
          1.0,
          1.0,
          1.0,
          1.0
        ],
        "metallicFactor": 0.599999964,
        "roughnessFactor": 0.0
      },
      "alphaMode": "OPAQUE"
    },
    {
      "name": "bigdoor03",
      "pbrMetallicRoughness": {
        "baseColorTexture": {
          "index": 11,
          "texCoord": 0
        },
        "baseColorFactor": [
          1.0,
          1.0,
          1.0,
          1.0
        ],
        "metallicFactor": 0.299999982,
        "roughnessFactor": 0.400000036
      },
      "alphaMode": "OPAQUE"
    }
  ],
  "images": [
    {
      "uri": "CO8TQMZJVP9W06DF4NX1TKI10KYH1ITWY.jpg"
    },
    {
      "uri": "C53DWXAZC43Y765OT7CTU0GQY62JPOO11.jpg"
    },
    {
      "uri": "0R6EYQQ7JQXE7CXEP8DZTKP37OMA6C2HW.jpg"
    },
    {
      "uri": "WXTUNPF1NQW0V41686XO4COAYKTWZWX9P.jpg"
    },
    {
      "uri": "046FN6ROPIMZ02RHJ84Q6VIZ7UEZNSOTJ.jpg"
    },
    {
      "uri": "VCOYNYZWSI6ZWIIJ0VQT7WTUUSGOD6410.jpg"
    },
    {
      "uri": "6XJT0GU268G8YCDO22IE7QTU6OC3D0M31.jpg"
    },
    {
      "uri": "7IW81P7ZO6TJPQIJ2QDOTQ4QD2510SR7T.jpg"
    },
    {
      "uri": "U2QD8Q168649U7XA27XHT6T3484E1SM72.jpg"
    },
    {
      "uri": "W232QEJ4VTQ7WX9DW6XHN2T8214E6QTZD.jpg"
    },
    {
      "uri": "KETNIIWTQCET6YTN1CU6DUDJJKG18OTZ4.jpg"
    },
    {
      "uri": "V5OWQC9JOR690KE301YZZ0R74UGUZWO38.jpg"
    }
  ],
  "textures": [
    {
      "name": "ShiTang_f_bmp.jpg",
      "sampler": 0,
      "source": 0
    },
    {
      "name": "xlmy008_blue00000.jpg",
      "sampler": 0,
      "source": 1
    },
    {
      "name": "xlmy008_normal.jpg",
      "sampler": 0,
      "source": 2
    },
    {
      "name": "xlmy00008.jpg",
      "sampler": 0,
      "source": 3
    },
    {
      "name": "xlmy008_normal2.jpg",
      "sampler": 0,
      "source": 4
    },
    {
      "name": "xlmy00800_blue.jpg",
      "sampler": 0,
      "source": 5
    },
    {
      "name": "Roofshuini.jpg",
      "sampler": 0,
      "source": 6
    },
    {
      "name": "RoofshuiniNOR.jpg",
      "sampler": 0,
      "source": 7
    },
    {
      "name": "xlmy00800_black.jpg",
      "sampler": 0,
      "source": 8
    },
    {
      "name": "bigdoor02.jpg",
      "sampler": 0,
      "source": 9
    },
    {
      "name": "window02.jpg",
      "sampler": 0,
      "source": 10
    },
    {
      "name": "bigdoor03.jpg",
      "sampler": 0,
      "source": 11
    }
  ],
  "meshes": [
    {
      "name": "Qun",
      "primitives": [
        {
          "material": 0,
          "mode": 4,
          "indices": 0,
          "attributes": {
            "COLOR_0": 3,
            "NORMAL": 2,
            "POSITION": 1,
            "TEXCOORD_0": 4,
            "TEXCOORD_1": 5
          }
        },
        {
          "material": 1,
          "mode": 4,
          "indices": 6,
          "attributes": {
            "COLOR_0": 9,
            "NORMAL": 8,
            "POSITION": 7,
            "TEXCOORD_0": 10,
            "TEXCOORD_1": 11
          }
        },
        {
          "material": 2,
          "mode": 4,
          "indices": 12,
          "attributes": {
            "COLOR_0": 15,
            "NORMAL": 14,
            "POSITION": 13,
            "TEXCOORD_0": 16,
            "TEXCOORD_1": 17
          }
        },
        {
          "material": 3,
          "mode": 4,
          "indices": 18,
          "attributes": {
            "COLOR_0": 21,
            "NORMAL": 20,
            "POSITION": 19,
            "TEXCOORD_0": 22,
            "TEXCOORD_1": 23
          }
        },
        {
          "material": 4,
          "mode": 4,
          "indices": 24,
          "attributes": {
            "COLOR_0": 27,
            "NORMAL": 26,
            "POSITION": 25,
            "TEXCOORD_0": 28,
            "TEXCOORD_1": 29
          }
        }
      ]
    },
    {
      "name": "duixiang004",
      "primitives": [
        {
          "material": 5,
          "mode": 4,
          "indices": 30,
          "attributes": {
            "COLOR_0": 33,
            "NORMAL": 32,
            "POSITION": 31,
            "TEXCOORD_0": 34,
            "TEXCOORD_1": 35
          }
        },
        {
          "material": 6,
          "mode": 4,
          "indices": 36,
          "attributes": {
            "COLOR_0": 39,
            "NORMAL": 38,
            "POSITION": 37,
            "TEXCOORD_0": 40,
            "TEXCOORD_1": 41
          }
        },
        {
          "material": 7,
          "mode": 4,
          "indices": 42,
          "attributes": {
            "COLOR_0": 45,
            "NORMAL": 44,
            "POSITION": 43,
            "TEXCOORD_0": 46,
            "TEXCOORD_1": 47
          }
        }
      ]
    }
  ],
  "buffers": [
    {
      "byteLength": 339599,
      "uri": "1IQ1NM7612CHZWCA6K2ZZSGT285UZKE7N.bin"
    }
  ],
  "bufferViews": [
    {
      "buffer": 0,
      "target": 34963,
      "byteLength": 3362,
      "byteOffset": 0
    },
    {
      "buffer": 0,
      "target": 34962,
      "byteLength": 9960,
      "byteOffset": 3416
    },
    {
      "buffer": 0,
      "target": 34962,
      "byteLength": 10128,
      "byteOffset": 13376
    },
    {
      "buffer": 0,
      "target": 34962,
      "byteLength": 13200,
      "byteOffset": 23556
    },
    {
      "buffer": 0,
      "target": 34962,
      "byteLength": 6776,
      "byteOffset": 36756
    },
    {
      "buffer": 0,
      "target": 34962,
      "byteLength": 6576,
      "byteOffset": 43540
    },
    {
      "buffer": 0,
      "target": 34963,
      "byteLength": 8828,
      "byteOffset": 50116
    },
    {
      "buffer": 0,
      "target": 34962,
      "byteLength": 32076,
      "byteOffset": 59028
    },
    {
      "buffer": 0,
      "target": 34962,
      "byteLength": 32220,
      "byteOffset": 91104
    },
    {
      "buffer": 0,
      "target": 34962,
      "byteLength": 42816,
      "byteOffset": 123356
    },
    {
      "buffer": 0,
      "target": 34962,
      "byteLength": 21512,
      "byteOffset": 166172
    },
    {
      "buffer": 0,
      "target": 34962,
      "byteLength": 21376,
      "byteOffset": 187692
    },
    {
      "buffer": 0,
      "target": 34963,
      "byteLength": 3356,
      "byteOffset": 209068
    },
    {
      "buffer": 0,
      "target": 34962,
      "byteLength": 13356,
      "byteOffset": 212512
    },
    {
      "buffer": 0,
      "target": 34962,
      "byteLength": 13608,
      "byteOffset": 225868
    },
    {
      "buffer": 0,
      "target": 34962,
      "byteLength": 17776,
      "byteOffset": 239536
    },
    {
      "buffer": 0,
      "target": 34962,
      "byteLength": 9072,
      "byteOffset": 257312
    },
    {
      "buffer": 0,
      "target": 34962,
      "byteLength": 8888,
      "byteOffset": 266392
    },
    {
      "buffer": 0,
      "target": 34963,
      "byteLength": 160,
      "byteOffset": 275280
    },
    {
      "buffer": 0,
      "target": 34962,
      "byteLength": 372,
      "byteOffset": 275532
    },
    {
      "buffer": 0,
      "target": 34962,
      "byteLength": 552,
      "byteOffset": 275904
    },
    {
      "buffer": 0,
      "target": 34962,
      "byteLength": 528,
      "byteOffset": 276496
    },
    {
      "buffer": 0,
      "target": 34962,
      "byteLength": 392,
      "byteOffset": 277024
    },
    {
      "buffer": 0,
      "target": 34962,
      "byteLength": 240,
      "byteOffset": 277424
    },
    {
      "buffer": 0,
      "target": 34963,
      "byteLength": 1858,
      "byteOffset": 277664
    },
    {
      "buffer": 0,
      "target": 34962,
      "byteLength": 7836,
      "byteOffset": 279644
    },
    {
      "buffer": 0,
      "target": 34962,
      "byteLength": 8076,
      "byteOffset": 287480
    },
    {
      "buffer": 0,
      "target": 34962,
      "byteLength": 10608,
      "byteOffset": 295492
    },
    {
      "buffer": 0,
      "target": 34962,
      "byteLength": 5360,
      "byteOffset": 306100
    },
    {
      "buffer": 0,
      "target": 34962,
      "byteLength": 5272,
      "byteOffset": 311468
    },
    {
      "buffer": 0,
      "target": 34963,
      "byteLength": 242,
      "byteOffset": 316740
    },
    {
      "buffer": 0,
      "target": 34962,
      "byteLength": 480,
      "byteOffset": 317124
    },
    {
      "buffer": 0,
      "target": 34962,
      "byteLength": 828,
      "byteOffset": 317604
    },
    {
      "buffer": 0,
      "target": 34962,
      "byteLength": 608,
      "byteOffset": 318508
    },
    {
      "buffer": 0,
      "target": 34962,
      "byteLength": 496,
      "byteOffset": 319116
    },
    {
      "buffer": 0,
      "target": 34962,
      "byteLength": 360,
      "byteOffset": 319620
    },
    {
      "buffer": 0,
      "target": 34963,
      "byteLength": 886,
      "byteOffset": 319980
    },
    {
      "buffer": 0,
      "target": 34962,
      "byteLength": 3576,
      "byteOffset": 320928
    },
    {
      "buffer": 0,
      "target": 34962,
      "byteLength": 3768,
      "byteOffset": 324504
    },
    {
      "buffer": 0,
      "target": 34962,
      "byteLength": 4688,
      "byteOffset": 328328
    },
    {
      "buffer": 0,
      "target": 34962,
      "byteLength": 2536,
      "byteOffset": 333016
    },
    {
      "buffer": 0,
      "target": 34962,
      "byteLength": 2376,
      "byteOffset": 335504
    },
    {
      "buffer": 0,
      "target": 34963,
      "byteLength": 64,
      "byteOffset": 337880
    },
    {
      "buffer": 0,
      "target": 34962,
      "byteLength": 36,
      "byteOffset": 338036
    },
    {
      "buffer": 0,
      "target": 34962,
      "byteLength": 204,
      "byteOffset": 338072
    },
    {
      "buffer": 0,
      "target": 34962,
      "byteLength": 96,
      "byteOffset": 338312
    },
    {
      "buffer": 0,
      "target": 34962,
      "byteLength": 168,
      "byteOffset": 338408
    },
    {
      "buffer": 0,
      "target": 34962,
      "byteLength": 16,
      "byteOffset": 338584
    }
  ],
  "accessors": [
    {
      "componentType": 5123,
      "type": "SCALAR",
      "bufferView": 0,
      "byteOffset": 0,
      "byteType": 588,
      "count": 1681
    },
    {
      "componentType": 5126,
      "type": "VEC3",
      "bufferView": 1,
      "byteOffset": 0,
      "byteType": 1521,
      "count": 830,
      "min": [
        -22.0333843231201,
        -18.968864440918,
        0.0
      ],
      "max": [
        22.099702835083,
        18.968864440918,
        4.0
      ]
    },
    {
      "componentType": 5126,
      "type": "VEC3",
      "bufferView": 2,
      "byteOffset": 0,
      "byteType": 1041,
      "count": 844
    },
    {
      "componentType": 5126,
      "type": "VEC4",
      "bufferView": 3,
      "byteOffset": 0,
      "byteType": 1571,
      "count": 825
    },
    {
      "componentType": 5126,
      "type": "VEC2",
      "bufferView": 4,
      "byteOffset": 0,
      "byteType": 1334,
      "count": 847
    },
    {
      "componentType": 5126,
      "type": "VEC2",
      "bufferView": 5,
      "byteOffset": 0,
      "byteType": 1467,
      "count": 822
    },
    {
      "componentType": 5123,
      "type": "SCALAR",
      "bufferView": 6,
      "byteOffset": 0,
      "byteType": 329,
      "count": 4414
    },
    {
      "componentType": 5126,
      "type": "VEC3",
      "bufferView": 7,
      "byteOffset": 0,
      "byteType": 1917,
      "count": 2673,
      "min": [
        -36.4333877563477,
        -17.3434066772461,
        1.78813934326172E-07
      ],
      "max": [
        36.4333915710449,
        17.3434181213379,
        9.00000667572021
      ]
    },
    {
      "componentType": 5126,
      "type": "VEC3",
      "bufferView": 8,
      "byteOffset": 0,
      "byteType": 786,
      "count": 2685
    },
    {
      "componentType": 5126,
      "type": "VEC4",
      "bufferView": 9,
      "byteOffset": 0,
      "byteType": 465,
      "count": 2676
    },
    {
      "componentType": 5126,
      "type": "VEC2",
      "bufferView": 10,
      "byteOffset": 0,
      "byteType": 954,
      "count": 2689
    },
    {
      "componentType": 5126,
      "type": "VEC2",
      "bufferView": 11,
      "byteOffset": 0,
      "byteType": 671,
      "count": 2672
    },
    {
      "componentType": 5123,
      "type": "SCALAR",
      "bufferView": 12,
      "byteOffset": 0,
      "byteType": 770,
      "count": 1678
    },
    {
      "componentType": 5126,
      "type": "VEC3",
      "bufferView": 13,
      "byteOffset": 0,
      "byteType": 1499,
      "count": 1113,
      "min": [
        -36.5574531555176,
        -17.4674835205078,
        2.5
      ],
      "max": [
        36.5574569702148,
        17.4674873352051,
        9.00000667572021
      ]
    },
    {
      "componentType": 5126,
      "type": "VEC3",
      "bufferView": 14,
      "byteOffset": 0,
      "byteType": 447,
      "count": 1134
    },
    {
      "componentType": 5126,
      "type": "VEC4",
      "bufferView": 15,
      "byteOffset": 0,
      "byteType": 1755,
      "count": 1111
    },
    {
      "componentType": 5126,
      "type": "VEC2",
      "bufferView": 16,
      "byteOffset": 0,
      "byteType": 1392,
      "count": 1134
    },
    {
      "componentType": 5126,
      "type": "VEC2",
      "bufferView": 17,
      "byteOffset": 0,
      "byteType": 1583,
      "count": 1111
    },
    {
      "componentType": 5123,
      "type": "SCALAR",
      "bufferView": 18,
      "byteOffset": 0,
      "byteType": 328,
      "count": 80
    },
    {
      "componentType": 5126,
      "type": "VEC3",
      "bufferView": 19,
      "byteOffset": 0,
      "byteType": 1739,
      "count": 31,
      "min": [
        -35.8130226135254,
        -16.7230453491211,
        3.99999976158142
      ],
      "max": [
        35.8130264282227,
        16.7230529785156,
        8.00000667572021
      ]
    },
    {
      "componentType": 5126,
      "type": "VEC3",
      "bufferView": 20,
      "byteOffset": 0,
      "byteType": 1589,
      "count": 46
    },
    {
      "componentType": 5126,
      "type": "VEC4",
      "bufferView": 21,
      "byteOffset": 0,
      "byteType": 797,
      "count": 33
    },
    {
      "componentType": 5126,
      "type": "VEC2",
      "bufferView": 22,
      "byteOffset": 0,
      "byteType": 1148,
      "count": 49
    },
    {
      "componentType": 5126,
      "type": "VEC2",
      "bufferView": 23,
      "byteOffset": 0,
      "byteType": 1461,
      "count": 30
    },
    {
      "componentType": 5123,
      "type": "SCALAR",
      "bufferView": 24,
      "byteOffset": 0,
      "byteType": 774,
      "count": 929
    },
    {
      "componentType": 5126,
      "type": "VEC3",
      "bufferView": 25,
      "byteOffset": 0,
      "byteType": 1539,
      "count": 653,
      "min": [
        -20.9722747802734,
        -19.1102867126465,
        0.0
      ],
      "max": [
        21.0385971069336,
        19.1102867126465,
        0.300001293420792
      ]
    },
    {
      "componentType": 5126,
      "type": "VEC3",
      "bufferView": 26,
      "byteOffset": 0,
      "byteType": 347,
      "count": 673
    },
    {
      "componentType": 5126,
      "type": "VEC4",
      "bufferView": 27,
      "byteOffset": 0,
      "byteType": 1441,
      "count": 663
    },
    {
      "componentType": 5126,
      "type": "VEC2",
      "bufferView": 28,
      "byteOffset": 0,
      "byteType": 1282,
      "count": 670
    },
    {
      "componentType": 5126,
      "type": "VEC2",
      "bufferView": 29,
      "byteOffset": 0,
      "byteType": 1855,
      "count": 659
    },
    {
      "componentType": 5123,
      "type": "SCALAR",
      "bufferView": 30,
      "byteOffset": 0,
      "byteType": 670,
      "count": 121
    },
    {
      "componentType": 5126,
      "type": "VEC3",
      "bufferView": 31,
      "byteOffset": 0,
      "byteType": 1837,
      "count": 40,
      "min": [
        -20.2680568695068,
        -17.1434078216553,
        0.300000369548798
      ],
      "max": [
        20.3343811035156,
        17.1434116363525,
        2.50166773796082
      ]
    },
    {
      "componentType": 5126,
      "type": "VEC3",
      "bufferView": 32,
      "byteOffset": 0,
      "byteType": 1085,
      "count": 69
    },
    {
      "componentType": 5126,
      "type": "VEC4",
      "bufferView": 33,
      "byteOffset": 0,
      "byteType": 1021,
      "count": 38
    },
    {
      "componentType": 5126,
      "type": "VEC2",
      "bufferView": 34,
      "byteOffset": 0,
      "byteType": 1274,
      "count": 62
    },
    {
      "componentType": 5126,
      "type": "VEC2",
      "bufferView": 35,
      "byteOffset": 0,
      "byteType": 727,
      "count": 45
    },
    {
      "componentType": 5123,
      "type": "SCALAR",
      "bufferView": 36,
      "byteOffset": 0,
      "byteType": 938,
      "count": 443
    },
    {
      "componentType": 5126,
      "type": "VEC3",
      "bufferView": 37,
      "byteOffset": 0,
      "byteType": 1259,
      "count": 298,
      "min": [
        -33.1213836669922,
        -17.1434116363525,
        1.00333333015442
      ],
      "max": [
        33.1213874816895,
        17.1434116363525,
        6.9966721534729
      ]
    },
    {
      "componentType": 5126,
      "type": "VEC3",
      "bufferView": 38,
      "byteOffset": 0,
      "byteType": 1761,
      "count": 314
    },
    {
      "componentType": 5126,
      "type": "VEC4",
      "bufferView": 39,
      "byteOffset": 0,
      "byteType": 1955,
      "count": 293
    },
    {
      "componentType": 5126,
      "type": "VEC2",
      "bufferView": 40,
      "byteOffset": 0,
      "byteType": 675,
      "count": 317
    },
    {
      "componentType": 5126,
      "type": "VEC2",
      "bufferView": 41,
      "byteOffset": 0,
      "byteType": 1127,
      "count": 297
    },
    {
      "componentType": 5123,
      "type": "SCALAR",
      "bufferView": 42,
      "byteOffset": 0,
      "byteType": 1000,
      "count": 32
    },
    {
      "componentType": 5126,
      "type": "VEC3",
      "bufferView": 43,
      "byteOffset": 0,
      "byteType": 871,
      "count": 3,
      "min": [
        -21.8333835601807,
        -0.912806630134583,
        0.0
      ],
      "max": [
        21.8997001647949,
        0.912837505340576,
        2.99666786193848
      ]
    },
    {
      "componentType": 5126,
      "type": "VEC3",
      "bufferView": 44,
      "byteOffset": 0,
      "byteType": 1439,
      "count": 17
    },
    {
      "componentType": 5126,
      "type": "VEC4",
      "bufferView": 45,
      "byteOffset": 0,
      "byteType": 1743,
      "count": 6
    },
    {
      "componentType": 5126,
      "type": "VEC2",
      "bufferView": 46,
      "byteOffset": 0,
      "byteType": 1166,
      "count": 21
    },
    {
      "componentType": 5126,
      "type": "VEC2",
      "bufferView": 47,
      "byteOffset": 0,
      "byteType": 1953,
      "count": 2
    }
  ],
  "nodes": [
    {
      "name": "RootNode",
      "translation": [
        0.0,
        0.0,
        0.0
      ],
      "rotation": [
        0.0,
        0.0,
        0.0,
        1.0
      ],
      "scale": [
        1.0,
        1.0,
        1.0
      ],
      "children": [
        1,
        2
      ]
    },
    {
      "name": "Qun",
      "translation": [
        0.0,
        0.0,
        0.0
      ],
      "rotation": [
        -0.5,
        -0.5,
        -0.5,
        0.5
      ],
      "scale": [
        1.0,
        1.0,
        1.0
      ],
      "mesh": 0
    },
    {
      "name": "duixiang004",
      "translation": [
        -0.000270843505859375,
        0.0,
        -0.000232696533203125
      ],
      "rotation": [
        -0.500000059604645,
        -0.499999970197678,
        -0.499999970197678,
        0.500000059604645
      ],
      "scale": [
        1.0,
        1.0,
        1.0
      ],
      "mesh": 1
    }
  ],
  "asset": {
    "generator": "FBX2glTF",
    "version": "2.0"
  },
  "scene": 0,
  "scenes": [
    {
      "name": "Root Scene",
      "nodes": [
        0
      ]
    }
  ],
  "samplers": [
    {}
  ]
}
